<svg height="230" viewBox="0 0 555 297" width="200" xmlns="http://www.w3.org/2000/svg" xmlns:xlink="http://www.w3.org/1999/xlink"><mask id="a" fill="#fff"><path d="m0 296.6328h554.628501v-296.6328h-554.628501z" fill="#fff" fill-rule="evenodd"/></mask><g fill="none" fill-rule="evenodd"><g fill="#03313f"><path d="m461.726448 43.7346s13.85701 4.0329 10.833744 14.7474c-3.023266 10.7136-46.403217 138.4623-46.403217 138.4623l-11.085608-20.6712z"/><path d="m102.663216 184.59117-10.4172687 3.1635s-1.6632009 1.4463.815859 2.3706c2.47906.9252 186.3999437 57.6351 186.3999437 57.6351l-50.885495-46.4679-97.395753-18.5796z"/><path d="m434.535496 197.75979-10.417269-3.1635-149.818517 4.0959-46.817893 8.9307c.089951 3.5352.218582 7.0668.146621 10.6101-.09355 4.5558 50.839619 24.6798 51.22551 29.2221.080956-.0054.161013-.0063.242869-.0117.22128-.0153.334619.1377.349011.3078 37.686029-11.6712 152.846281-47.0871 154.273809-47.6208 2.47906-.9252.815859-2.3706.815859-2.3706"/><path d="m436.936208 259.16643-6.876783-2.0952-108.090972 22.4442-15.591272 2.9745-2.151637-1.9656-37.794871-7.209-11.064919.7281-4.043314 1.2285s-.644951.5607.316629.9198 66.052196 20.4408 66.052196 20.4408c14.625194-4.5297 118.374214-36.3393 118.928314-36.5463.96248-.3591.316629-.9198.316629-.9198"/><path d="m426.77629 194.42394v-11.0538l-11.529068-1.3986v1.7649l-166.106013-50.6547c-.483938-.1467-.99846-.1467-1.481499 0l-145.559319 44.3574c-2.4115968.7326-2.4115968 9.4347 0 10.1673l175.827058 53.6175c.483938.1458.99846.1458 1.4806 0l145.560218-44.3592c1.206248-.3663 1.808923-1.404 1.808023-2.4408"/></g><path d="m148.800177 176.68854-17.61068-2.7963-23.860503 1.9593-7.037795-1.7397v11.0547c0 1.0368.603573 2.0736 1.808922 2.4399l175.827958 53.6175c.241069.0729.490235.1089.7394.1089v-13.1382z" fill="#007cb9"/><path d="m274.939984 242.0667h2.462869v-14.4909h-2.462869z" fill="#03313f" mask="url(#a)"/><path d="m249.140759 127.31373 175.827958 53.6157c2.410697.7326 2.410697 4.1481 0 4.8798l-145.561118 44.3592c-.48214.1458-.996661.1458-1.4797 0l-175.827958-53.6175c-2.4106971-.7317-2.4106971-4.1472 0-4.8798l145.560219-44.3574c.483039-.1467.99756-.1467 1.480599 0" fill="#fff" mask="url(#a)"/><path d="m383.518853 178.29864 16.015842 4.8807c.268955.0819.268955.4626 0 .5454l-16.265907 4.9563c-.053971.0171-.11154.0171-.165511 0l-16.015843-4.8798c-.268954-.0819-.268954-.4635 0-.5454l16.265008-4.9572c.054871-.0162.11154-.0162.166411 0" fill="#03313f" mask="url(#a)"/><path d="m427.726806 181.0989-1.082115 3.0915-1.895275.4734-.473145-.3645-1.820615-3.7179.327423-.9108" fill="#f6dfa4" mask="url(#a)"/><g fill="#03313f"><path d="m277.399884 247.11876 2.045494.6327.434466-.3969-1.14778-1.5579-2.66346-1.3536-.062067-.0306" mask="url(#a)"/><path d="m218.266568 181.16739 42.264554 12.888c.580187.1764.580187.9972 0 1.1736l-34.988387 10.6623c-.116937.0351-.24107.0351-.357107 0l-42.264554-12.8889c-.579287-.1755-.579287-.9963 0-1.1727l34.989287-10.6623c.116037-.0351.24017-.0351.356207 0" mask="url(#a)"/><path d="m248.783293 137.08413 16.015842 4.8798c.268955.0819.268955.4635 0 .5454l-16.265008 4.9572c-.05487.0162-.111539.0162-.16641 0l-16.015843-4.8807c-.268954-.0819-.268954-.4635 0-.5454l16.265908-4.9563c.053971-.0171.11154-.0171.165511 0" mask="url(#a)"/><path d="m282.467565 147.38751 16.015843 4.8807c.268954.0819.268954.4626 0 .5445l-16.265908 4.9572c-.053971.0162-.11154.0162-.165511 0l-16.016742-4.8798c-.268055-.0828-.268055-.4635 0-.5454l16.265908-4.9572c.05487-.0162.111539-.0162.16641 0" mask="url(#a)"/><path d="m316.151028 157.69143 16.015842 4.8798c.268955.0828.268955.4635 0 .5454l-16.265907 4.9572c-.053971.0162-.11154.0162-.165511 0l-16.015843-4.8807c-.268954-.0819-.268954-.4626 0-.5445l16.265908-4.9572c.053971-.0162.11154-.0162.165511 0" mask="url(#a)"/><path d="m349.83449 167.99526 16.015843 4.8798c.268955.0819.268955.4635 0 .5454l-16.265008 4.9572c-.05487.0162-.11154.0162-.16641 0l-16.015843-4.8807c-.268954-.0819-.268954-.4635 0-.5454l16.265908-4.9563c.053971-.0171.111539-.0171.16551 0" mask="url(#a)"/><path d="m220.980041 145.58886 16.015843 4.8798c.268955.0828.268955.4635 0 .5454l-16.265908 4.9572c-.05397.0162-.111539.0162-.16551 0l-16.015843-4.8807c-.268954-.0819-.268954-.4626 0-.5445l16.265908-4.9572c.053971-.0162.11154-.0162.16551 0" mask="url(#a)"/><path d="m254.663504 155.89269 16.016742 4.8798c.268055.0819.268055.4635 0 .5454l-16.265907 4.9572c-.054871.0162-.11154.0162-.16641 0l-16.015843-4.8807c-.268055-.0819-.268055-.4626 0-.5454l16.265908-4.9563c.05397-.0162.111539-.0162.16551 0" mask="url(#a)"/><path d="m288.347776 166.19652 16.015843 4.8798c.268955.0819.268955.4635 0 .5454l-16.265907 4.9572c-.053971.0162-.11154.0162-.165511 0l-16.015843-4.8807c-.268954-.0819-.268954-.4635 0-.5454l16.265008-4.9563c.054871-.0171.11154-.0171.16641 0" mask="url(#a)"/><path d="m322.031239 176.49999 16.015843 4.8807c.268954.0819.268954.4626 0 .5445l-16.265908 4.9572c-.053971.0162-.111539.0162-.16551 0l-16.015843-4.8798c-.268955-.0828-.268955-.4635 0-.5454l16.265908-4.9572c.05397-.0162.111539-.0162.16551 0" mask="url(#a)"/><path d="m355.714702 186.80382 16.016742 4.8798c.268055.0819.268055.4635 0 .5454l-16.265908 4.9572c-.05487.0162-.111539.0162-.16641 0l-16.015842-4.8807c-.268055-.0819-.268055-.4626 0-.5454l16.265907-4.9563c.054871-.0162.11154-.0162.165511 0" mask="url(#a)"/><path d="m193.17679 154.09404 16.015843 4.8798c.268955.0819.268955.4635 0 .5454l-16.265908 4.9572c-.053971.0162-.111539.0162-.16551 0l-16.015843-4.8807c-.268955-.0819-.268955-.4635 0-.5454l16.265908-4.9563c.05397-.0171.11064-.0171.16551 0" mask="url(#a)"/><path d="m226.860253 164.39742 16.015843 4.8807c.268954.0819.268954.4626 0 .5445l-16.265908 4.9572c-.053971.0162-.11064.0162-.165511 0l-16.015842-4.8798c-.268955-.0828-.268955-.4635 0-.5454l16.265907-4.9572c.053971-.0162.11154-.0162.165511 0" mask="url(#a)"/><path d="m260.544615 174.70134 16.015843 4.8798c.268954.0828.268954.4635 0 .5454l-16.265908 4.9572c-.05487.0162-.111539.0162-.16551 0l-16.016743-4.8807c-.268055-.0819-.268055-.4626 0-.5445l16.265908-4.9572c.05487-.0162.11154-.0162.16641 0" mask="url(#a)"/><path d="m294.227988 185.00517 16.015843 4.8798c.268954.0819.268954.4635 0 .5454l-16.265908 4.9572c-.053971.0162-.11154.0162-.165511 0l-16.015842-4.8807c-.268955-.0819-.268955-.4635 0-.5454l16.265907-4.9563c.053971-.0171.11154-.0171.165511 0" mask="url(#a)"/><path d="m327.911451 195.30855 16.015842 4.8807c.268955.0819.268955.4626 0 .5454l-16.265008 4.9563c-.05487.0171-.111539.0171-.16641 0l-16.015843-4.8798c-.268954-.0819-.268954-.4635 0-.5454l16.265908-4.9572c.053971-.0162.11154-.0162.165511 0" mask="url(#a)"/></g><path d="m426.51714 184.46769s.067464.3267 5.951183-17.6589c5.88282-17.9847 37.013193-109.5462 37.013193-109.5462s3.595357-9.8109-6.86329-13.4073c-10.458647-3.5973-166.146491-43.6086-166.146491-43.6086s-6.927156-2.3292-11.439117 11.1177c-4.835786 14.4108-38.203249 117.8388-38.203249 117.8388l151.321604 46.4346 20.589871 5.2326z" fill="#77d9e2" mask="url(#a)"/><path d="m462.618046 43.85502c-10.458646-3.5973-166.146491-43.6086-166.146491-43.6086s-7.022504-2.8854-11.439117 11.1177c-4.138662 13.1238-32.673938 100.7739-38.543265 118.3509l179.91265 54.9009c1.924059-5.2524 3.393865-9.6372 6.065421-17.8065 5.88372-17.9856 37.014092-109.5471 37.014092-109.5471s3.595357-9.81-6.86329-13.4073" fill="#fff" mask="url(#a)"/><path d="m460.336789 50.49558c-9.161548-3.1509-134.707585-34.1001-160.969789-42.039-.187099-.0567-.371499-.0999-.562196-.144-.201491-.0459-.421872-.1053-.66564-.18-2.634676-.8037-4.179141.4941-5.206386 2.3274-.287844.5112-.514522 1.0539-.711515 1.6074-.177205.4914-.358007 1.0134-.546005 1.5633-3.924579 11.5191-27.339822 84.3309-35.195276 108.5598l166.55667 50.8248c.788873-2.3778 1.710875-5.1786 2.761507-8.3907 5.819854-17.793 36.770324-108.8154 37.022188-109.5741l.046775-.1386c.989465-3.2058-1.297999-3.9924-2.530333-4.4163" fill="#03313f" mask="url(#a)"/><path d="m277.927809 230.16816-175.827958-53.6175" fill="#f6dfa4" mask="url(#a)"/><path d="m316.710615 293.06844-61.592407-18.8406v-6.3747l61.592407 18.8415z" fill="#007cb9" mask="url(#a)"/><path d="m316.710615 293.06844 115.520956-35.3376v-6.3738l-115.520956 35.3376z" fill="#03313f" mask="url(#a)"/><path d="m255.118478 267.8535 115.520956-35.3376 61.591508 18.8406-115.520057 35.3385z" fill="#fff" mask="url(#a)"/><path d="m324.432041 31.36005-84.491329-25.8453c-1.468906-.4491-2.94051-.4077-4.269992.0099l-.081855.0252c-.027885.0081-.054871.0162-.081856.0252-.028785.0081-.05577.0162-.082755.0252-.026986.0081-.054871.0162-.081856.0252-.027885.0081-.05577.0162-.082755.0252-.027885.0081-.054871.0162-.082756.0252-.026985.0081-.05397.0162-.080956.0252-.028784.0081-.05577.0162-.082755.0252-.027885.0081-.05577.0162-.082755.0243l-.081856.0252c-.026986.009-.054871.0171-.082755.0261-.026986.0081-.054871.0162-.081856.0243l-.081856.0252c-.027885.009-.05577.0171-.082755.0261-.026986.0072-.054871.0162-.082755.0243l-.081856.0252c-.026986.0081-.054871.0171-.081856.0252-.027885.0081-.05487.0171-.082755.0252s-.054871.0162-.081856.0252c-.026985.0081-.05577.0162-.082755.0252l-.081856.0252c-.027885.0081-.05487.0162-.081856.0252-.027885.0081-.05487.0162-.081856.0252-.028784.0081-.055769.0162-.082755.0252-.027885.0081-.05577.0162-.082755.0252l-.081856.0252c-.027885.0081-.05487.0162-.082755.0252-.027885.0081-.05487.0162-.081856.0252l-.081856.0243c-.027885.009-.055769.0171-.082755.0261-.026985.0081-.05487.0162-.082755.0252l-.081856.0243c-.026985.009-.05487.0171-.081856.0252-.027885.009-.055769.0171-.082755.0261-.026985.0072-.05487.0162-.081856.0243-.026985.009-.05487.0171-.082755.0252l-.081856.0252c-.027885.0081-.05487.0171-.081855.0252-.027885.0081-.05577.0171-.082756.0252l-.081855.0252c-.027885.0081-.05577.0171-.082756.0252-.026985.0081-.053971.0162-.082755.0252-2.920721.8802-5.165908 3.5784-5.165908 6.9408v78.0615c0 3.1842 2.078777 5.9949 5.122731 6.9255l84.49043 25.8453c1.468006.45 2.94141.4077 4.269992-.0099.027885-.0081.05577-.0162.082755-.0252.026985-.0081.05487-.0162.081856-.0252.026985-.0081.05487-.0162.082755-.0252.026985-.0081.053971-.0162.082755-.0252.026986-.0081.053971-.0162.080957-.0252.027884-.0081.055769-.0162.082755-.0252.026985-.0081.05487-.0162.082755-.0243l.081856-.0252c.026985-.0081.05487-.0171.082755-.0261.026986-.0081.053971-.0162.080956-.0243.028785-.009.05577-.0171.082756-.0252.026985-.0081.05487-.0171.082755-.0261.026985-.0072.05487-.0162.081856-.0243.026985-.009.05397-.0162.081855-.0252.027885-.0081.054871-.0171.082756-.0252l.081855-.0252c.027885-.0081.054871-.0162.081856-.0252.027885-.0081.05577-.0162.083655-.0252l.081856-.0252.080956-.0252c.028784-.0081.05577-.0162.082755-.0252.028785-.0081.05577-.0162.082755-.0252l.081856-.0252c.027885-.0081.054871-.0162.082755-.0252.027885-.0081.054871-.0162.081856-.0252.027885-.0081.054871-.0162.081856-.0252.028784-.0081.05577-.0162.082755-.0243.026986-.009.05577-.0171.082756-.0261.026985-.0081.05397-.0162.081855-.0252.027885-.0081.054871-.0162.082756-.0243.026985-.009.05397-.0171.081855-.0252.027885-.009.054871-.0171.081856-.0261.027885-.0072.05577-.0162.082755-.0243.026986-.0081.053971-.0162.082756-.0252l.081855-.0252c.026986-.0081.054871-.0171.081856-.0252.027885-.0081.05487-.0162.082755-.0252l.081856-.0252.081856-.0252c.027885-.0081.05487-.0162.082755-.0252.027885-.0081.05487-.0162.081856-.0252.027885-.0081.05487-.0162.081856-.0252 2.92162-.8793 5.166807-3.5784 5.166807-6.9408v-78.0615c0-3.1842-2.077877-5.9949-5.121832-6.9255" fill="#03313f" mask="url(#a)"/><path d="m232.172152 98.50932 84.491329 25.8453c4.651385 1.4229 9.354043-2.0583 9.354043-6.9255v-78.0615c0-3.1842-2.078776-5.9949-5.121831-6.9255l-84.491329-25.8462c-4.652285-1.4229-9.354044 2.0592-9.354044 6.9264v78.0615c0 3.1842 2.077877 5.994 5.121832 6.9255" fill="#77d9e2" mask="url(#a)"/><path d="m235.383686 76.36095 45.534286 13.9293v-42.885l-45.534286-13.9293z" fill="#fff" mask="url(#a)"/><g fill="#007cb9"><path d="m287.340231 53.83764 30.435049 9.3096v-4.4676l-30.435049-9.3096z" mask="url(#a)"/><path d="m287.340231 62.90793 30.435049 9.3096v-4.4676l-30.435049-9.3096z" mask="url(#a)"/><path d="m287.340231 71.83674 30.435049 9.3096v-4.4676l-30.435049-9.3105z" mask="url(#a)"/><path d="m287.340231 80.41266 20.602463 6.3027v-4.4685l-20.602463-6.3018z" mask="url(#a)"/><path d="m320.895423 32.44194-84.491329-25.8453c-4.652285-1.4229-9.354044 2.0583-9.354044 6.9255v8.8542l98.967204 30.2742v-13.2831c0-3.1842-2.078776-5.9949-5.121831-6.9255" mask="url(#a)"/></g><path d="m239.059009 18.13599c0 1.8765-1.521078 2.934-3.397464 2.3598-1.876385-.5742-3.397463-2.5614-3.397463-4.4388s1.521078-2.9331 3.397463-2.3598c1.876386.5742 3.397464 2.5614 3.397464 4.4388" fill="#03313f" mask="url(#a)"/><path d="m251.397459 21.9105c0 1.8765-1.520178 2.934-3.396564 2.3598-1.876385-.5742-3.398363-2.5614-3.398363-4.4388s1.521978-2.9331 3.398363-2.3598c1.876386.5742 3.396564 2.5614 3.396564 4.4388" fill="#fff" mask="url(#a)"/><path d="m271.014596 65.76831c0 7.776-6.300195 12.1518-14.071994 9.7749-7.77-2.3778-14.070194-10.6083-14.070194-18.3834 0-7.776 6.300194-12.1518 14.070194-9.7749 7.771799 2.3778 14.071994 10.6074 14.071994 18.3834" fill="#77d9e2" mask="url(#a)"/><path d="m263.73681 25.68492c0 1.8765-1.521078 2.934-3.397464 2.3598s-3.397464-2.5614-3.397464-4.4388 1.521078-2.9331 3.397464-2.3598c1.876386.5742 3.397464 2.5614 3.397464 4.4388" fill="#f53251" mask="url(#a)"/><path d="m255.629762 45.02214 1.31329 16.4421 13.30111-6.6213" fill="#fff" mask="url(#a)"/><g fill="#f53251"><path d="m258.597977 58.38993 10.964174-5.4585c-2.578906-3.9969-6.528671-7.2639-10.964174-8.6211-.38769-.1179-.768184-.2079-1.147779-.2925z" mask="url(#a)"/><path d="m441.389881 69.24663-73.725049-19.2285 1.118096-4.2912 73.725048 19.2285z" mask="url(#a)"/><path d="m435.056404 86.07501-73.546945-19.8585 1.154976-4.2822 73.546945 19.8585z" mask="url(#a)"/><path d="m428.722028 102.90258-73.367042-20.4894 1.191856-4.2714 73.367042 20.4894z" mask="url(#a)"/><path d="m422.388552 119.72925-73.188939-21.1185 1.227837-4.2606 73.188938 21.1185z" mask="url(#a)"/><path d="m416.055075 136.55673-73.010834-21.7485 1.264716-4.2507 73.010835 21.7485z" mask="url(#a)"/><path d="m409.721509 153.3843-72.831832-22.3785 1.301597-4.2399 72.830932 22.3785z" mask="url(#a)"/></g><g fill="#03313f"><path d="m440.955955 56.50245-36.083995 104.3343 16.220932 5.6313 35.752974-107.9784z" mask="url(#a)"/><path d="m359.519195 30.99834-36.083095 104.3352 16.220932 5.6304 35.752074-107.9784z" mask="url(#a)"/><path d="m367.516412 187.10091c-6.470202-6.6636-25.694611-11.4966-48.408233-11.4966-22.712723 0-41.937131 4.833-48.408233 11.4966h-2.33154v8.7687c0 9.0747 22.71722 16.4313 50.739773 16.4313s76.858055-6.9768 76.858055-16.0515z" mask="url(#a)"/><path d="m270.700126 187.10091h-2.33154v8.7687c0 9.0747 22.71722 16.4313 50.738873 16.4313v-36.6966c-22.712722 0-41.937131 4.833-48.407333 11.4966" mask="url(#a)"/><path d="m365.502221 183.31146c-6.470202-6.6636-25.694611-11.4975-48.407334-11.4975-22.713622 0-41.93803 4.8339-48.409133 11.4975h-2.331539v8.7687c0 9.0747 22.71722 16.4313 50.740672 16.4313 28.022553 0 50.738874-7.3566 50.738874-16.4313v-8.7687z" mask="url(#a)"/></g><path d="m268.685844 183.31146h-2.331539v8.7687c0 9.0747 22.71722 16.4313 50.739773 16.4313v-36.6975c-22.713623 0-41.938031 4.8339-48.408234 11.4975" fill="#007cb9" mask="url(#a)"/><path d="m367.833581 183.31146c0 9.0747-22.716321 16.4313-50.738874 16.4313-28.023452 0-50.739773-7.3566-50.739773-16.4313s22.716321-16.4313 50.739773-16.4313c28.022553 0 50.738874 7.3566 50.738874 16.4313" fill="#77d9e2" mask="url(#a)"/><path d="m367.833581 183.31146c0-2.5425-1.784635-4.95-4.968015-7.0992l-37.686029 2.5281-8.08483 4.5711 39.306953 10.3878c7.143039-2.8314 11.431921-6.4467 11.431921-10.3878" fill="#007cb9" mask="url(#a)"/><path d="m364.161676 168.95853s-24.421799-3.1977-24.62329-3.1977c-.07466 0-3.194174.8361-7.082772 1.8864-4.84568-.4977-10.005291-.7677-15.360996-.7677v4.9347 10.2501 1.2474l47.067058-6.138c-.003598-.0027-.007196-.0045-.010794-.0072h.010794z" fill="#03313f" mask="url(#a)"/><path d="m364.161676 168.95853c-7.510041-6.0336-25.746783-10.2942-47.067058-10.2942v16.4313z" fill="#f53251" mask="url(#a)"/><g fill="#77d9e2"><path d="m344.676318 133.11846-1.425729-1.6983 23.968444-20.151 6.836305 15.2946 18.386961-25.74 6.306491 18.5814 33.507788-48.4263 1.822415 1.2618-36.012934 52.047-6.333476-18.6579-18.121605 25.3701-7.215899-16.1415z" mask="url(#a)"/><path d="m345.315873 134.64954c-1.506686 1.1187-3.260738.5256-3.917383-1.3239-.658444-1.8495.030584-4.2552 1.537269-5.3739 1.506686-1.1187 3.260738-.5256 3.918282 1.3239.657545 1.8495-.030583 4.2552-1.538168 5.3739" mask="url(#a)"/><path d="m367.633259 116.08218c-1.298898.837-2.707536.2538-3.146499-1.3005-.438963-1.5552.257261-3.4947 1.556159-4.3308 1.298898-.837 2.707536-.2547 3.1456 1.3005.439862 1.5561-.257261 3.4938-1.55526 4.3308" mask="url(#a)"/><path d="m374.97698 131.02227c-1.18376.9927-2.654465.5904-3.284125-.8973-.630559-1.4877-.180802-3.4992 1.002958-4.491 1.18376-.9927 2.654465-.5913 3.284125.8973.629659 1.4877.180802 3.4983-1.002958 4.491" mask="url(#a)"/><path d="m393.297557 106.27272c-1.14688 1.035-2.631078.6876-3.315608-.7767-.682731-1.4643-.307634-3.4902.839246-4.5252 1.145981-1.035 2.631078-.6867 3.314709.7767.68363 1.4643.307633 3.4902-.838347 4.5252" mask="url(#a)"/><path d="m399.530827 124.2477c-1.209846.9603-2.668857.5193-3.258938-.9855-.589182-1.5039-.086353-3.5019 1.123493-4.4622 1.210745-.9603 2.669757-.5193 3.258938.9855.589182 1.5039.087253 3.5019-1.123493 4.4622" mask="url(#a)"/><path d="m434.309718 74.62467c-1.143282 1.0404-2.628379.6993-3.318306-.7614-.689927-1.4616-.323825-3.4884.818557-4.5288 1.141483-1.0404 2.62748-.6993 3.317407.7614.690827 1.4616.324724 3.4884-.817658 4.5288" mask="url(#a)"/></g><path d="m337.782445 252.55962-21.07201 34.1352 115.520956-35.3376z" fill="#f53251" mask="url(#a)"/><path d="m370.789473 232.56189-.150219-.0459-115.520956 35.3376 99.855025-5.9346z" fill="#77d9e2" mask="url(#a)"/><g fill="#03313f"><path d="m313.337438 104.15637-10.061961-6.9147c-.46145-.3168-1.079416.0648-.99846.6183.412877 2.8251 1.248525 8.9829 1.634417 11.8422.075559.5634.792471.7542 1.141483.3042l1.382552-1.7829c.269854-.3492.804166-.3267 1.043436.0432l1.959141 3.0123c.183501.2808.551402.3735.845543.2124l1.741459-.9522c.321126-.1755.430867-.5832.24107-.8955l-1.75855-2.8998c-.229376-.3771-.01889-.8676.411977-.9603l2.189417-.4707c.550502-.1188.692626-.8379.228476-1.1565" mask="url(#a)"/><path d="m434.005772 230.08248c.178104-8.3376 27.32543-14.5179 60.633525-13.8042 33.309895.7146 60.166678 8.0523 59.988574 16.3899-.179003 8.3376-27.325429 14.5179-60.635324 13.8042-33.308096-.7146-60.164878-8.0523-59.986775-16.3899" mask="url(#a)"/><path d="m487.583062 220.18644v23.0553c30.216466-.0045 54.706628-6.1371 54.706628-13.7016v-23.0553c0 7.5645-24.490162 13.698-54.706628 13.7016" mask="url(#a)"/></g><path d="m432.815536 229.53978c0-7.5672 24.506353-13.7016 54.737212-13.7016s54.737212 6.1344 54.737212 13.7016-24.506353 13.7016-54.737212 13.7016-54.737212-6.1344-54.737212-13.7016" fill="#f53251" mask="url(#a)"/><path d="m432.815536 206.4852c0-7.5672 24.506353-13.7016 54.737212-13.7016s54.737212 6.1344 54.737212 13.7016-24.506353 13.7016-54.737212 13.7016-54.737212-6.1344-54.737212-13.7016" fill="#007cb9" mask="url(#a)"/><path d="m487.552298 192.78342c-27.039384 0-49.442674 4.9122-53.882674 11.3634 4.44 6.4503 26.84329 11.3634 53.882674 11.3634 27.040284 0 49.442674-4.9131 53.882674-11.3634-4.44-6.4512-26.84239-11.3634-53.882674-11.3634" fill="#03313f" mask="url(#a)"/><path d="m542.29005 206.4852c0 7.5672-24.506353 13.7016-54.738112 13.7016-30.22906 0-54.735413-6.1344-54.736312-13.7016v23.0544c0 7.5672 24.506353 13.7016 54.736312 13.7016 30.231759 0 54.738112-6.1344 54.738112-13.7016z" fill="#f53251" mask="url(#a)"/><path d="m542.29005 206.4852c0 7.5672-24.506353 13.7016-54.738112 13.7016-30.22906 0-54.735413-6.1344-54.736312-13.7016v23.0544c0 7.5672 24.506353 13.7016 54.736312 13.7016 30.231759 0 54.738112-6.1344 54.738112-13.7016z" fill="#f53251" mask="url(#a)"/><path d="m487.583062 188.10684v23.0544c30.216466-.0036 54.706628-6.1362 54.706628-13.7007v-23.0553c0 7.5645-24.490162 13.6971-54.706628 13.7016" fill="#03313f" mask="url(#a)"/><path d="m432.815536 197.46009c0-7.5672 24.506353-13.7016 54.737212-13.7016s54.737212 6.1344 54.737212 13.7016-24.506353 13.7016-54.737212 13.7016-54.737212-6.1344-54.737212-13.7016" fill="#f53251" mask="url(#a)"/><path d="m432.815536 174.40515c0-7.5672 24.506353-13.7016 54.737212-13.7016s54.737212 6.1344 54.737212 13.7016-24.506353 13.7016-54.737212 13.7016-54.737212-6.1344-54.737212-13.7016" fill="#007cb9" mask="url(#a)"/><path d="m542.29005 174.40515c0 7.5672-24.506353 13.7016-54.738112 13.7016-30.22906 0-54.735413-6.1335-54.736312-13.7007v23.0544c0 7.5672 24.506353 13.7016 54.736312 13.7016 30.231759 0 54.738112-6.1344 54.738112-13.7016z" fill="#f53251" mask="url(#a)"/><path d="m542.29005 174.40515c0 7.5672-24.506353 13.7016-54.738112 13.7016-30.22906 0-54.735413-6.1335-54.736312-13.7007v23.0544c0 7.5672 24.506353 13.7016 54.736312 13.7016 30.231759 0 54.738112-6.1344 54.738112-13.7016z" fill="#f53251" mask="url(#a)"/><g fill="#03313f"><path d="m487.552298 160.70337c-27.039384 0-49.442674 4.9122-53.882674 11.3634 4.44 6.4512 26.84329 11.3634 53.882674 11.3634 27.040284 0 49.442674-4.9122 53.882674-11.3634-4.44-6.4512-26.84239-11.3634-53.882674-11.3634" mask="url(#a)"/><path d="m452.386976 220.52214c-1.351969-.4131-2.547423-.1557-3.354286.5571-.644952.5688-1.049733 1.422-1.049733 2.502 0 1.6263.890519 3.3021 2.200211 4.4667v7.1028c2.486256.5643 1.493193.3861 4.407617 1.0179v-6.7725c1.309692-.3627 2.200211-1.4949 2.200211-3.1203 0-1.0809-.403882-2.1807-1.048833-3.1446-.807763-1.2069-2.002318-2.1951-3.355187-2.6091" mask="url(#a)"/><path d="m450.182988 196.19496v7.1037c2.487155.5643 1.493193.3852 4.407617 1.0179v-6.7725c1.309692-.3636 2.200211-1.4958 2.200211-3.1212 0-1.08-.403882-2.1798-1.047934-3.1437-.808662-1.2069-2.003217-2.1951-3.356085-2.6091-1.35197-.414-2.547423-.1566-3.354287.5562-.644952.5697-1.048833 1.422-1.048833 2.5029 0 1.6254.889619 3.3021 2.199311 4.4658" mask="url(#a)"/></g><path d="m432.815536 164.58552c0-7.5672 24.506353-13.7016 54.737212-13.7016s54.737212 6.1344 54.737212 13.7016-24.506353 13.7016-54.737212 13.7016-54.737212-6.1344-54.737212-13.7016" fill="#f53251" mask="url(#a)"/><path d="m432.815536 141.53049c0-7.5672 24.506353-13.7016 54.737212-13.7016s54.737212 6.1344 54.737212 13.7016-24.506353 13.7016-54.737212 13.7016-54.737212-6.1344-54.737212-13.7016" fill="#007cb9" mask="url(#a)"/><path d="m542.29005 141.53049c0 7.5672-24.506353 13.7016-54.738112 13.7016-30.22906 0-54.735413-6.1335-54.736312-13.7007v23.0544c0 7.5663 24.506353 13.7016 54.736312 13.7016 30.231759 0 54.738112-6.1353 54.738112-13.7016z" fill="#77d9e2" mask="url(#a)"/><path d="m542.29005 141.53049c0 7.5672-24.506353 13.7016-54.738112 13.7016-30.22906 0-54.735413-6.1335-54.736312-13.7007v23.0544c0 7.5663 24.506353 13.7016 54.736312 13.7016 30.231759 0 54.738112-6.1353 54.738112-13.7016z" fill="#77d9e2" mask="url(#a)"/><path d="m455.742613 159.66099c-.807764-1.2069-2.003218-2.196-3.355187-2.6091-1.351969-.414-2.547423-.1566-3.355186.5562-.644952.5697-1.048833 1.422-1.048833 2.5029 0 1.6254.889619 3.3012 2.199311 4.4658v7.1028c2.487156.5643 1.493193.3861 4.408517 1.0179v-6.7725c1.309692-.3627 2.199311-1.4949 2.199311-3.1203 0-1.0809-.402982-2.1807-1.047933-3.1437" fill="#03313f" mask="url(#a)"/><path d="m537.100216 197.4852c0 1.3842-1.121694 2.8485-2.504247 3.2715-1.382552.423-2.504246-.3555-2.504246-1.7397 0-1.3833 1.121694-2.8476 2.504246-3.2715 1.382553-.423 2.504247.3555 2.504247 1.7397" fill="#03313f" mask="url(#a)"/><path d="m537.100216 189.96129c0 1.3842-1.121694 2.8485-2.504247 3.2715-1.382552.423-2.504246-.3555-2.504246-1.7397 0-1.3833 1.121694-2.8476 2.504246-3.2715 1.382553-.4221 2.504247.3564 2.504247 1.7397" fill="#77d9e2" mask="url(#a)"/><path d="m537.100216 162.90459c0 1.3842-1.121694 2.8485-2.504247 3.2715-1.382552.423-2.504246-.3555-2.504246-1.7397 0-1.3833 1.121694-2.8476 2.504246-3.2715 1.382553-.423 2.504247.3564 2.504247 1.7397" fill="#03313f" mask="url(#a)"/><path d="m537.100216 155.38122c0 1.3833-1.121694 2.8485-2.504247 3.2715-1.382552.4221-2.504246-.3564-2.504246-1.7397s1.121694-2.8485 2.504246-3.2715c1.382553-.423 2.504247.3555 2.504247 1.7397" fill="#f53251" mask="url(#a)"/><path d="m537.100216 227.55123c0 1.3842-1.121694 2.8485-2.504247 3.2715-1.382552.423-2.504246-.3555-2.504246-1.7397 0-1.3833 1.121694-2.8476 2.504246-3.2715 1.382553-.423 2.504247.3555 2.504247 1.7397" fill="#03313f" mask="url(#a)"/><path d="m537.100216 220.02732c0 1.3842-1.121694 2.8485-2.504247 3.2715-1.382552.423-2.504246-.3555-2.504246-1.7397 0-1.3833 1.121694-2.8476 2.504246-3.2715 1.382553-.4221 2.504247.3564 2.504247 1.7397" fill="#77d9e2" mask="url(#a)"/><path d="m8.76414263 226.52955-8.32769855 2.529s-1.32948136 1.1556.65214749 1.8954 108.33114243 33.6303 108.33114243 33.6303v-24.7041l-77.8583142-14.8518z" fill="#03313f" mask="url(#a)"/><path d="m177.097082 241.83216-8.327699-2.529-22.798176-1.5021-37.42607 7.1406c.071961 2.826.174506 5.6484.116937 8.4816-.07466 3.6423-.03688 7.2855.271653 10.9161.064765-.0036.12953-.0045.194295-.009.177204-.0117.267155.1107.278849.2466 30.126516-9.3303 65.89658-20.4237 67.037164-20.8494 1.982528-.7398.653047-1.8954.653047-1.8954" fill="#03313f" mask="url(#a)"/><path d="m171.324902 239.34132v-8.8362l-9.216418-1.1187v1.4112l-93.2534929-28.4004c-.3858914-.117-.7978687-.117-1.1828606 0l-61.28387361 18.6111c-1.92765802.5859-1.92765802 7.5429 0 8.1279l101.02439211 30.7692c.385892.117.797869.117 1.18376 0l61.283874-18.6129c.964279-.2925 1.445518-1.1223 1.444619-1.9512" fill="#03313f" mask="url(#a)"/><path d="m43.7213169 220.40883-14.0791897-2.2356-19.0741896 1.566-5.62555916-1.3905v8.838c.00089952.828.48213939 1.6569 1.44551864 1.9494l101.02529192 30.7692c.192496.0585.391288.0873.59098.0873v-10.5021z" fill="#007cb9" mask="url(#a)"/><path d="m105.50487 261.6192h1.566054v-12.5847h-1.566054z" fill="#03313f" mask="url(#a)"/><path d="m68.8549911 197.78616 101.0252919 30.7683c1.926758.585 1.926758 3.3156 0 3.9006l-61.283874 18.612c-.385891.1179-.797868.1179-1.18376 0l-101.02439211-30.7683c-1.92765802-.5859-1.92765802-3.3156 0-3.9006l61.28387361-18.612c.3849919-.117.7969692-.117 1.1828606 0" fill="#fff" mask="url(#a)"/><path d="m124.218175 237.29256c-.000899 1.2231 2.343233 2.2158 5.23607 2.2185 2.892836.0027 5.239667-.9864 5.239667-2.2095.0009-1.2231-2.342333-2.2167-5.236069-2.2194-2.892837-.0018-5.237869.9873-5.239668 2.2104" fill="#03313f" mask="url(#a)"/><path d="m136.424847 226.41615-44.0788737 13.3992c-.294141.09-.6089709.09-.9040114 0l-69.1690113-21.0672c-1.4680065-.4464-1.4680065-2.5272.0008995-2.9727l44.0788736-13.3992c.294141-.09.6080713-.09.9031118.0009l69.1699105 21.0654c1.468007.4473 1.467107 2.5272-.000899 2.9736" fill="#03313f" mask="url(#a)"/><path d="m59.5673314 191.14866c0-4.3767 14.1754376-7.9254 31.6610859-7.9254 17.4865477 0 31.6610857 3.5487 31.6610857 7.9254s-14.174538 7.9254-31.6610857 7.9254c-17.4856483 0-31.6610859-3.5487-31.6610859-7.9254" fill="#f53251" mask="url(#a)"/><path d="m59.5673314 177.81354c0-4.3767 14.1754376-7.9254 31.6610859-7.9254 17.4865477 0 31.6610857 3.5487 31.6610857 7.9254s-14.174538 7.9254-31.6610857 7.9254c-17.4856483 0-31.6610859-3.5487-31.6610859-7.9254" fill="#77d9e2" mask="url(#a)"/><path d="m122.889953 177.81354c0 4.3767-14.175438 7.9254-31.6610859 7.9254-17.4856483 0-31.6610859-3.5487-31.6610859-7.9254v13.3353c0 4.3767 14.1745381 7.9254 31.6610859 7.9254 17.4856479 0 31.6610859-3.5487 31.6610859-7.9254z" fill="#f53251" mask="url(#a)"/><path d="m91.2462277 185.73858v13.3353c17.4784523-.0027 31.6439953-3.5496 31.6439953-7.9254v-13.3353c0 4.3758-14.165543 7.9236-31.6439953 7.9254" fill="#03313f" mask="url(#a)"/><path d="m102.751908 170.42985-11.5056803 6.8751h31.5765313c-.792471-3.1383-8.882698-5.7807-20.070851-6.8751" fill="#fff" mask="url(#a)"/><path d="m40.6529854 216.35613c0-3.2112 10.4010778-5.8149 23.2299433-5.8149 12.829765 0 23.2299433 2.6037 23.2299433 5.8149s-10.4001783 5.8149-23.2299433 5.8149c-12.8288655 0-23.2299433-2.6037-23.2299433-5.8149" fill="#77d9e2" mask="url(#a)"/><path d="m72.3379984 210.93903-8.4419368 5.0445h23.1678768c-.5819854-2.3031-6.5169773-4.2408-14.72594-5.0445" fill="#f53251" mask="url(#a)"/><path d="m102.751908 177.30504v-6.8751l-11.5056803 6.8751z" fill="#03313f" mask="url(#a)"/><path d="m87.5981596 199.0206c1.1918558.0342 2.4017018.0531 3.6304376.0531 2.2065073 0 4.3599433-.0567 6.4387197-.1647v-13.3344c-2.0787764.1071-4.2322124.1638-6.4387197.1638-1.6191248 0-3.2094651-.0306-4.7629254-.0891 1.5255754.4257 4.7593274 1.755 4.7593274 5.3883v3.5388s-.2806483 3.6288-3.6268396 4.4442" fill="#03313f" mask="url(#a)"/><path d="m184.807984 128.13291 22.887228-7.0011v-65.4093l-22.887228 7.0011z" fill="#03313f" mask="url(#a)"/><path d="m184.807984 128.13291-22.887229-7.0011v-65.4093l22.887229 7.0011z" fill="#007cb9" mask="url(#a)"/><path d="m184.807984 48.72105 22.887228 7.0011-22.887228 7.0011-22.887229-7.0011z" fill="#77d9e2" mask="url(#a)"/><path d="m156.961736 136.5651 22.888128-7.0011v-41.9553l-22.888128 7.0011z" fill="#03313f" mask="url(#a)"/><path d="m156.961736 136.5651-22.887229-7.0011v-41.9553l22.887229 7.0011z" fill="#007cb9" mask="url(#a)"/><path d="m156.961736 80.60688 22.888128 7.0011-22.888128 7.002-22.887229-7.002z" fill="#77d9e2" mask="url(#a)"/><path d="m129.116297 145.16874 22.887229-7.0011v-28.1718l-22.887229 7.002z" fill="#03313f" mask="url(#a)"/><path d="m129.116297 145.16874-22.887228-7.0011v-28.1718l22.887228 7.002z" fill="#007cb9" mask="url(#a)"/><path d="m129.116297 102.99483 22.887229 7.0011-22.887229 7.002-22.887228-7.002z" fill="#77d9e2" mask="url(#a)"/><path d="m101.270859 153.68625 22.887229-7.0011v-11.1717l-22.887229 7.0011z" fill="#03313f" mask="url(#a)"/><path d="m101.270859 153.68625-22.8872285-7.0011v-11.1717l22.8872285 7.0011z" fill="#007cb9" mask="url(#a)"/><path d="m101.270859 128.51217 22.887229 7.0011-22.887229 7.002-22.8872285-7.002z" fill="#77d9e2" mask="url(#a)"/><path d="m113.347551 76.19265c0 4.5657 3.698801 8.2674 8.262934 8.2674 4.563233 0 8.262034-3.7017 8.262034-8.2674s-3.698801-8.2674-8.262034-8.2674c-4.564133 0-8.262934 3.7017-8.262934 8.2674" fill="#03313f" mask="url(#a)"/><path d="m93.7646864 108.19926c-.3894895 0-.7771799-.1431-1.0803161-.432-.625162-.5976-.6476499-1.5885-.0521718-2.2131l27.8462485-29.1762c.061166-.0639.12773-.1233.199692-.1755l27.425275-20.3886 28.040543-30.9087c.579287-.6372 1.569652-.6903 2.209206-.1062.638655.5805.687228 1.5696.106143 2.2104l-28.142188 31.0221c-.068364.0747-.143023.1431-.225778.2043l-27.442367 20.3994-27.7526983 29.0799c-.3076337.3231-.719611.4842-1.1315883.4842" fill="#03313f" mask="url(#a)"/><path d="m169.038338 25.95699c0 4.5657 3.6997 8.2674 8.263833 8.2674 4.562334 0 8.262034-3.7017 8.262034-8.2674s-3.6997-8.2674-8.262034-8.2674c-4.564133 0-8.263833 3.7017-8.263833 8.2674" fill="#f53251" mask="url(#a)"/><path d="m140.896959 56.97972c0 4.5657 3.698801 8.2674 8.262934 8.2674 4.563233 0 8.262034-3.7017 8.262034-8.2674s-3.698801-8.2674-8.262034-8.2674c-4.564133 0-8.262934 3.7017-8.262934 8.2674" fill="#77d9e2" mask="url(#a)"/><path d="m152.222558 54.64053c-.876127-1.3041-2.252383-2.268-3.920981-2.556-1.176564-.2034-2.327042-.0378-3.34889.3987 1.325884-1.3923 3.296718-2.1204 5.332318-1.7685 1.817018.315 3.27513 1.4355 4.127869 2.9187-.776281.2691-1.505786.6075-2.190316 1.0071" fill="#fff" mask="url(#a)"/><path d="m113.347551 76.19265c0 4.5657 3.698801 8.2674 8.262934 8.2674 4.563233 0 8.262034-3.7017 8.262034-8.2674s-3.698801-8.2674-8.262034-8.2674c-4.564133 0-8.262934 3.7017-8.262934 8.2674" fill="#f53251" mask="url(#a)"/><path d="m124.673149 73.85337c-.876126-1.3041-2.252382-2.268-3.92098-2.556-1.176564-.2034-2.327043-.0378-3.34889.3996 1.325883-1.3932 3.296718-2.1213 5.332317-1.7694 1.817018.315 3.27513 1.4355 4.127869 2.9187-.77628.2691-1.505786.6075-2.190316 1.0071" fill="#fff" mask="url(#a)"/><path d="m85.5022026 106.63488c0 4.5657 3.6988006 8.2674 8.2629335 8.2674 4.5632334 0 8.2620339-3.7017 8.2620339-8.2674s-3.6988005-8.2674-8.2620339-8.2674c-4.5641329 0-8.2629335 3.7017-8.2629335 8.2674" fill="#77d9e2" mask="url(#a)"/><path d="m96.8269011 104.2956c-.8752269-1.3041-2.2514829-2.268-3.920081-2.556-1.176564-.2034-2.3270421-.0378-3.3488898.3987 1.3249838-1.3923 3.2958185-2.1204 5.3323177-1.7685 1.8170178.3141 3.2751296 1.4355 4.1278687 2.9187-.7771799.2691-1.5057861.6075-2.1912156 1.0071" fill="#fff" mask="url(#a)"/><path d="m180.865595 23.39622c-.876127-1.3041-2.252383-2.268-3.920981-2.556-1.176564-.2034-2.327042-.0378-3.34889.3987 1.325884-1.3923 3.296718-2.1204 5.332318-1.7685 1.817018.315 3.27513 1.4355 4.127869 2.9187-.776281.2691-1.505786.6075-2.190316 1.0071" fill="#fff" mask="url(#a)"/></g></svg>