<svg height="230" viewBox="0 0 465 232" width="230" xmlns="http://www.w3.org/2000/svg" xmlns:xlink="http://www.w3.org/1999/xlink"><mask id="a" fill="#fff"><path d="m.4573167.428h82.0881067v20.5274526h-82.0881067z" fill="#fff" fill-rule="evenodd"/></mask><mask id="b" fill="#fff"><path d="m0 231.2h464.44136v-230.772h-464.44136z" fill="#fff" fill-rule="evenodd"/></mask><g fill="none" fill-rule="evenodd"><path d="m321.985048 130.4232-123.225 37.6576" stroke="#03313f" stroke-linecap="round" stroke-linejoin="round" stroke-width="5.6"/><path d="m217.140754 97.16104 205.425155 62.7776" stroke="#03313f" stroke-linecap="round" stroke-linejoin="round" stroke-width="5.6"/><path d="m431.927615 69.4556-3.406265-1.012-.012805 3.9392 3.406265 1.012z" fill="#f23251"/><path d="m431.927615 84.44504-3.406265-1.012-.012805 3.9392 3.406265 1.012z" fill="#77d9e2"/><g transform="translate(0 .372)"><path d="m389.147935 163.75c-.0016-4.8768 16.411859-8.836 36.661369-8.844 20.248709-.0072 36.66617 3.9392 36.667771 8.8152.001601 4.8768-16.411859 8.836-36.661368 8.844-20.24871.008-36.666171-3.9384-36.667772-8.8152" fill="#03313f"/><path d="m389.319449 147.6836c-.0016-4.7072 15.256962-8.5296 34.082659-8.5368 18.824897-.0072 34.087462 3.8032 34.089062 8.5104.002401 4.708-15.256962 8.5296-34.082659 8.5376-18.824897.0072-34.087461-3.8032-34.089062-8.5112" fill="#77d9e2"/><path d="m457.49133 147.65744c-.0016-4.708-15.264165-8.5176-34.089061-8.5112-6.978202.0032-13.464192.5312-18.866515 1.4328-7.116661 1.4096-11.603391 3.4592-11.60179 5.7408.001601 4.2408 15.481859 7.672 34.576471 7.6648 11.047952-.0048 20.87698-1.1608 27.206102-2.9544 1.783167-1.0352 2.774793-2.1744 2.774793-3.3728" fill="#03313f"/><path d="m457.49133 147.65744c.001601 4.708-15.256962 8.5296-34.082659 8.5368-18.824096.008-34.086661-3.8024-34.089062-8.5096l.005603 14.3416c.0016 4.708 15.263365 8.5184 34.089062 8.5112 18.824896-.0072 34.08426-3.8296 34.082659-8.5376z" fill="#03313f"/><path d="m423.408751 156.19416c-18.824096.0072-34.086661-3.8024-34.089062-8.5104l.005603 14.3424c.0016 4.708 15.263365 8.5184 34.089062 8.51121z" fill="#007cb9"/><path d="m423.410672 161.52848.001601 3.724h.014406c1.404604 0 2.729974.268 4.015327.648l-.004002-9.772c-1.323769.0392-2.663545.0656-4.028933.0664-1.86 0-3.671979-.0464-5.450344-.1176l.004802.0104s5.445542 1.2696 5.447143 5.4408" fill="#03313f"/><path d="m382.34653 116.66096c-.001601-5.668 18.371902-10.2712 41.040052-10.28 22.668149-.0088 41.045654 4.58 41.048055 10.248.002401 5.6688-18.371902 10.2712-41.040052 10.28s-41.045654-4.5792-41.048055-10.248" fill="#03313f"/><path d="m464.434557 116.62928c.002401 5.6688-18.371902 10.2712-41.040052 10.28-22.667349.0088-41.044053-4.5792-41.048055-10.2472l.006403 17.2696c.002401 5.6688 18.380706 10.2568 41.048055 10.248 22.66815-.0088 41.042453-4.6112 41.040052-10.28z" fill="#007cb9"/><path d="m382.338367 94.9824c-.002401-5.6688 18.371902-10.2712 41.040051-10.28 22.66815-.0088 41.045654 4.58 41.048055 10.248.001601 5.6688-18.372702 10.2712-41.040051 10.28-22.66815.0088-41.046455-4.5792-41.048055-10.248" fill="#03313f"/><path d="m464.426393 94.9508c.001601 5.6688-18.372702 10.2712-41.040051 10.28-22.66735.0088-41.044854-4.5792-41.048055-10.2472l.006402 17.2696c.002401 5.6688 18.379906 10.2568 41.048055 10.248 22.66815-.0088 41.042453-4.6112 41.040052-10.28z" fill="#007cb9"/><path d="m382.329723 72.62032c-.002401-5.668 18.371902-10.2712 41.040052-10.28 22.668149-.0088 41.045654 4.58 41.047254 10.248.002401 5.6688-18.371902 10.2712-41.039251 10.2808-22.66815.008-41.046454-4.58-41.048055-10.2488" fill="#f23251"/><path d="m464.41775 72.58864c.0016 5.6688-18.372703 10.2712-41.040052 10.28s-41.044854-4.5792-41.048055-10.2472l.006403 17.2696c.002401 5.6688 18.379905 10.2568 41.048055 10.248 22.668149-.0088 41.042452-4.6112 41.040051-10.28z" fill="#007cb9"/><g fill="#77d9e2"><path d="m423.377458 82.86832c-22.66735.0088-41.044854-4.5792-41.048055-10.2472l.007203 17.2696c.001601 5.6688 18.379905 10.2576 41.047255 10.248l.0008.000015z"/><path d="m423.386422 105.23048c-22.66735.0088-41.044854-4.5792-41.048055-10.248l.006402 17.2704c.002401 5.6688 18.379906 10.2568 41.048055 10.248013z"/><path d="m423.394665 126.90896c-22.667349.0088-41.044853-4.5792-41.048055-10.248l.006403 17.2704c.002401 5.6688 18.380706 10.2568 41.048055 10.248013z"/></g><g fill="#007cb9"><path d="m423.380179 89.29176.0008 2.924c1.755956.0472 3.374252.3016 4.852487.7384l-.004001-10.1656c-1.594286.048-3.20778.0792-4.851687.08-2.240164.0008-4.421102-.0552-6.563623-.1408l.006403.0128s6.55802 1.528 6.559621 6.5512"/><path d="m423.388823 111.65352.0008 3.192c.135258-.0024.260912-.0192.397771-.0192 1.599888-.0008 3.077324.1864 4.454716.5064l-.004002-10.1824c-1.594285.048-3.207779.0792-4.851686.08-2.239363.0008-4.421102-.0552-6.563623-.1408l.007203.0128s6.55722 1.528 6.558821 6.5512"/><path d="m423.396986 133.332.001601 4.484h.017607c1.691128 0 3.287014.3232 4.83488.78l-.004002-11.7672c-1.594285.048-3.207779.0792-4.852487.08-2.239363.0008-4.421101-.0552-6.563623-.1408l.007203.0128s6.557221 1.528 6.558821 6.5512"/></g><path d="m330.711842 38.15232-3.406265-1.0128-.012806 3.9392 3.406265 1.0128z" fill="#f23251"/><path d="m330.711842 53.14176-3.406265-1.0128-.012806 3.9392 3.406265 1.0128z" fill="#77d9e2"/><path d="m287.932082 132.81832c-.001601-4.8768 16.411859-8.836 36.661368-8.844 20.248709-.0072 36.66537 3.9392 36.667771 8.8152.001601 4.8768-16.411859 8.8368-36.661368 8.8448-20.24951.0072-36.666171-3.9392-36.667771-8.816" fill="#03313f"/><path d="m288.103275 116.75232c-.0016-4.708 15.257763-8.5304 34.08266-8.5368 18.824896-.008 34.087461 3.8032 34.089062 8.5104.002401 4.708-15.256963 8.5296-34.08266 8.5368-18.824896.0072-34.087461-3.8032-34.089062-8.5104" fill="#77d9e2"/><path d="m356.275157 116.72576c-.001601-4.7072-15.264166-8.5176-34.089062-8.5104-6.978202.0024-13.464191.5304-18.866515 1.432-7.115861 1.4096-11.60259 3.4592-11.60179 5.7416.001601 4.24 15.481859 7.6712 34.576472 7.664 11.047951-.004 20.877779-1.1608 27.206101-2.9544 1.783167-1.0352 2.775594-2.1744 2.774794-3.3728" fill="#03313f"/><path d="m356.275557 116.72576c.0016 4.708-15.257763 8.5304-34.082659 8.5368-18.824897.008-34.086661-3.8024-34.089863-8.5096l.006403 14.3416c.001601 4.708 15.263365 8.5184 34.088262 8.5112 18.825697-.0072 34.08506-3.8296 34.083459-8.5368z" fill="#03313f"/><path d="m322.192978 125.26288c-18.824897.0072-34.086661-3.8032-34.089863-8.5104l.006403 14.3424c.001601 4.7072 15.263365 8.5176 34.088262 8.5104l.0008.00001z" fill="#007cb9"/><path d="m322.194898 130.59728.000801 3.724h.015206c1.403804-.0008 2.729975.268 4.015327.6472l-.004001-9.772c-1.32377.0392-2.663546.0656-4.029734.0664-1.86.0008-3.671179-.0456-5.450344-.1168l.005603.0104s5.445542 1.2696 5.447142 5.4408" fill="#03313f"/><path d="m281.130756 85.72968c-.002401-5.6688 18.371902-10.2712 41.040052-10.28s41.045654 4.5792 41.047255 10.248c.002401 5.6688-18.371902 10.2712-41.039251 10.28-22.66815.0088-41.046455-4.58-41.048056-10.248" fill="#03313f"/><path d="m363.218783 85.69768c.001601 5.6688-18.372702 10.2712-41.040052 10.28-22.667349.0088-41.044853-4.5792-41.048055-10.2472l.006403 17.2696c.002401 5.6688 18.379906 10.2568 41.048055 10.248 22.66815-.0088 41.042453-4.6112 41.040052-10.28z" fill="#007cb9"/><path d="m281.122193 64.0508c-.002401-5.668 18.371902-10.2712 41.040051-10.28 22.66815-.008 41.045654 4.58 41.048055 10.248.002402 5.6688-18.371901 10.2712-41.040051 10.2808-22.66815.008-41.045654-4.58-41.048055-10.2488" fill="#03313f"/><path d="m363.210219 64.01912c.002401 5.6688-18.371901 10.2712-41.040051 10.28-22.66735.0088-41.044854-4.5792-41.048055-10.2472l.006402 17.2696c.002402 5.6688 18.380706 10.2568 41.048056 10.248 22.668149-.0088 41.042452-4.6112 41.040051-10.28z" fill="#007cb9"/><path d="m281.113549 41.68904c-.002401-5.6688 18.371902-10.2712 41.040052-10.28 22.668149-.0088 41.045654 4.58 41.048055 10.248.0016 5.6688-18.371902 10.2712-41.040052 10.28s-41.045654-4.58-41.048055-10.248" fill="#f23251"/><path d="m363.201576 41.65704c.002401 5.6688-18.371902 10.2712-41.040052 10.28-22.667349.0088-41.044854-4.5792-41.048055-10.2472l.006403 17.2696c.002401 5.6688 18.380705 10.2568 41.048055 10.248 22.66815-.0088 41.042453-4.6112 41.040051-10.28z" fill="#007cb9"/><g fill="#77d9e2"><path d="m322.161684 51.93712c-22.667349.0088-41.044854-4.5792-41.048055-10.248l.006403 17.2704c.002401 5.6688 18.380706 10.2568 41.048055 10.2480126z"/><path d="m322.170248 74.2988c-22.66735.0088-41.044854-4.5792-41.048055-10.248l.006403 17.2704c.002401 5.6688 18.380705 10.2568 41.048055 10.2480126z"/><path d="m322.178491 95.97736c-22.667349.0088-41.044853-4.5792-41.048055-10.248l.007203 17.2704c.001601 5.6688 18.379906 10.2568 41.047255 10.248l.0008.000013z"/></g><g fill="#007cb9"><path d="m322.164005 58.36016.000801 2.924c1.755955.0472 3.374251.3016 4.852487.7384l-.003202-10.1656c-1.594285.048-3.207779.0792-4.852487.08-2.239363.0008-4.421101-.0552-6.563623-.1408l.007203.0128s6.55722 1.528 6.558821 6.5512"/><path d="m322.172649 80.72184.0008 3.192c.135258-.0024.260912-.0192.397771-.0192 1.600689-.0008 3.077324.1864 4.454716.5064l-.003201-10.1824c-1.594286.048-3.20778.0792-4.852487.08-2.239363.0008-4.421102-.0552-6.563623-.1408l.007203.0128s6.55722 1.528 6.558821 6.5512"/><path d="m322.181213 102.4004.0016 4.4848h.016807c1.691928-.0008 3.287815.3224 4.83568.78l-.004802-11.768c-1.594285.048-3.207779.0792-4.851686.08-2.240164.0008-4.421102-.0552-6.563624-.1408l.006403.0128s6.558021 1.5288 6.559622 6.5512"/></g><path d="m229.332718 7.17072-3.407066-1.012-.012805 3.9392 3.407065 1.012z" fill="#f23251"/><path d="m229.332718 22.16016-3.407066-1.012-.012805 3.9392 3.407065 1.012z" fill="#77d9e2"/><path d="m186.552558 101.83712c-.001601-4.8768 16.411859-8.836 36.661368-8.844 20.248709-.008 36.66617 3.9392 36.667771 8.8152.002401 4.8768-16.411859 8.836-36.661368 8.844-20.248709.008-36.666171-3.9392-36.667771-8.8152" fill="#03313f"/><path d="m186.724151 85.77072c-.0016-4.7072 15.257763-8.5296 34.08266-8.5368 18.824896-.0072 34.087461 3.8032 34.089062 8.5104.002401 4.708-15.256963 8.5296-34.08266 8.5376-18.824896.0072-34.087461-3.8032-34.089062-8.5112" fill="#77d9e2"/><path d="m254.896033 85.74456c-.001601-4.708-15.264166-8.5184-34.089062-8.5112-6.978202.0032-13.464191.5304-18.866515 1.4328-7.116661 1.4088-11.60259 3.4592-11.60179 5.7408.001601 4.24 15.481859 7.672 34.576472 7.6648 11.047952-.0048 20.877779-1.1608 27.206101-2.9544 1.783167-1.0352 2.774794-2.1752 2.774794-3.3728" fill="#03313f"/><path d="m254.896033 85.74456c.0016 4.7072-15.256962 8.5296-34.08266 8.5368-18.824096.008-34.08666-3.8024-34.089061-8.5104l.005602 14.3424c.001601 4.708 15.264165 8.5184 34.089062 8.5112s34.08426-3.8296 34.082659-8.5376z" fill="#03313f"/><path d="m220.813373 94.28128c-18.824896.0072-34.08666-3.8024-34.089061-8.5104l.005602 14.3424c.001601 4.708 15.264165 8.5184 34.089062 8.51121z" fill="#007cb9"/><path d="m220.815775 99.6156.0008 3.724h.015206c1.403804 0 2.729975.268 4.015327.648l-.004001-9.772c-1.32377.0392-2.663546.0656-4.029734.0656-1.86.0008-3.671179-.0456-5.450344-.1168l.005603.0104s5.445542 1.2696 5.447143 5.4408" fill="#03313f"/><path d="m179.751232 54.74808c-.0016-5.6688 18.372703-10.2712 41.040052-10.28 22.66815-.0088 41.045654 4.58 41.048055 10.248.002401 5.6688-18.371902 10.2712-41.040052 10.28-22.668149.0088-41.045654-4.5792-41.048055-10.248" fill="#03313f"/><path d="m261.839259 54.7164c.002401 5.668-18.371902 10.2712-41.040052 10.28-22.667349.0088-41.044853-4.5792-41.047254-10.248l.006402 17.2704c.001601 5.668 18.379906 10.2568 41.047255 10.248 22.66815-.0088 41.042453-4.6112 41.040852-10.28z" fill="#007cb9"/><path d="m179.742989 33.06952c-.002401-5.6688 18.371902-10.2712 41.040051-10.28 22.66815-.0088 41.045654 4.58 41.048056 10.248.0016 5.6688-18.371902 10.2712-41.040052 10.28s-41.045654-4.5792-41.048055-10.248" fill="#03313f"/><path d="m261.831015 33.03792c.002402 5.668-18.371901 10.2712-41.040051 10.28-22.66735.0088-41.044854-4.5792-41.048055-10.248l.006403 17.2704c.002401 5.668 18.380705 10.2568 41.048055 10.248 22.668149-.0088 41.042452-4.6112 41.040051-10.28z" fill="#007cb9"/><path d="m.4573167 10.70744c-.00240104-5.668 18.3719019-10.2712 41.0400516-10.28 22.6681498-.0088 41.0456541 4.58 41.0480551 10.248.0016007 5.6688-18.3727022 10.2712-41.0400516 10.28-22.6681498.0088-41.04645442-4.5792-41.0480551-10.248" fill="#f23251" mask="url(#a)" transform="translate(179.277108)"/><path d="m261.822452 10.67576c.0016 5.6688-18.371902 10.2712-41.040052 10.28-22.667349.0088-41.044854-4.5792-41.048055-10.2472l.006403 17.2696c.002401 5.6688 18.379905 10.2568 41.048055 10.248s41.042453-4.6112 41.040052-10.28z" fill="#007cb9"/><g fill="#77d9e2"><path d="m220.78256 20.95544c-22.667349.0088-41.044853-4.5792-41.048055-10.2472l.006403 17.2696c.002401 5.6688 18.379905 10.2576 41.048055 10.248015z"/><path d="m220.791124 43.3172c-22.667349.0088-41.044854-4.5792-41.048055-10.2472l.006403 17.2696c.002401 5.6688 18.380705 10.2576 41.048055 10.248015z"/><path d="m220.799367 64.99568c-22.667349.0088-41.044853-4.5792-41.048055-10.2472l.007203 17.2696c.001601 5.6688 18.379906 10.2576 41.047255 10.248015z"/></g><g fill="#007cb9"><path d="m220.784881 27.37888.000801 2.924c1.755955.0472 3.374251.3016 4.852487.7384l-.004002-10.1656c-1.594286.048-3.206979.0792-4.851687.08-2.239363.0008-4.421101-.0552-6.563623-.1408l.007203.0128s6.557221 1.528 6.558821 6.5512"/><path d="m220.793445 49.74064.0008 3.192c.135258-.0024.260912-.0192.397771-.0192 1.600689-.0008 3.077324.1864 4.454716.5064l-.003201-10.1824c-1.594286.048-3.20778.0792-4.852487.08-2.239363.0008-4.421102-.0552-6.563623-.1408l.007203.0128s6.55722 1.528 6.558821 6.5512"/><path d="m220.802089 71.41912.0016 4.484h.016808c1.691927-.0008 3.287814.3232 4.835679.78l-.004802-11.7672c-1.594285.048-3.207779.0792-4.851686.08-2.240164.0008-4.421102-.0552-6.563623-.1408l.006402.0128s6.558021 1.528 6.559622 6.5512"/></g><g fill="#03313f"><path d="m8.35479346 80.03552s-10.27722031 2.988-8.03465577 10.9264c2.2417642 7.9376 34.41320141 102.588 34.41320141 102.588l8.2219363-15.3152z"/><path d="m274.645567 184.39728 7.725723 2.344s1.23333 1.0712-.60506 1.7568c-1.837591.6856-138.239458 42.7016-138.239458 42.7016l37.738632-34.428 72.231067-13.7656z"/><path d="m28.5201067 194.15392 7.7257229-2.344 111.1093894 3.0344 34.721333 6.6176c-.066428 2.6192-.161669 5.236-.108046 7.8608.06883 3.376-37.704217 18.2856-37.98994 21.6504-.060026-.0032-.120852-.004-.180878-.008-.16407-.0112-.248106.1024-.259311.2288-27.948821-8.648-113.3543546-34.8888-114.41321-35.2832-1.8383908-.6856-.6050603-1.7568-.6050603-1.7568"/><path d="m34.2741816 191.6824v-8.1896l8.5508778-1.0368v1.3088l123.1889846-37.5312c.357754-.1088.740318-.1088 1.098072 0l107.951231 32.8648c1.787969.5424 1.787969 6.9904 0 7.5328l-130.398486 39.7256c-.358554.1088-.740318.1088-1.098072 0l-107.9520308-32.8656c-.8939845-.2712-1.3405766-1.04-1.3405766-1.8088"/></g><path d="m240.42925 178.54216 13.060818-2.072 17.695611 1.452 5.219045-1.2896v8.1912c0 .7688-.447393 1.536-1.341377 1.8072l-130.398486 39.7256c-.179277.0544-.363356.0816-.548235.0816v-9.7344z" fill="#007cb9"/><path d="m145.054389 226.9816h1.826386v-10.7368h-1.826386z" fill="#03313f" mask="url(#b)"/><path d="m166.014444 141.95976-130.3992857 39.7248c-1.787969.5424-1.787969 3.0728 0 3.6152l107.9512307 32.8656c.357754.1088.740318.1088 1.098072 0l130.399286-39.7248c1.787969-.5432 1.787969-3.0728 0-3.6152l-107.951231-32.8656c-.358554-.1088-.740318-.1088-1.098072 0" fill="#fff" mask="url(#b)"/><path d="m66.35558 179.73552-11.8771084 3.616c-.2000861.06-.2000861.3432 0 .4032l12.0627883 3.6728c.0400172.012.0824355.012.1224527 0l11.8779087-3.616c.2000861-.06.2000861-.3432 0-.404l-12.0635886-3.672c-.0392169-.0128-.0824355-.0128-.1224527 0" fill="#03313f" mask="url(#b)"/><path d="m33.5699587 181.80976.8027453 2.2904 1.4046041.3512.3513511-.2704 1.3501807-2.7544-.2425043-.6752" fill="#fff" mask="url(#b)"/><g fill="#03313f"><path d="m145.05583 230.72464-1.517453.4688-.320938-.2944.850766-1.1544 1.975249-1.0024.04642-.0224" mask="url(#b)"/><path d="m188.911412 181.86056-31.345482 9.5496c-.429785.1296-.429785.7384 0 .868l25.949561 7.9008c.085637.0264.177677.0264.263314 0l31.345482-9.5496c.429784-.1304.429784-.7384 0-.8688l-25.948761-7.9c-.086437-.0256-.178477-.0256-.264114 0" mask="url(#b)"/><path d="m166.279038 149.1988-11.877909 3.616c-.199286.0608-.199286.3432 0 .404l12.063589 3.6728c.040017.012.082435.012.122452 0l11.877909-3.616c.199286-.0608.199286-.3432 0-.404l-12.063588-3.6728c-.040018-.012-.082436-.012-.122453 0" mask="url(#b)"/><path d="m141.298373 156.8332-11.877908 3.616c-.200086.06-.200086.3432 0 .4032l12.062788 3.6728c.040017.012.083236.012.123253 0l11.877909-3.616c.199286-.06.199286-.3432 0-.404l-12.063589-3.672c-.040017-.0128-.082435-.0128-.122453 0" mask="url(#b)"/><path d="m116.317309 164.4672-11.877909 3.616c-.199286.0608-.199286.3432 0 .404l12.063589 3.672c.040017.0128.082435.0128.122452 0l11.877909-3.6152c.200086-.0608.200086-.3432 0-.404l-12.063588-3.6728c-.039217-.012-.082436-.012-.122453 0" mask="url(#b)"/><path d="m91.3366446 172.1012-11.8779088 3.616c-.1992857.0608-.1992857.3432 0 .404l12.0627883 3.6728c.0408176.012.0832358.012.123253 0l11.8779089-3.616c.199286-.0608.199286-.3432 0-.404l-12.0635888-3.6728c-.0400172-.012-.0824354-.012-.1224526 0" mask="url(#b)"/><path d="m186.898787 155.5004-11.877909 3.616c-.199286.06-.199286.3432 0 .4032l12.062788 3.6728c.040818.012.083236.012.123253 0l11.877909-3.6152c.199286-.0608.199286-.3432 0-.4048l-12.063589-3.672c-.040017-.012-.082435-.012-.122452 0" mask="url(#b)"/><path d="m161.917722 163.1344-11.877108 3.616c-.200086.0608-.200086.3432 0 .404l12.062788 3.6728c.040017.012.082435.012.122453 0l11.877908-3.616c.200086-.0608.200086-.3432 0-.404l-12.063588-3.6728c-.039217-.012-.082436-.012-.122453 0" mask="url(#b)"/><path d="m136.937058 170.76832-11.877909 3.616c-.199286.0608-.199286.3432 0 .404l12.063589 3.6728c.040017.012.082435.012.122452 0l11.877909-3.616c.200086-.0608.200086-.3432 0-.404l-12.063589-3.6728c-.039217-.012-.082435-.012-.122452 0" mask="url(#b)"/><path d="m111.956393 178.40272-11.877908 3.616c-.1992862.06-.1992862.3432 0 .4032l12.062788 3.6728c.040817.012.083236.012.123253 0l11.877909-3.6152c.199285-.0608.199285-.3432 0-.4048l-12.063589-3.672c-.040017-.012-.082436-.012-.122453 0" mask="url(#b)"/><path d="m86.9754088 186.03672-11.8771085 3.616c-.200086.0608-.200086.3432 0 .404l12.0627883 3.6728c.0400173.012.0824355.012.1224527 0l11.8779088-3.616c.200086-.0608.200086-.3432 0-.404l-12.0635887-3.6728c-.0392168-.012-.0824354-.012-.1224526 0" mask="url(#b)"/><path d="m207.518615 161.8016-11.877908 3.616c-.199286.0608-.199286.3432 0 .404l12.062788 3.6728c.040817.012.083236.012.123253 0l11.877909-3.616c.199285-.0608.199285-.3432 0-.404l-12.063589-3.6728c-.040017-.012-.082435-.012-.122453 0" mask="url(#b)"/><path d="m182.537551 169.43592-11.877109 3.616c-.200086.06-.200086.3432 0 .4032l12.062789 3.6728c.040017.012.082435.012.122452 0l11.877909-3.6152c.200086-.0608.200086-.3432 0-.4048l-12.063589-3.672c-.039216-.012-.082435-.012-.122452 0" mask="url(#b)"/><path d="m157.556886 177.06992-11.877908 3.616c-.199286.0608-.199286.3432 0 .404l12.063588 3.6728c.040017.012.082436.012.122453 0l11.877909-3.616c.200086-.0608.200086-.3432 0-.404l-12.063589-3.6728c-.039217-.012-.082435-.012-.122453 0" mask="url(#b)"/><path d="m132.576222 184.70392-11.877909 3.616c-.199285.0608-.199285.3432 0 .404l12.062789 3.6728c.040817.012.083235.012.123253 0l11.877908-3.616c.199286-.0608.199286-.3432 0-.404l-12.063588-3.6728c-.040018-.012-.082436-.012-.122453 0" mask="url(#b)"/><path d="m107.595157 192.33832-11.8771079 3.616c-.2000861.06-.2000861.3432 0 .4032l12.0627879 3.6728c.040018.012.082436.012.122453 0l11.877909-3.6152c.200086-.0608.200086-.3432 0-.4048l-12.063589-3.672c-.039217-.012-.082435-.012-.122453 0" mask="url(#b)"/></g><path d="m7.69322892 80.12464c7.75613598-2.6648 123.21939808-32.3104 123.21939808-32.3104s5.207039-2.1376 8.482848 8.2376c3.070121 9.724 24.232022 74.6648 28.585095 87.688l-133.4285889 40.676c-1.4262135-3.892-2.5162823-7.14-4.498735-13.1936-4.3626764-13.3256-27.45020651-81.164-27.45020651-81.164s-2.66594665-7.268 5.09018933-9.9336" fill="#fff" mask="url(#b)"/><path d="m9.3853167 85.04496c6.7941222-2.3344 99.9029693-25.2656 119.3793463-31.1472.138459-.0416.276118-.0736.416979-.1064.148864-.0344.312935-.0784.493812-.1336 1.953641-.596 3.098933.3664 3.861661 1.724.212892.3792.380964.7816.527427 1.1912.130456.364.265714.7504.404974 1.1584 2.910052 8.5344 20.276722 62.4808 26.101627 80.4328l-123.5235285 37.6568c-.5850517-1.7616-1.2685457-3.8376-2.0472806-6.2168-4.3170568-13.1832-27.27092942-80.6224-27.45740963-81.1848l-.0344148-.1024c-.73391567-2.3752.96281411-2.9576 1.87680723-3.272" fill="#03313f" mask="url(#b)"/><path d="m9.3853167 85.04496c6.7941222-2.3344 99.9029693-25.2656 119.3793463-31.1472.138459-.0416.276118-.0736.416979-.1064.148864-.0344.312935-.0784.493812-.1336 1.953641-.596 3.098933.3664 3.861661 1.724.212892.3792.380964.7816.527427 1.1912.130456.364.265714.7504.404974 1.1584 2.910052 8.5344 20.276722 62.4808 26.101627 80.4328l-123.5235285 37.6568c-.5850517-1.7616-1.2685457-3.8376-2.0472806-6.2168-4.3170568-13.1832-27.27092942-80.6224-27.45740963-81.1848l-.0344148-.1024c-.73391567-2.3752.96281411-2.9576 1.87680723-3.272" fill="#03313f" mask="url(#b)"/><path d="m77.5826489 117.82464c3.306222 13.544 16.7095869 21.908 29.9360761 18.6816 13.226488-3.2264 21.268347-16.8216 17.962125-30.3656-3.307022-13.544-16.709587-21.908-29.9368758-18.6816-13.2256885 3.2264-21.2675473 16.8216-17.9613253 30.3656" fill="#77d9e2" mask="url(#b)"/><path d="m48.7785 125.90744c3.3070224 13.544 16.7095869 21.908 29.9360757 18.6816 13.2272892-3.2264 21.2691481-16.8216 17.9621257-30.3648-3.3070224-13.5448-16.7095869-21.9088-29.9360758-18.6824-13.2264888 3.2264-21.2683476 16.8216-17.9621256 30.3656" fill="#f23251" mask="url(#b)"/><path d="m77.5826489 117.82464c-1.8680035-7.6504-.1128486-15.3168 4.1505852-21.1216 7.1758864 2.96 12.9311618 9.2776 14.9432272 17.5208 1.8680034 7.6504.1128485 15.3168-4.1505852 21.1216-7.1758864-2.96-12.9303615-9.2776-14.9432272-17.5208" fill="#03313f" mask="url(#b)"/></g></g></svg>