<svg height="230" viewBox="0 0 449 244" width="200" xmlns="http://www.w3.org/2000/svg" xmlns:xlink="http://www.w3.org/1999/xlink"><mask id="a" fill="#fff"><path d="m.74063968.881h187.84617332v59.831228h-187.84617332z" fill="#fff" fill-rule="evenodd"/></mask><mask id="b" fill="#fff"><path d="m.4883.73319352h34.312v8.26680648h-34.312z" fill="#fff" fill-rule="evenodd"/></mask><g fill="none" fill-rule="evenodd" transform="translate(0 -1)"><path d="m101.3575 204.7749 224.633-68.677" stroke="#03313f" stroke-linecap="round" stroke-linejoin="round" stroke-width="5.99"/><g transform="translate(0 .119)"><path d="m279.8985 219.2018-66.224 20.247-205.03-62.685 55.315-16.911" stroke="#03313f" stroke-linecap="round" stroke-linejoin="round" stroke-width="5.99"/><path d="m252.479 117.6612-4.527 1.757s-2.397.632 2.024 2.18c4.42 1.549 95.403 29.777 95.403 29.777s3.022 1.385 5.685.16c2.664-1.225 96.048-29.098 97.024-29.684s-2.246-3.619-15.135-4.495-180.474.305-180.474.305" fill="#03313f"/><path d="m439.5782 91.4523c.078.883-.379 1.81-1.41 2.122l-91.912 27.899c-.12.037-.244.041-.367.055v25.577c-.096.007-.191.004-.286.001.246.017.492.005.729-.067l91.913-27.899c.96-.292 1.439-1.12 1.436-1.945v-25.1c.001-.218-.037-.435-.103-.643" fill="#03313f"/><path d="m345.6036 147.1061c-.151-.011-.302-.022-.448-.066.147.044.297.06.448.066" fill="#007cb9"/><path d="m345.8887 121.5279c-.271.03-.545.025-.809-.054l-91.913-27.9c-.753-.228-1.199-.788-1.360024-1.416l.000024 25.037c-.001.206.029.413.088.611.178.595.628 1.116 1.348 1.334l91.913 27.9c.146.044.297.055.448.066.095.004.189.006.285-.001z" fill="#007cb9"/><path d="m438.1685 89.6993-91.911-27.898c-.383-.117-.793-.117-1.176 0l-91.914 27.898c-1.164.353-1.609 1.489-1.36 2.458.16.629.607 1.188 1.36 1.417l91.912 27.899c.264.08.538.085.809.055.123-.014.248-.018.367-.055l91.913-27.899c1.03-.312 1.487-1.239 1.41-2.122-.067-.758-.525-1.484-1.41-1.753" fill="#77d9e2"/><path d="m406.0977 71.8487c.05.567-.244 1.164-.907 1.365l-59.129 17.948c-.077.023-.157.026-.236.035v16.455c-.062.004-.123.002-.184 0 .158.011.316.004.469-.043l59.13-17.948c.618-.187.925-.72.923-1.251v-16.148c.001-.14-.024-.279-.066-.413" fill="#03313f"/><path d="m345.6417 107.652c-.097-.007-.194-.015-.288-.043.094.028.191.039.288.043" fill="#007cb9"/><path d="m345.8253 91.1969c-.175.02-.351.017-.521-.035l-59.129-17.948c-.485-.147-.771-.507-.875-.912v16.107c0 .133.018.266.057.393.114.383.403.718.867.859l59.129 17.948c.095.028.191.036.288.043.061.002.122.004.184 0z" fill="#007cb9"/><path d="m405.191 70.7208-59.128-17.948c-.247-.074-.511-.074-.757 0l-59.131 17.948c-.748.227-1.035.958-.875 1.582.104.404.391.764.875.911l59.13 17.948c.169.052.345.055.52.035.079-.009.159-.012.237-.035l59.129-17.948c.663-.201.957-.798.907-1.365-.043-.488-.338-.955-.907-1.128" fill="#fff"/><path d="m439.5782 61.3053c.078.883-.379 1.81-1.41 2.122l-91.912 27.899c-.12.037-.244.041-.367.055v25.577c-.096.007-.191.004-.286.001.246.017.492.005.729-.067l91.913-27.899c.96-.292 1.439-1.12 1.436-1.945v-25.1c.001-.218-.037-.435-.103-.643" fill="#03313f"/><path d="m345.6036 116.9591c-.151-.011-.302-.022-.448-.066.147.044.297.06.448.066" fill="#007cb9"/><path d="m345.8887 91.381c-.271.03-.545.026-.809-.054l-91.913-27.9c-.753-.228-1.199-.788-1.360024-1.416l.000024 25.037c-.001.206.029.413.088.611.178.595.628 1.116 1.348 1.334l91.913 27.9c.146.044.297.055.448.066.095.004.189.006.285-.001z" fill="#007cb9"/><path d="m438.1685 59.5524-91.911-27.898c-.383-.117-.793-.117-1.176 0l-91.914 27.898c-1.164.353-1.609 1.489-1.36 2.458.16.629.607 1.188 1.36 1.417l91.912 27.899c.264.08.538.085.809.055.123-.014.248-.018.367-.055l91.913-27.899c1.03-.312 1.487-1.239 1.41-2.122-.067-.758-.525-1.484-1.41-1.753" fill="#77d9e2"/><path d="m351.6548 97.857c0 1.042.845 1.629 1.888 1.311 1.042-.319 1.887-1.423 1.887-2.465 0-1.043-.845-1.63-1.887-1.311-1.043.319-1.888 1.422-1.888 2.465" fill="#f23251"/><path d="m358.0723 95.8946c0 1.043.845 1.629 1.888 1.311 1.042-.319 1.887-1.422 1.887-2.465s-.845-1.63-1.887-1.311c-1.043.319-1.888 1.423-1.888 2.465" fill="#77d9e2"/><path d="m351.6548 125.6046c0 1.042.845 1.629 1.888 1.311 1.042-.319 1.887-1.423 1.887-2.465 0-1.043-.845-1.63-1.887-1.311-1.043.319-1.888 1.423-1.888 2.465" fill="#f23251"/><path d="m358.0723 123.6427c0 1.042.845 1.629 1.888 1.311 1.042-.319 1.887-1.423 1.887-2.465 0-1.043-.845-1.63-1.887-1.311-1.043.319-1.888 1.423-1.888 2.465" fill="#77d9e2"/><path d="m260.6778 71.316-4.256-1.266-.016 4.925 4.256 1.265z" fill="#77d9e2"/><path d="m260.6778 80.0397-4.256-1.265-.016 4.924 4.256 1.265z" fill="#f23251"/><path d="m260.6778 98.7765-4.256-1.265-.016 4.924 4.256 1.265z" fill="#77d9e2"/><path d="m405.4019 59.0958-59.128-17.948c-.247-.074-.511-.074-.757 0l-59.131 17.948c-.748.227-1.035.958-.875 1.582.104.404.391.764.875.911l59.13 17.948c.169.052.345.055.52.035.079-.009.159-.012.237-.035l59.129-17.948c.663-.201.957-.798.907-1.366-.043-.487-.338-.954-.907-1.127" fill="#fff"/><path d="m349.5489 63.6119-17.253 4.763 14.431 3.456 44.409-12.259-14.431-3.457-17.254 4.763-13.742-.739z" fill="#f23251"/><path d="m300.2813 60.7066 14.431 3.457 17.253-4.763 13.743.739-3.84-3.473 17.254-4.763-14.431-3.456z" fill="#77d9e2"/><path d="m439.5782 30.6192c.078.882-.379 1.81-1.41 2.122l-91.912 27.899c-.12.037-.244.041-.367.055v25.577c-.096.007-.191.004-.286.001.246.017.492.005.729-.067l91.913-27.899c.96-.292 1.439-1.12 1.436-1.945v-25.1c.001-.218-.037-.435-.103-.643" fill="#03313f"/><path d="m345.8887 60.6949c-.271.03-.545.025-.809-.054l-91.913-27.9c-.753-.228-1.199-.788-1.360024-1.416l.000024 25.037c-.001.206.029.413.088.611.178.595.628 1.116 1.348 1.334l91.913 27.899c.146.045.297.056.448.067.095.004.189.006.285-.001z" fill="#007cb9"/><path d="m187.1685 28.8663-91.911-27.898c-.383-.117-.793-.117-1.176 0l-91.914 27.898c-1.164.353-1.609 1.489-1.36 2.458.16.629.607 1.188 1.36 1.417l91.912 27.899c.264.08.538.085.809.055.123-.014.248-.018.367-.055l91.913-27.899c1.03-.312 1.487-1.24 1.41-2.122-.067-.758-.525-1.484-1.41-1.753" fill="#77d9e2" mask="url(#a)" transform="translate(251)"/><path d="m351.6548 67.1705c0 1.043.845 1.629 1.888 1.311 1.042-.319 1.887-1.422 1.887-2.465s-.845-1.629-1.887-1.311c-1.043.319-1.888 1.423-1.888 2.465" fill="#f23251"/><path d="m358.0723 65.2086c0 1.043.845 1.629 1.888 1.311 1.042-.319 1.887-1.422 1.887-2.465s-.845-1.63-1.887-1.311c-1.043.319-1.888 1.423-1.888 2.465" fill="#77d9e2"/><path d="m260.6778 40.63-4.256-1.266-.016 4.925 4.256 1.265z" fill="#77d9e2"/><path d="m260.6778 49.3536-4.256-1.266-.016 4.925 4.256 1.265z" fill="#f23251"/><path d="m405.4019 28.4098-59.128-17.948c-.247-.074-.511-.074-.757 0l-59.131 17.948c-.748.227-1.035.958-.875 1.582.104.404.391.764.875.911l59.13 17.948c.169.051.345.054.52.035.079-.009.159-.012.237-.035l59.129-17.948c.663-.201.957-.798.907-1.366-.043-.487-.338-.954-.907-1.127" fill="#fff"/><path d="m349.5489 32.9259-17.253 4.762 14.431 3.457 44.409-12.26-14.431-3.456-17.254 4.763-13.742-.739z" fill="#f23251"/><path d="m300.2813 30.0206 14.431 3.457 17.253-4.763 13.743.739-3.84-3.473 17.254-4.763-14.431-3.456z" fill="#77d9e2"/><path d="m224.4624 213.6534-5.716 1.748c-.358.109-.358.616 0 .725l73.029 22.328c1.085.331 2.244.331 3.329 0l101.943-31.168c.358-.109.358-.616 0-.725l-17.177-5.252c-.046-.014-.094-.019-.141-.015l-155.186 12.344c-.028.002-.055.007-.081.015" fill="#03313f"/><path d="m385.6959 204.443c.473-.145.71-.552.709-.959.001.407-.236.814-.709.959" fill="#77d9e2"/><path d="m385.6959 194.4-4.968 1.519-90.024 27.523c-.112.034-.224.063-.337.089-.38.09-.767.136-1.154.14v10.037c.109-.001.219-.006.329-.014-.056.004-.113.011-.17.014.057-.003.114-.01.171-.014.03-.002.061-.004.091-.006.039-.004.078-.005.117-.009.028-.004.057-.006.085-.01.026-.003.052-.009.078-.013.06-.008.121-.019.182-.029.029-.006.058-.009.086-.015.033-.006.065-.011.098-.018.007-.002.014-.004.021-.006.135-.029.27-.063.403-.103l94.992-29.042c.473-.145.71-.552.709-.96l.000003-10.042c-.000003.407-.236003.814-.709003.959" fill="#03313f"/><path d="m385.6959 192.482-61.649-18.848c-1.082-.331-2.239-.331-3.321 0l-95.702 29.259c-.354.108-.526.417-.519.722.001.073.013.146.035.216 0 .001.001.002.001.003.023.068.054.134.096.195.004.004.01.008.013.013.042.055.089.107.149.15.064.047.139.085.225.112l5.797 1.772 56.801 17.366c.179.055.361.096.544.131.014.003.029.006.044.009.008.001.016.003.025.004.323.058.65.087.978.084.063 0 .127-.009.191-.012.068-.003.137-.003.206-.009.027-.002.055-.007.082-.009.066-.007.131-.015.197-.024.041-.006.082-.008.122-.015.007-.001.014-.002.021-.004.112-.018.224-.04.335-.066.113-.026.225-.055.337-.089l90.024-27.523 4.968-1.519c.473-.145.709-.552.709-.959s-.236-.814-.709-.959" fill="#77d9e2"/><path d="m385.6959 192.482-61.649-18.848c-1.082-.331-2.239-.331-3.321 0l-95.702 29.259c-.354.108-.526.417-.519.722.001.073.013.146.035.216 0 .001.001.002.001.003.023.068.054.134.096.195.004.004.01.008.013.013.042.055.089.107.149.15.064.047.139.085.225.112l5.797 1.772 56.801 17.366c.179.055.361.096.544.131.014.003.029.006.044.009.008.001.016.003.025.004.323.058.65.087.978.084.063 0 .127-.009.191-.012.068-.003.137-.003.206-.009.027-.002.055-.007.082-.009.066-.007.131-.015.197-.024.041-.006.082-.008.122-.015.007-.001.014-.002.021-.004.112-.018.224-.04.335-.066.113-.026.225-.055.337-.089l90.024-27.523 4.968-1.519c.473-.145.709-.552.709-.959s-.236-.814-.709-.959" fill="#007cb9"/><path d="m268.6197 206.7091c-1.745.454-3.913.723-6.261.723-5.775 0-10.455-1.625-10.455-3.629 0-1.74 3.527-3.192 8.233-3.546l35.107-2.954c.334-.038.691-.06 1.063-.06 1.882 0 3.407.53 3.407 1.183 0 .428-.656.801-1.635 1.009z" fill="#03313f"/><path d="m289.2125 233.7081v-.052-9.986c-.327.003-.654-.026-.978-.084-.008-.001-.017-.003-.025-.004-.198-.037-.394-.081-.587-.14l-56.801-17.366-5.797-1.772c-.086-.027-.162-.065-.226-.112-.06-.043-.107-.095-.149-.151-.004-.004-.009-.008-.012-.012-.043-.061-.074-.127-.096-.196-.001 0-.001-.001-.002-.002-.022-.07-.034-.143-.035-.216v-.001h-.002v10.027.04l.006.002c.003.071.017.141.04.209.001.002.002.004.003.007.023.063.054.125.094.181.015.02.037.036.054.055.032.036.062.073.103.102.063.045.135.082.218.108.001 0 .002.001.004.002l62.598 19.138c.194.059.391.104.589.14.021.004.042.008.062.012.203.033.407.057.612.068.109.005.218.004.327.003" fill="#77d9e2"/><g fill="#03313f"><path d="m239.125 203.2154c0 .728-1.553 1.318-3.47 1.318-1.916 0-3.469-.59-3.469-1.318 0-.729 1.553-1.319 3.469-1.319 1.917 0 3.47.59 3.47 1.319"/><path d="m292.7911 219.6227c0 .728-1.553 1.318-3.47 1.318-1.916 0-3.469-.59-3.469-1.318s1.553-1.318 3.469-1.318c1.917 0 3.47.59 3.47 1.318"/><path d="m325.8145 176.7115c0 .729-1.553 1.319-3.47 1.319-1.916 0-3.469-.59-3.469-1.319 0-.728 1.553-1.318 3.469-1.318 1.917 0 3.47.59 3.47 1.318"/><path d="m379.4805 193.1188c0 .729-1.553 1.319-3.47 1.319-1.916 0-3.469-.59-3.469-1.319 0-.728 1.553-1.318 3.469-1.318 1.917 0 3.47.59 3.47 1.318"/><path d="m284.1431 189.0558c0 .728-1.554 1.318-3.47 1.318s-3.469-.59-3.469-1.318c0-.729 1.553-1.319 3.469-1.319s3.47.59 3.47 1.319"/><path d="m337.8091 206.7814c0 .728-1.554 1.318-3.47 1.318s-3.469-.59-3.469-1.318 1.553-1.318 3.469-1.318 3.47.59 3.47 1.318"/><path d="m352.8174 193.1188c0 6.083-14.208 11.015-31.735 11.015s-31.735-4.932-31.735-11.015 14.208-11.015 31.735-11.015 31.735 4.932 31.735 11.015"/></g><path d="m329.9805 193.1188c0 1.706-3.984 3.089-8.898 3.089-4.915 0-8.898-1.383-8.898-3.089s3.983-3.088 8.898-3.088c4.914 0 8.898 1.382 8.898 3.088" fill="#f6dfa4"/><path d="m247.5699 205.298 14.724-4.501c.072-.022.149-.022.22 0l30.717 9.391c.356.109.356.612 0 .721l-14.743 4.508c-.071.022-.148.022-.22 0l-30.698-9.397c-.356-.109-.356-.613 0-.722" fill="#03313f"/><path d="m293.8931 194.9161-22.357 2.704-11.399.959c-2.122.159-3.999.544-5.427 1.075l-2.807.34v2.13c0 2.005 4.681 3.629 10.455 3.629 2.348 0 4.516-.269 6.262-.722l29.459-7.275c.979-.207 1.635-.581 1.635-1.008v-2.132z" fill="#fcb827"/><path d="m268.6197 202.9c-1.745.454-3.913.723-6.261.723-5.775 0-10.455-1.625-10.455-3.629 0-1.74 3.527-3.193 8.233-3.546l35.107-2.954c.334-.038.691-.06 1.063-.06 1.882 0 3.407.529 3.407 1.183 0 .427-.656.801-1.635 1.009z" fill="#f6dfa4"/><path d="m266.5411 199.9737c0 .795-1.857 1.44-4.149 1.44-2.291 0-4.149-.645-4.149-1.44s1.858-1.44 4.149-1.44c2.292 0 4.149.645 4.149 1.44" fill="#007cb9"/><path d="m119.2613 181.4903-5.716 1.748c-.358.109-.358.616 0 .725l73.029 22.327c1.085.332 2.244.332 3.329 0l101.943-31.167c.358-.109.358-.616 0-.725l-17.177-5.252c-.046-.014-.094-.019-.141-.015l-155.186 12.343c-.028.003-.055.008-.081.016" fill="#03313f"/><path d="m280.4947 172.2794c.473-.145.71-.552.709-.959.001.407-.236.814-.709.959" fill="#77d9e2"/><path d="m280.4947 162.2369-4.968 1.519-90.024 27.523c-.112.034-.224.063-.337.089-.38.089-.767.136-1.154.14v10.037c.109-.001.219-.006.329-.014-.056.004-.113.011-.17.013.057-.002.114-.009.171-.013.03-.002.061-.004.091-.006.039-.004.078-.005.117-.009.028-.004.057-.006.085-.01.026-.003.052-.009.077-.013.061-.008.122-.019.183-.03.029-.005.058-.008.086-.014.033-.006.065-.011.097-.018.008-.002.015-.004.022-.006.135-.029.27-.063.403-.103l94.992-29.043c.473-.144.71-.551.709-.959l.000003-10.042c-.000003.407-.236003.814-.709003.959" fill="#03313f"/><path d="m280.4947 160.319-61.649-18.848c-1.082-.331-2.239-.331-3.321 0l-95.702 29.259c-.354.108-.526.417-.519.722.001.073.012.146.035.216 0 .001.001.002.001.003.023.068.054.134.096.194.004.005.01.009.013.013.042.056.089.108.149.151.064.047.139.085.225.112l5.797 1.772 56.801 17.366c.179.055.361.096.544.131.014.003.029.006.044.009.008.001.016.003.025.004.323.058.65.087.978.084.063-.001.127-.009.191-.012.068-.003.137-.004.206-.009.027-.002.055-.007.082-.01.066-.006.131-.014.197-.023.041-.006.082-.008.122-.015.007-.001.014-.003.021-.004.112-.018.224-.04.335-.066.113-.026.225-.055.337-.089l90.024-27.523 4.968-1.519c.473-.145.709-.552.709-.959v-.001c0-.406-.236-.813-.709-.958" fill="#77d9e2"/><path d="m280.4947 160.319-61.649-18.848c-1.082-.331-2.239-.331-3.321 0l-95.702 29.259c-.354.108-.526.417-.519.722.001.073.012.146.035.216 0 .001.001.002.001.003.023.068.054.134.096.194.004.005.01.009.013.013.042.056.089.108.149.151.064.047.139.085.225.112l5.797 1.772 56.801 17.366c.179.055.361.096.544.131.014.003.029.006.044.009.008.001.016.003.025.004.323.058.65.087.978.084.063-.001.127-.009.191-.012.068-.003.137-.004.206-.009.027-.002.055-.007.082-.01.066-.006.131-.014.197-.023.041-.006.082-.008.122-.015.007-.001.014-.003.021-.004.112-.018.224-.04.335-.066.113-.026.225-.055.337-.089l90.024-27.523 4.968-1.519c.473-.145.709-.552.709-.959v-.001c0-.406-.236-.813-.709-.958" fill="#007cb9"/><path d="m163.4185 174.546c-1.746.454-3.913.723-6.262.723-5.774 0-10.454-1.625-10.454-3.629 0-1.74 3.527-3.193 8.233-3.546l35.107-2.954c.334-.038.691-.06 1.063-.06 1.882 0 3.407.529 3.407 1.183 0 .428-.656.801-1.635 1.009z" fill="#03313f"/><path d="m184.0113 201.545v-.052-9.986c-.327.003-.654-.026-.978-.084-.008-.002-.017-.003-.025-.004-.198-.037-.394-.081-.587-.14l-56.801-17.366-5.797-1.772c-.086-.027-.162-.065-.226-.112-.06-.043-.107-.095-.149-.151-.004-.004-.009-.008-.012-.013-.043-.06-.074-.126-.096-.195-.001 0-.001-.001-.002-.002-.022-.07-.034-.143-.035-.216v-.001-.001s-.002.001-.002.001v10.027.04l.006.002c.003.07.017.141.04.209l.003.006c.023.064.054.125.094.182.015.02.037.036.054.055.032.036.062.073.103.102.063.045.135.082.218.108.001 0 .002.001.004.002l62.598 19.138c.194.059.391.104.589.14.021.003.042.008.062.011.203.034.407.058.612.069.109.005.218.004.327.003" fill="#77d9e2"/><g fill="#03313f"><path d="m133.9239 171.0519c0 .729-1.553 1.319-3.47 1.319-1.916 0-3.469-.59-3.469-1.319 0-.728 1.553-1.318 3.469-1.318 1.917 0 3.47.59 3.47 1.318"/><path d="m187.5899 187.4596c0 .728-1.553 1.318-3.47 1.318-1.916 0-3.469-.59-3.469-1.318 0-.729 1.553-1.319 3.469-1.319 1.917 0 3.47.59 3.47 1.319"/><path d="m220.6133 144.5484c0 .728-1.553 1.318-3.47 1.318-1.916 0-3.469-.59-3.469-1.318s1.553-1.318 3.469-1.318c1.917 0 3.47.59 3.47 1.318"/><path d="m274.2794 160.9557c0 .728-1.553 1.318-3.47 1.318-1.916 0-3.469-.59-3.469-1.318s1.553-1.318 3.469-1.318c1.917 0 3.47.59 3.47 1.318"/><path d="m178.9419 156.8922c0 .729-1.554 1.318-3.47 1.318s-3.469-.589-3.469-1.318c0-.728 1.553-1.318 3.469-1.318s3.47.59 3.47 1.318"/><path d="m232.608 174.6183c0 .728-1.554 1.318-3.47 1.318s-3.469-.59-3.469-1.318c0-.729 1.553-1.319 3.469-1.319s3.47.59 3.47 1.319"/><path d="m247.6163 160.9557c0 6.083-14.208 11.015-31.735 11.015s-31.735-4.932-31.735-11.015 14.208-11.015 31.735-11.015 31.735 4.932 31.735 11.015"/></g><path d="m224.7793 160.9557c0 1.706-3.984 3.088-8.898 3.088-4.915 0-8.898-1.382-8.898-3.088s3.983-3.088 8.898-3.088c4.914 0 8.898 1.382 8.898 3.088" fill="#f6dfa4"/><path d="m142.3687 173.1349 14.724-4.501c.071-.022.149-.022.22 0l30.717 9.391c.356.108.356.612 0 .721l-14.743 4.507c-.072.023-.148.022-.22 0l-30.698-9.396c-.356-.109-.356-.613 0-.722" fill="#03313f"/><path d="m188.6919 162.753-22.357 2.704-11.399.959c-2.122.159-3.999.544-5.427 1.075l-2.807.34v2.13c0 2.005 4.681 3.629 10.455 3.629 2.348 0 4.516-.269 6.262-.722l29.459-7.275c.979-.208 1.635-.581 1.635-1.008v-2.132z" fill="#fcb827"/><path d="m163.4185 170.7369c-1.746.454-3.913.722-6.262.722-5.774 0-10.454-1.624-10.454-3.628 0-1.74 3.527-3.193 8.233-3.546l35.107-2.955c.334-.038.691-.059 1.063-.059 1.882 0 3.407.529 3.407 1.182 0 .428-.656.802-1.635 1.009z" fill="#f6dfa4"/><path d="m161.3399 167.8107c0 .795-1.857 1.44-4.149 1.44-2.291 0-4.149-.645-4.149-1.44s1.858-1.44 4.149-1.44c2.292 0 4.149.645 4.149 1.44" fill="#007cb9"/><path d="m17.1167 150.2613-5.716 1.748c-.358.109-.358.616 0 .725l73.029 22.328c1.085.331 2.244.331 3.328 0l101.944-31.168c.358-.109.358-.616 0-.725l-17.177-5.252c-.046-.014-.094-.019-.141-.015l-155.186 12.344c-.028.002-.055.007-.081.015" fill="#03313f"/><path d="m178.3501 141.0509c.473-.145.709-.552.709-.959 0 .407-.236.814-.709.959" fill="#77d9e2"/><path d="m178.3501 131.0079-4.969 1.519-90.024 27.523c-.111.034-.223.064-.336.089-.38.09-.767.136-1.155.14v10.037c.11 0 .22-.006.33-.014-.056.005-.113.011-.17.014.057-.003.114-.01.171-.014.03-.002.061-.003.091-.006.039-.004.078-.005.116-.009.029-.004.058-.006.086-.01.026-.003.051-.009.077-.013.061-.008.122-.019.183-.029.029-.006.058-.009.086-.015.033-.006.065-.011.097-.018.008-.002.015-.004.022-.006.135-.029.27-.063.402-.103l94.993-29.042c.473-.145.709-.552.709-.959v-10.042c0 .406-.236.813-.709.958" fill="#03313f"/><path d="m178.3501 129.09-61.649-18.848c-1.083-.331-2.239-.331-3.322 0l-95.701 29.259c-.354.109-.526.417-.519.722.001.073.012.146.035.216l.001.003c.023.068.054.135.096.195.004.004.009.008.013.013.041.055.089.107.148.15.065.047.14.086.226.112l5.797 1.772 56.801 17.366c.179.055.361.096.543.131.015.003.03.006.044.009.009.002.017.003.026.004.323.059.65.087.977.084.064 0 .128-.009.191-.012.069-.003.138-.003.207-.009.027-.002.055-.007.082-.009.066-.007.131-.015.197-.024.04-.006.081-.008.122-.014l.021-.005c.112-.018.224-.04.335-.066.113-.026.225-.055.336-.089l90.024-27.523 4.969-1.519c.473-.145.709-.552.709-.959s-.236-.814-.709-.959" fill="#77d9e2"/><path d="m178.3501 129.09-61.649-18.848c-1.083-.331-2.239-.331-3.322 0l-95.701 29.259c-.354.109-.526.417-.519.722.001.073.012.146.035.216l.001.003c.023.068.054.135.096.195.004.004.009.008.013.013.041.055.089.107.148.15.065.047.14.086.226.112l5.797 1.772 56.801 17.366c.179.055.361.096.543.131.015.003.03.006.044.009.009.002.017.003.026.004.323.059.65.087.977.084.064 0 .128-.009.191-.012.069-.003.138-.003.207-.009.027-.002.055-.007.082-.009.066-.007.131-.015.197-.024.04-.006.081-.008.122-.014l.021-.005c.112-.018.224-.04.335-.066.113-.026.225-.055.336-.089l90.024-27.523 4.969-1.519c.473-.145.709-.552.709-.959s-.236-.814-.709-.959" fill="#007cb9"/><path d="m61.274 143.3175c-1.746.454-3.913.722-6.262.722-5.774 0-10.455-1.624-10.455-3.628 0-1.74 3.528-3.193 8.234-3.546l35.107-2.954c.334-.039.691-.06 1.063-.06 1.882 0 3.407.529 3.407 1.182 0 .428-.656.802-1.635 1.009z" fill="#03313f"/><path d="m81.8663 170.316v-.052-9.986c-.327.003-.654-.025-.977-.084h-.001c-.008-.001-.016-.003-.025-.004-.197-.037-.394-.081-.587-.14l-56.801-17.366-5.797-1.772c-.086-.026-.161-.065-.226-.112-.059-.043-.107-.095-.148-.151-.001 0-.001 0-.001 0-.003-.004-.008-.008-.012-.012-.042-.06-.073-.127-.096-.195v-.001s-.001-.001-.001-.002c-.023-.07-.034-.143-.036-.216 0 0 0 0 0-.001h-.002v10.027.04l.006.002c.004.071.017.141.04.209.001.002.003.004.004.007.022.064.053.125.094.181.014.02.036.036.053.055.033.036.063.073.103.102.063.045.136.082.218.108.002 0 .003.001.004.002l62.598 19.138c.194.059.391.104.589.14.021.004.042.008.063.012.202.033.407.057.611.068.109.005.218.004.327.003" fill="#77d9e2"/><g fill="#03313f"><path d="m31.7793 139.8233c0 .728-1.554 1.318-3.47 1.318s-3.469-.59-3.469-1.318 1.553-1.318 3.469-1.318 3.47.59 3.47 1.318"/><path d="m85.4454 156.2306c0 .728-1.554 1.318-3.47 1.318s-3.469-.59-3.469-1.318 1.553-1.318 3.469-1.318 3.47.59 3.47 1.318"/><path d="m118.4688 113.3194c0 .729-1.554 1.319-3.47 1.319s-3.469-.59-3.469-1.319c0-.728 1.553-1.318 3.469-1.318s3.47.59 3.47 1.318"/><path d="m172.1348 129.7272c0 .728-1.554 1.318-3.47 1.318s-3.469-.59-3.469-1.318c0-.729 1.553-1.319 3.469-1.319s3.47.59 3.47 1.319"/><path d="m76.7969 125.6637c0 .728-1.553 1.318-3.469 1.318-1.917 0-3.47-.59-3.47-1.318 0-.729 1.553-1.319 3.47-1.319 1.916 0 3.469.59 3.469 1.319"/><path d="m130.4629 143.3893c0 .728-1.553 1.318-3.47 1.318-1.916 0-3.469-.59-3.469-1.318s1.553-1.318 3.469-1.318c1.917 0 3.47.59 3.47 1.318"/><path d="m145.4717 129.7272c0 6.083-14.208 11.015-31.735 11.015s-31.735-4.932-31.735-11.015 14.208-11.015 31.735-11.015 31.735 4.932 31.735 11.015"/></g><path d="m122.6348 129.7272c0 1.706-3.984 3.088-8.898 3.088-4.915 0-8.898-1.382-8.898-3.088s3.983-3.088 8.898-3.088c4.914 0 8.898 1.382 8.898 3.088" fill="#f6dfa4"/><path d="m40.2242 141.9059 14.724-4.501c.071-.022.148-.022.22 0l30.717 9.391c.356.109.356.612 0 .721l-14.743 4.508c-.072.022-.148.022-.221 0l-30.697-9.397c-.356-.109-.356-.613 0-.722" fill="#03313f"/><path d="m86.5474 131.5245-22.357 2.703-11.399.959c-2.122.16-4 .544-5.427 1.076l-2.807.339v2.131c0 2.004 4.681 3.629 10.455 3.629 2.348 0 4.516-.269 6.262-.723l29.459-7.274c.979-.208 1.635-.581 1.635-1.009v-2.131z" fill="#fcb827"/><path d="m61.274 139.5079c-1.746.454-3.913.723-6.262.723-5.774 0-10.455-1.625-10.455-3.629 0-1.74 3.528-3.193 8.234-3.546l35.107-2.954c.334-.038.691-.06 1.063-.06 1.882 0 3.407.529 3.407 1.183 0 .428-.656.801-1.635 1.009z" fill="#f6dfa4"/><path d="m59.1954 136.5821c0 .795-1.857 1.44-4.149 1.44-2.291 0-4.149-.645-4.149-1.44s1.858-1.44 4.149-1.44c2.292 0 4.149.645 4.149 1.44" fill="#007cb9"/><path d="m280.4947 158.0358c.473-.145.71-.552.709-.959.001.407-.236.814-.709.959" fill="#77d9e2"/><path d="m280.4947 147.9928-4.968 1.519-90.024 27.523c-.112.034-.224.064-.337.09-.38.089-.767.135-1.154.139v10.038c.109-.001.219-.007.329-.014-.056.004-.113.01-.17.013.057-.002.114-.009.171-.013.03-.003.061-.004.091-.007.039-.004.078-.005.117-.009.028-.003.057-.006.085-.009.026-.004.052-.01.077-.013.061-.009.122-.02.183-.03.029-.005.058-.009.086-.015.033-.006.065-.011.097-.018.008-.001.015-.004.022-.006.135-.029.27-.063.403-.103l94.992-29.042c.473-.145.71-.552.709-.959l.000003-10.042c-.000003.407-.236003.813-.709003.958" fill="#03313f"/><path d="m280.4947 146.0753-61.649-18.848c-1.082-.331-2.239-.331-3.321 0l-95.702 29.259c-.354.108-.526.417-.519.722.001.073.012.145.035.216 0 .001.001.002.001.003.023.068.054.134.096.194.004.005.01.009.013.013.042.056.089.108.149.151.064.047.139.085.225.112l5.797 1.772 56.801 17.366c.179.055.361.096.544.131.014.003.029.006.044.009l.025.004c.323.058.65.087.978.084.063-.001.127-.009.191-.012.068-.003.137-.004.206-.009.027-.002.055-.007.082-.01.066-.007.131-.014.197-.023.041-.006.082-.009.122-.015.007-.001.014-.003.021-.004.112-.019.224-.04.335-.066.113-.027.225-.055.337-.089l90.024-27.523 4.968-1.52c.473-.144.709-.551.709-.958v-.001c0-.407-.236-.813-.709-.958" fill="#77d9e2"/><path d="m280.4947 146.0753-61.649-18.848c-1.082-.331-2.239-.331-3.321 0l-95.702 29.259c-.354.108-.526.417-.519.722.001.073.012.145.035.216 0 .001.001.002.001.003.023.068.054.134.096.194.004.005.01.009.013.013.042.056.089.108.149.151.064.047.139.085.225.112l5.797 1.772 56.801 17.366c.179.055.361.096.544.131.014.003.029.006.044.009l.025.004c.323.058.65.087.978.084.063-.001.127-.009.191-.012.068-.003.137-.004.206-.009.027-.002.055-.007.082-.01.066-.007.131-.014.197-.023.041-.006.082-.009.122-.015.007-.001.014-.003.021-.004.112-.019.224-.04.335-.066.113-.027.225-.055.337-.089l90.024-27.523 4.968-1.52c.473-.144.709-.551.709-.958v-.001c0-.407-.236-.813-.709-.958" fill="#007cb9"/><path d="m163.4185 160.3024c-1.746.454-3.913.723-6.262.723-5.774 0-10.454-1.625-10.454-3.629 0-1.74 3.527-3.193 8.233-3.546l35.107-2.954c.334-.038.691-.06 1.063-.06 1.882 0 3.407.529 3.407 1.183 0 .427-.656.801-1.635 1.009z" fill="#03313f"/><path d="m184.0113 187.3014v-.052-9.986c-.327.003-.654-.026-.978-.084l-.025-.004c-.198-.037-.394-.081-.587-.14l-56.801-17.366-5.797-1.772c-.086-.027-.162-.065-.226-.112-.06-.043-.107-.095-.149-.151-.004-.004-.009-.008-.012-.013-.043-.06-.074-.126-.096-.195-.001-.001-.001-.001-.002-.002-.022-.071-.034-.143-.035-.216v-.001-.001s-.002.001-.002.001v10.027.04l.006.002c.003.07.017.141.04.209l.003.006c.023.064.054.125.094.182.015.02.037.036.054.055.032.035.062.073.103.102.063.045.135.082.218.108.001 0 .002.001.004.002l62.598 19.137c.194.06.391.105.589.141.021.003.042.008.062.011.203.034.407.058.612.069.109.005.218.004.327.003" fill="#77d9e2"/><g fill="#03313f"><path d="m133.9239 156.8082c0 .728-1.553 1.318-3.47 1.318-1.916 0-3.469-.59-3.469-1.318s1.553-1.318 3.469-1.318c1.917 0 3.47.59 3.47 1.318"/><path d="m187.5899 173.2154c0 .729-1.553 1.319-3.47 1.319-1.916 0-3.469-.59-3.469-1.319 0-.728 1.553-1.318 3.469-1.318 1.917 0 3.47.59 3.47 1.318"/><path d="m220.6133 130.3048c0 .728-1.553 1.318-3.47 1.318-1.916 0-3.469-.59-3.469-1.318 0-.729 1.553-1.319 3.469-1.319 1.917 0 3.47.59 3.47 1.319"/><path d="m274.2794 146.712c0 .728-1.553 1.318-3.47 1.318-1.916 0-3.469-.59-3.469-1.318s1.553-1.318 3.469-1.318c1.917 0 3.47.59 3.47 1.318"/><path d="m178.9419 142.6485c0 .728-1.554 1.318-3.47 1.318s-3.469-.59-3.469-1.318 1.553-1.318 3.469-1.318 3.47.59 3.47 1.318"/><path d="m232.608 160.3741c0 .729-1.554 1.319-3.47 1.319s-3.469-.59-3.469-1.319c0-.728 1.553-1.318 3.469-1.318s3.47.59 3.47 1.318"/><path d="m247.6163 146.712c0 6.083-14.208 11.015-31.735 11.015s-31.735-4.932-31.735-11.015 14.208-11.015 31.735-11.015 31.735 4.932 31.735 11.015"/></g><path d="m224.7793 146.712c0 1.706-3.984 3.088-8.898 3.088-4.915 0-8.898-1.382-8.898-3.088s3.983-3.088 8.898-3.088c4.914 0 8.898 1.382 8.898 3.088" fill="#f6dfa4"/><path d="m142.3687 158.8912 14.724-4.501c.071-.022.149-.022.22 0l30.717 9.39c.356.109.356.613 0 .722l-14.743 4.507c-.072.022-.148.022-.22 0l-30.698-9.396c-.356-.11-.356-.614 0-.722" fill="#03313f"/><path d="m188.6919 148.5094-22.357 2.703-11.399.96c-2.122.159-3.999.543-5.427 1.075l-2.807.339v2.131c0 2.004 4.681 3.629 10.455 3.629 2.348 0 4.516-.269 6.262-.722l29.459-7.275c.979-.208 1.635-.581 1.635-1.008v-2.132z" fill="#fcb827"/><path d="m163.4185 156.4928c-1.746.454-3.913.723-6.262.723-5.774 0-10.454-1.625-10.454-3.629 0-1.74 3.527-3.192 8.233-3.546l35.107-2.954c.334-.038.691-.06 1.063-.06 1.882 0 3.407.53 3.407 1.183 0 .428-.656.801-1.635 1.009z" fill="#f6dfa4"/><path d="m161.3399 153.567c0 .795-1.857 1.44-4.149 1.44-2.291 0-4.149-.645-4.149-1.44s1.858-1.44 4.149-1.44c2.292 0 4.149.645 4.149 1.44" fill="#007cb9"/><path d="m178.3511 126.5587c.473-.145.71-.552.709-.959 0 .407-.236.814-.709.959" fill="#77d9e2"/><path d="m178.3511 116.5162-4.968 1.519-90.024 27.523c-.112.034-.224.063-.337.089-.38.089-.767.136-1.154.14v10.037c.109-.001.219-.006.329-.014-.056.004-.113.011-.17.013.057-.002.114-.009.171-.013.03-.002.061-.004.091-.006.039-.004.078-.005.117-.01.028-.003.057-.006.085-.009.026-.003.052-.009.077-.013.061-.008.122-.019.183-.03.029-.005.058-.008.086-.014.033-.006.065-.011.097-.018.008-.002.015-.004.022-.006.135-.029.27-.063.403-.103l94.992-29.043c.473-.144.709-.551.709-.959v-10.042c0 .407-.236.814-.709.959" fill="#03313f"/><path d="m178.3511 114.5983-61.649-18.848c-1.083-.331-2.239-.331-3.321 0l-95.702 29.259c-.354.108-.526.417-.519.722.001.073.012.146.035.216 0 .001.001.002.001.003.023.068.054.134.096.194.004.005.01.009.013.013.042.056.089.108.148.151.065.047.14.085.226.112l5.797 1.772 56.801 17.366c.179.055.361.096.543.131l.045.009c.008.001.016.003.025.004.323.058.65.087.978.084.063-.001.127-.009.19-.012.069-.003.138-.004.207-.009.027-.002.055-.007.082-.01.066-.006.131-.014.197-.023.041-.006.082-.008.122-.015.007-.001.014-.003.021-.004.112-.018.224-.04.335-.066.113-.026.225-.055.337-.089l90.024-27.523 4.968-1.519c.473-.145.709-.552.709-.959v-.001c0-.406-.236-.813-.709-.958" fill="#77d9e2"/><path d="m178.3511 114.5983-61.649-18.848c-1.083-.331-2.239-.331-3.321 0l-95.702 29.259c-.354.108-.526.417-.519.722.001.073.012.146.035.216 0 .001.001.002.001.003.023.068.054.134.096.194.004.005.01.009.013.013.042.056.089.108.148.151.065.047.14.085.226.112l5.797 1.772 56.801 17.366c.179.055.361.096.543.131l.045.009c.008.001.016.003.025.004.323.058.65.087.978.084.063-.001.127-.009.19-.012.069-.003.138-.004.207-.009.027-.002.055-.007.082-.01.066-.006.131-.014.197-.023.041-.006.082-.008.122-.015.007-.001.014-.003.021-.004.112-.018.224-.04.335-.066.113-.026.225-.055.337-.089l90.024-27.523 4.968-1.519c.473-.145.709-.552.709-.959v-.001c0-.406-.236-.813-.709-.958" fill="#007cb9"/><path d="m61.2749 128.8253c-1.746.454-3.913.723-6.262.723-5.774 0-10.454-1.625-10.454-3.629 0-1.74 3.527-3.193 8.233-3.546l35.107-2.954c.334-.038.691-.06 1.063-.06 1.882 0 3.407.529 3.407 1.183 0 .428-.656.801-1.635 1.009z" fill="#03313f"/><path d="m81.8677 155.8243v-.052-9.986c-.327.003-.654-.026-.978-.084-.008-.002-.017-.003-.025-.004-.198-.037-.394-.081-.587-.14l-56.801-17.366-5.797-1.772c-.086-.027-.162-.065-.227-.112-.059-.043-.106-.095-.148-.151-.004-.004-.009-.008-.012-.013-.043-.06-.074-.126-.096-.195-.001 0-.001-.001-.002-.002-.022-.07-.034-.143-.035-.216v-.001c0-.001 0-.001 0-.001l-.002.001v10.027.04l.005.002c.004.07.018.141.041.209.001.002.002.004.003.006.023.064.054.125.094.182.015.02.037.036.054.055.032.035.062.073.103.102.063.045.135.082.218.108.001 0 .002.001.004.002l62.598 19.138c.194.059.391.104.589.14.021.003.041.008.062.011.203.034.407.058.612.069.109.005.218.004.327.003" fill="#77d9e2"/><g fill="#03313f"><path d="m31.7803 125.3312c0 .729-1.553 1.319-3.47 1.319-1.916 0-3.469-.59-3.469-1.319 0-.728 1.553-1.318 3.469-1.318 1.917 0 3.47.59 3.47 1.318"/><path d="m85.4463 141.7389c0 .728-1.553 1.318-3.47 1.318-1.916 0-3.469-.59-3.469-1.318 0-.729 1.553-1.319 3.469-1.319 1.917 0 3.47.59 3.47 1.319"/><path d="m118.4698 98.8277c0 .728-1.553 1.318-3.47 1.318-1.916 0-3.469-.59-3.469-1.318s1.553-1.318 3.469-1.318c1.917 0 3.47.59 3.47 1.318"/><path d="m172.1358 115.235c0 .728-1.553 1.318-3.47 1.318-1.916 0-3.469-.59-3.469-1.318s1.553-1.318 3.469-1.318c1.917 0 3.47.59 3.47 1.318"/><path d="m76.7984 111.1715c0 .728-1.554 1.318-3.47 1.318s-3.469-.59-3.469-1.318 1.553-1.318 3.469-1.318 3.47.59 3.47 1.318"/><path d="m130.4639 128.8976c0 .728-1.553 1.318-3.469 1.318-1.917 0-3.47-.59-3.47-1.318 0-.729 1.553-1.319 3.47-1.319 1.916 0 3.469.59 3.469 1.319"/><path d="m145.4727 115.235c0 6.083-14.208 11.015-31.735 11.015s-31.735-4.932-31.735-11.015 14.208-11.015 31.735-11.015 31.735 4.932 31.735 11.015"/></g><path d="m122.6358 115.235c0 1.706-3.984 3.088-8.898 3.088-4.915 0-8.898-1.382-8.898-3.088s3.983-3.088 8.898-3.088c4.914 0 8.898 1.382 8.898 3.088" fill="#f6dfa4"/><path d="m40.2251 127.4142 14.724-4.501c.071-.022.149-.022.22 0l30.717 9.39c.356.109.356.613 0 .722l-14.743 4.507c-.072.022-.148.022-.22 0l-30.698-9.396c-.356-.109-.356-.613 0-.722" fill="#03313f"/><path d="m86.5484 117.0323-22.357 2.704-11.399.959c-2.122.159-3.999.544-5.427 1.075l-2.807.34v2.13c0 2.005 4.681 3.629 10.455 3.629 2.348 0 4.516-.269 6.262-.722l29.459-7.275c.979-.208 1.635-.581 1.635-1.008v-2.132z" fill="#fcb827"/><path d="m61.2749 125.0157c-1.746.454-3.913.723-6.262.723-5.774 0-10.454-1.625-10.454-3.629 0-1.74 3.527-3.192 8.233-3.546l35.107-2.954c.334-.038.691-.06 1.063-.06 1.882 0 3.407.53 3.407 1.183 0 .428-.656.801-1.635 1.009z" fill="#f6dfa4"/><path d="m59.1963 122.09c0 .795-1.857 1.44-4.149 1.44-2.291 0-4.149-.645-4.149-1.44s1.858-1.44 4.149-1.44c2.292 0 4.149.645 4.149 1.44" fill="#007cb9"/><path d="m178.3511 112.067c.473-.145.71-.552.709-.959 0 .407-.236.814-.709.959" fill="#77d9e2"/><path d="m178.3511 102.024-4.968 1.519-90.024 27.523c-.112.034-.224.063-.337.089-.38.09-.767.136-1.154.14v10.037c.109-.001.219-.006.329-.014-.056.005-.113.011-.17.014.057-.003.114-.01.171-.014.03-.002.061-.003.091-.006.039-.004.078-.005.117-.009.028-.004.057-.006.085-.01.026-.003.052-.009.077-.013.061-.008.122-.019.183-.029.029-.006.058-.009.086-.015.033-.006.065-.011.097-.018.008-.002.015-.004.022-.006.135-.029.27-.063.403-.103l94.992-29.042c.473-.145.709-.552.709-.959v-.001-10.042c0 .407-.236.814-.709.959" fill="#03313f"/><path d="m178.3511 100.1061-61.649-18.848c-1.083-.331-2.239-.331-3.321 0l-95.702 29.259c-.354.108-.526.417-.519.722.001.073.012.146.035.216 0 .001.001.002.001.003.023.068.054.134.096.195.004.004.01.008.013.013.042.055.089.107.148.15.065.047.14.086.226.112l5.797 1.772 56.801 17.366c.179.055.361.096.543.131l.045.009c.008.001.016.003.025.004.323.058.65.087.978.084.063 0 .127-.009.19-.012.069-.003.138-.003.207-.009.027-.002.055-.007.082-.009.066-.007.131-.015.197-.024.041-.006.082-.008.122-.015.007-.001.014-.002.021-.004.112-.018.224-.04.335-.066.113-.026.225-.055.337-.089l90.024-27.523 4.968-1.519c.473-.145.709-.552.709-.959s-.236-.814-.709-.959" fill="#77d9e2"/><path d="m178.3511 100.1061-61.649-18.848c-1.083-.331-2.239-.331-3.321 0l-95.702 29.259c-.354.108-.526.417-.519.722.001.073.012.146.035.216 0 .001.001.002.001.003.023.068.054.134.096.195.004.004.01.008.013.013.042.055.089.107.148.15.065.047.14.086.226.112l5.797 1.772 56.801 17.366c.179.055.361.096.543.131l.045.009c.008.001.016.003.025.004.323.058.65.087.978.084.063 0 .127-.009.19-.012.069-.003.138-.003.207-.009.027-.002.055-.007.082-.009.066-.007.131-.015.197-.024.041-.006.082-.008.122-.015.007-.001.014-.002.021-.004.112-.018.224-.04.335-.066.113-.026.225-.055.337-.089l90.024-27.523 4.968-1.519c.473-.145.709-.552.709-.959s-.236-.814-.709-.959" fill="#007cb9"/><path d="m61.2749 114.3336c-1.746.454-3.913.722-6.262.722-5.774 0-10.454-1.624-10.454-3.628 0-1.74 3.527-3.193 8.233-3.546l35.107-2.955c.334-.038.691-.059 1.063-.059 1.882 0 3.407.529 3.407 1.182 0 .428-.656.802-1.635 1.009z" fill="#03313f"/><path d="m81.8677 141.3321v-.052-9.986c-.327.003-.654-.026-.978-.084-.008-.001-.017-.003-.025-.004-.198-.037-.394-.081-.587-.14l-56.801-17.366-5.797-1.772c-.086-.027-.162-.065-.227-.112-.059-.043-.106-.095-.148-.151-.004-.004-.009-.008-.012-.012-.043-.061-.074-.127-.096-.196-.001 0-.001-.001-.002-.002-.022-.07-.034-.143-.035-.216v-.001h-.002v10.027.04l.005.002c.004.071.018.141.041.209.001.002.002.004.003.007.023.064.054.125.094.181.015.02.037.036.054.055.032.036.062.073.103.102.063.045.135.082.218.108.001 0 .002.001.004.002l62.598 19.138c.194.059.391.104.589.14.021.004.041.008.062.012.203.033.407.057.612.068.109.005.218.004.327.003" fill="#77d9e2"/><g fill="#03313f"><path d="m31.7803 110.8395c0 .728-1.553 1.318-3.47 1.318-1.916 0-3.469-.59-3.469-1.318 0-.729 1.553-1.318 3.469-1.318 1.917 0 3.47.589 3.47 1.318"/><path d="m85.4463 127.2467c0 .728-1.553 1.318-3.47 1.318-1.916 0-3.469-.59-3.469-1.318s1.553-1.318 3.469-1.318c1.917 0 3.47.59 3.47 1.318"/><path d="m118.4698 84.3356c0 .729-1.553 1.319-3.47 1.319-1.916 0-3.469-.59-3.469-1.319 0-.728 1.553-1.318 3.469-1.318 1.917 0 3.47.59 3.47 1.318"/><path d="m172.1358 100.7433c0 .728-1.553 1.318-3.47 1.318-1.916 0-3.469-.59-3.469-1.318 0-.729 1.553-1.319 3.469-1.319 1.917 0 3.47.59 3.47 1.319"/><path d="m76.7984 96.6798c0 .728-1.554 1.318-3.47 1.318s-3.469-.59-3.469-1.318c0-.729 1.553-1.319 3.469-1.319s3.47.59 3.47 1.319"/><path d="m130.4639 114.4054c0 .728-1.553 1.318-3.469 1.318-1.917 0-3.47-.59-3.47-1.318s1.553-1.318 3.47-1.318c1.916 0 3.469.59 3.469 1.318"/><path d="m145.4727 100.7433c0 6.083-14.208 11.015-31.735 11.015s-31.735-4.932-31.735-11.015 14.208-11.015 31.735-11.015 31.735 4.932 31.735 11.015"/></g><path d="m122.6358 100.7433c0 1.706-3.984 3.088-8.898 3.088-4.915 0-8.898-1.382-8.898-3.088s3.983-3.088 8.898-3.088c4.914 0 8.898 1.382 8.898 3.088" fill="#f6dfa4"/><path d="m40.2251 112.922 14.724-4.501c.071-.022.149-.022.22 0l30.717 9.391c.356.109.356.612 0 .721l-14.743 4.508c-.072.022-.148.022-.22 0l-30.698-9.397c-.356-.109-.356-.613 0-.722" fill="#03313f"/><path d="m86.5484 102.5401-22.357 2.704-11.399.959c-2.122.159-3.999.544-5.427 1.075l-2.807.34v2.13c0 2.005 4.681 3.629 10.455 3.629 2.348 0 4.516-.269 6.262-.722l29.459-7.275c.979-.207 1.635-.581 1.635-1.008v-2.131z" fill="#fcb827"/><path d="m61.2749 110.524c-1.746.454-3.913.723-6.262.723-5.774 0-10.454-1.625-10.454-3.629 0-1.74 3.527-3.193 8.233-3.546l35.107-2.954c.334-.038.691-.06 1.063-.06 1.882 0 3.407.529 3.407 1.183 0 .427-.656.801-1.635 1.009z" fill="#f6dfa4"/><path d="m59.1963 107.5978c0 .795-1.857 1.44-4.149 1.44-2.291 0-4.149-.645-4.149-1.44s1.858-1.44 4.149-1.44c2.292 0 4.149.645 4.149 1.44" fill="#007cb9"/><path d="m.4883 4.8732c-.001-2.283 7.679-4.136 17.154-4.14s17.157 1.844 17.158 4.127-7.679 4.136-17.154 4.14c-9.475.003-17.158-1.844-17.158-4.127" fill="#03313f" mask="url(#b)" transform="translate(195 235)"/><path d="m195.5684 232.3522c-.001-2.204 7.139-3.993 15.948-3.996 8.809-.004 15.95 1.78 15.951 3.984.001 2.203-7.139 3.993-15.948 3.996-8.808.004-15.95-1.78-15.951-3.984" fill="#f23251"/><path d="m227.4673 232.34c.001 2.204-7.139 3.993-15.948 3.997-8.808.003-15.949-1.781-15.951-3.984l.003 6.714c0 2.203 7.142 3.987 15.951 3.983 8.808-.003 15.948-1.792 15.948-3.996z" fill="#03313f"/><path d="m211.5196 236.3365c-8.809.003-15.95-1.78-15.951-3.984l.002 6.714c.001 2.204 7.143 3.987 15.951 3.984004z" fill="#007cb9"/><path d="m211.5206 238.8336v1.743h.007c.658 0 1.278.126 1.879.303l-.002-4.574c-.619.018-1.246.03-1.885.031-.871 0-1.718-.022-2.55-.055l.002.005s2.548.594 2.549 2.547" fill="#03313f"/><path d="m0 178.2296c-.001-2.283 7.679-4.137 17.154-4.14 9.475-.004 17.158 1.844 17.158 4.126.001 2.284-7.679 4.137-17.154 4.14-9.475.004-17.157-1.843-17.158-4.126" fill="#03313f"/><path d="m.0801 170.7086c-.001-2.204 7.14-3.993 15.948-3.997 8.809-.003 15.95 1.781 15.951 3.984.001 2.204-7.139 3.993-15.948 3.997-8.808.003-15.95-1.78-15.951-3.984" fill="#f23251"/><path d="m31.9795 170.6964c0 2.204-7.14 3.993-15.948 3.996-8.809.004-15.95-1.78-15.951-3.984l.003 6.714c0 2.204 7.142 3.988 15.95 3.984 8.809-.003 15.949-1.793 15.948-3.996z" fill="#03313f"/><path d="m16.0313 174.6925c-8.809.003-15.95-1.78-15.951-3.984l.003 6.714c0 2.204 7.142 3.988 15.95 3.984007z" fill="#007cb9"/><path d="m16.0323 177.1896v1.744h.007c.658-.001 1.278.125 1.879.302l-.001-4.574c-.62.018-1.247.03-1.886.031-.87 0-1.718-.022-2.55-.055l.002.005s2.549.594 2.549 2.547" fill="#03313f"/><path d="m84.2017 206.0328c-.001-2.283 7.679-4.136 17.154-4.14s17.157 1.844 17.158 4.127-7.679 4.136-17.154 4.14c-9.475.003-17.157-1.844-17.158-4.127" fill="#03313f"/><path d="m84.2818 198.5118c-.001-2.204 7.139-3.993 15.948-3.996 8.809-.004 15.95 1.78 15.951 3.984.001 2.203-7.139 3.993-15.948 3.996-8.808.004-15.95-1.78-15.951-3.984" fill="#f23251"/><path d="m116.1807 198.4996c.001 2.204-7.139 3.993-15.948 3.997-8.808.003-15.949-1.781-15.951-3.984l.003 6.714c0 2.203 7.142 3.987 15.951 3.983 8.808-.002 15.948-1.792 15.948-3.996z" fill="#03313f"/><path d="m100.233 202.4962c-8.809.003-15.95-1.78-15.951-3.984l.002 6.714c.001 2.204 7.143 3.987 15.951 3.984004z" fill="#007cb9"/><path d="m100.2339 204.9933v1.743h.007c.658 0 1.278.126 1.879.303l-.002-4.574c-.619.018-1.246.03-1.885.031-.87 0-1.718-.022-2.55-.055l.002.005s2.548.594 2.549 2.547" fill="#03313f"/></g></g></svg>