<svg width="91" height="91" viewBox="0 0 91 91" xmlns="http://www.w3.org/2000/svg"><g fill-rule="nonzero" fill="none"><circle fill="#EAECED" cx="45.301" cy="45.216" r="45.066"/><circle fill="#E8EAEC" cx="45.301" cy="45.216" r="45.066"/><path d="M71.821 27.877H18.43a3.35 3.35 0 00-3.351 3.35v5.026h60.06v-5.026a3.35 3.35 0 00-3.317-3.35z" fill="#C5C9CE"/><path d="M61.887 36.253h-14.19l.703-3.87a.888.888 0 01.838-.62h11.074a.921.921 0 01.854.62l.72 3.87z" fill="#E8EAEC"/><path d="M69.46 31.462l1.306 1.122a.369.369 0 010 .553l-1.307 1.14a.369.369 0 01-.603-.219V31.73a.369.369 0 01.603-.268zM66.343 31.462l-1.323 1.122a.369.369 0 000 .553l1.323 1.14a.352.352 0 00.67-.219V31.73a.36.36 0 10-.67-.268z" fill="#FFF"/><circle fill="#FFF" cx="20.339" cy="32.584" r="1.206"/><circle fill="#FFF" cx="24.192" cy="32.584" r="1.206"/><circle fill="#FFF" cx="28.045" cy="32.584" r="1.206"/><path d="M46.24 36.203l-.671-3.82a.888.888 0 00-.838-.62H33.624a.905.905 0 00-.855.62l-.67 3.904H15.078v42.315C23.351 86.867 33.722 91 46.191 91c12.47 0 22.118-3.996 28.948-11.99V36.204h-28.9z" fill="#FFF"/><path d="M52.957 50.695H43.91a1.34 1.34 0 110-2.681h9.047a1.34 1.34 0 010 2.68zM56.341 57.513h-12.43a1.34 1.34 0 110-2.68h12.43a1.34 1.34 0 110 2.68zM57.48 64.214H43.91a1.34 1.34 0 010-2.68h13.57a1.34 1.34 0 110 2.68z" fill="#C5C9CE"/><path d="M54.08 71.05H43.91a1.34 1.34 0 010-2.68h10.17a1.34 1.34 0 110 2.68zM33.507 71.05H23.455a1.34 1.34 0 010-2.68h10.052a1.34 1.34 0 110 2.68z" fill="#8241AA"/><path d="M38.834 50.695h-15.38a1.34 1.34 0 110-2.681h15.43a1.34 1.34 0 010 2.68h-.05zM35.835 57.513h-12.38a1.34 1.34 0 110-2.68h12.43a1.34 1.34 0 110 2.68h-.05zM36.975 64.214h-13.52a1.34 1.34 0 010-2.68h13.57a1.34 1.34 0 110 2.68h-.05zM65.338 51.264a1.927 1.927 0 01-1.91-1.91 1.943 1.943 0 011.91-1.893 1.91 1.91 0 010 3.82v-.017zM65.338 58.05a1.927 1.927 0 01-1.91-1.91 1.943 1.943 0 011.91-1.978 1.91 1.91 0 010 3.82v.067zM65.338 64.834a1.927 1.927 0 01-1.91-1.91 1.943 1.943 0 011.91-1.91 1.91 1.91 0 110 3.82z" fill="#C5C9CE"/><path d="M65.338 71.62a1.893 1.893 0 01-1.34-3.25c.35-.367.834-.573 1.34-.57a1.91 1.91 0 010 3.82z" fill="#8241AA"/></g></svg>
