<svg xmlns="http://www.w3.org/2000/svg" width="220" height="204" viewBox="0 0 220 204">
  <g fill="none" transform="translate(-.075 -.5)">
    <path fill="#E8EAEC" d="M110.075,0.5 C170.826322,0.5 220.075,49.7486775 220.075,110.5 C220.075,132.219762 213.780036,152.469256 202.91503,169.523562 C175.626715,152.441788 143.367871,142.570194 108.803393,142.570194 C75.0085917,142.570194 43.4178847,152.007044 16.5226645,168.389352 C6.09608075,151.577729 0.0749995112,131.742014 0.0749995112,110.5 C0.0749995112,49.7486775 49.323677,0.5 110.075,0.5 Z"/>
    <path fill="#F3F4F5" d="M48.4312603,60.2423002 C48.9793718,60.2523391 49.5083361,60.0407386 49.8983025,59.6554424 C50.288269,59.2701463 50.5062269,58.7437696 50.5027923,58.195577 L50.5027923,54.114535 C50.5027923,50.7234129 53.2518399,47.9743653 56.6429619,47.9743653 C60.034084,47.9743653 62.7831316,50.7234129 62.7831316,54.114535 C62.7831316,54.6762966 63.2385293,55.1316944 63.800291,55.1316944 L68.9108968,55.1316944 C71.1716449,55.1316944 73.0043433,56.9643928 73.0043433,59.2251408 C73.0043433,59.7869024 73.459741,60.2423002 74.0215027,60.2423002 L87.14534,60.2423002 C88.8580279,60.2423002 90.2464358,61.6307081 90.2464358,63.343396 C90.2464358,65.0560839 88.8580279,66.4444918 87.14534,66.4444918 L48.4312603,66.4444918 C46.7185724,66.4444918 45.3301645,65.0560839 45.3301645,63.343396 C45.3301645,61.6307081 46.7185724,60.2423002 48.4312603,60.2423002 L48.4312603,60.2423002 Z"/>
    <path fill="#969EA7" d="M188.476746,200.80877 C187.860178,200.80877 187.360351,200.308943 187.360351,199.692375 C187.360351,199.075808 187.860178,198.575981 188.476746,198.575981 L196.849474,198.575421 L196.852338,151.474026 C187.696383,158.426196 151.216983,168.420925 109.795744,168.420925 C68.4342584,168.420925 31.9819086,158.464239 22.739503,151.507939 L22.7414736,199.518421 L31.1147414,199.518714 C31.7313091,199.518714 32.2311359,200.018541 32.2311359,200.635108 C32.2311359,201.251676 31.7313091,201.751503 31.1147414,201.751503 L12.1360353,201.751503 C11.5194676,201.751503 11.0196408,201.251676 11.0196408,200.635108 C11.0196408,200.018541 11.5194676,199.518714 12.1360353,199.518714 L20.5084736,199.518421 L20.5080114,149.442362 C15.9736474,151.954342 16.1223199,156.740584 16.2915036,162.131903 C16.5147825,169.462894 16.7752745,177.786235 5.0407281,181.457932 C4.93313101,181.49641 4.82005047,181.517351 4.70580976,181.51997 C4.15240103,181.52285 3.68039961,181.119876 3.59648224,180.57286 C3.51256488,180.025843 3.84206381,179.499911 4.37089141,179.336783 C14.492868,176.161261 14.2943979,169.413276 14.0587146,162.193925 C13.866864,156.198592 13.6750133,149.901898 20.5081776,146.956405 L20.5089431,138.829615 C17.3822659,138.298907 15.0014478,135.577169 15.0014478,132.299362 C15.0014478,128.64106 17.967087,125.675421 21.6253883,125.675421 C25.2836897,125.675421 28.2493289,128.64106 28.2493289,132.299362 C28.2493289,135.577169 25.8685107,138.298907 22.7418336,138.829615 L22.7414804,148.570254 C23.2489621,150.104875 30.9039662,154.498147 48.0591288,158.832337 C68.2576849,163.764717 88.9789201,166.234605 109.770935,166.188137 C130.56295,166.234605 151.284185,163.764717 171.482741,158.832337 C189.059752,154.391568 196.663639,149.888777 196.824896,148.462273 C196.824896,148.382154 196.833335,148.304006 196.849374,148.22867 L196.849654,138.829615 C193.722976,138.298907 191.342158,135.577169 191.342158,132.299362 C191.342158,128.64106 194.307798,125.675421 197.966099,125.675421 C201.6244,125.675421 204.590039,128.64106 204.590039,132.299362 C204.590039,135.576859 202.209672,138.298392 199.083431,138.829465 L199.082474,198.575421 L207.455452,198.575981 C208.07202,198.575981 208.571846,199.075808 208.571846,199.692375 C208.571846,200.308943 208.07202,200.80877 207.455452,200.80877 L188.476746,200.80877 Z"/>
    <ellipse cx="108.803" cy="148.71" fill="#F3F4F5" rx="40.277" ry="2.977"/>
    <path fill="#B93499" d="M67.8689286,143.016749 L67.8689286,97.5174715 C67.8689286,92.9891247 71.5398791,89.3181743 76.0682259,89.3181743 L76.0682259,89.3181743 L135.336368,89.3181743 L131.553032,93.1263199 L76.0682259,93.1263199 C73.6458646,93.1262814 71.678317,95.0827443 71.6646699,97.5050671 L71.6646699,97.5050671 L71.6646699,139.221008 L85.6444097,139.221008 L81.9106903,143.016749 L74.4804649,143.016749 L69.3202415,148.176972 L67.2239007,148.176972 C61.567502,148.176972 56.9778803,145.869757 56.9778803,143.016749 L56.9778803,143.016749 L67.8689286,143.016749 Z"/>
    <path fill="#FFF" d="M127.199093,97.5422803 L114.79471,109.946663 L114.79471,106.461032 C114.79471,103.179522 112.134521,100.519332 108.85301,100.519332 C105.5715,100.519332 102.911311,103.179522 102.911311,106.461032 L102.911311,106.461032 L102.911311,111.298741 C101.224315,111.385572 99.5869363,111.484807 97.9495577,111.63366 L97.9495577,111.63366 L97.9495577,126.853838 L85.6320053,139.258221 L71.6646699,139.258221 L71.6646699,97.5422803 L127.199093,97.5422803 Z M108.803393,102.37999 C111.05729,102.37999 112.884435,104.207134 112.884435,106.461032 L112.884435,106.461032 L112.884435,111.236719 C110.167875,111.149889 107.438911,111.149889 104.722351,111.236719 L104.722351,111.236719 L104.722351,106.461032 C104.722351,104.207134 106.549496,102.37999 108.803393,102.37999 Z"/>
    <path fill="#9F2D84" d="M85.6320053,139.221008 L145.95452,139.221008 L145.95452,97.5174715 C145.927263,95.0746022 143.931925,93.1125197 141.488943,93.1263199 L141.488943,93.1263199 L131.553032,93.1263199 L135.274347,89.3181743 L141.476538,89.3181743 C143.388967,89.320232 145.242173,89.9817784 146.723592,91.1912361 C147.132006,91.5252249 147.505998,91.899217 147.839987,92.3076306 C149.063014,93.7685109 149.734653,95.6122272 149.737857,97.5174715 L149.737857,97.5174715 L149.737857,143.016749 L159.33885,143.016749 C159.33885,145.869757 154.674802,148.176972 149.018403,148.176972 L149.018403,148.176972 L69.3202415,148.176972 L74.4804649,143.016749 L81.9106903,143.016749 L85.6320053,139.221008 Z"/>
    <path fill="#C5C9CE" d="M131.639862,93.1263199 L76.0682259,93.1263199 C73.6458646,93.1263199 71.678317,95.0827443 71.6646699,97.5050671 L127.199093,97.5050671 L131.639862,93.1263199 Z M76.6915748,95.6866485 C76.5590974,95.3668197 76.6323248,94.9986808 76.8771112,94.7538944 C77.1218975,94.5091081 77.4900364,94.4358807 77.8098653,94.5683581 C78.1296941,94.7008355 78.338228,95.0129286 78.338228,95.3591089 C78.338228,95.8318107 77.9550274,96.2150113 77.4823256,96.2150113 C77.1361453,96.2150113 76.8240523,96.0064774 76.6915748,95.6866485 Z M80.2112899,96.2150113 C79.738588,96.2150113 79.3553874,95.8318107 79.3553874,95.3591089 C79.3553874,94.886407 79.738588,94.5032064 80.2112899,94.5032064 C80.6839917,94.5032064 81.0671953,94.886407 81.0671953,95.3591089 C81.0683739,95.8086122 80.721635,96.18244 80.2733118,96.2150113 L80.2112899,96.2150113 Z M82.0843518,95.3591089 C82.0843518,94.886407 82.4675523,94.5032064 82.9402541,94.5032064 C83.412956,94.5032064 83.7961565,94.886407 83.7961565,95.3591089 C83.7961565,95.8318107 83.412956,96.2150113 82.9402541,96.2150113 C82.4675523,96.2150113 82.0843518,95.8318107 82.0843518,95.3591089 Z"/>
    <path fill="#FFF" d="M77.4823256,94.5032064 C77.1361453,94.5032064 76.8240523,94.7117404 76.6915748,95.0315692 C76.5590974,95.351398 76.6323248,95.7195369 76.8771112,95.9643233 C77.1218975,96.2091097 77.4900364,96.282337 77.8098653,96.1498596 C78.1296941,96.0173822 78.338228,95.7052891 78.338228,95.3591089 C78.338228,94.886407 77.9550274,94.5032064 77.4823256,94.5032064 L77.4823256,94.5032064 Z"/>
    <circle cx="80.211" cy="95.359" r="1" fill="#FFF"/>
    <circle cx="82.94" cy="95.359" r="1" fill="#FFF"/>
    <path fill="#969EA7" d="M108.85301,100.48451 C112.112297,100.518456 114.738479,103.166753 114.745092,106.42621 L114.745092,106.42621 L114.745092,109.946663 L113.504654,111.201897 L97.9495577,126.868633 L97.9495577,111.660859 C99.6365538,111.512007 101.273932,111.412772 102.911311,111.325941 L102.911311,111.325941 L102.911311,106.42621 C102.918134,103.14753 105.574331,100.491334 108.85301,100.48451 Z M108.85301,102.345168 C106.599113,102.345168 104.771968,104.172313 104.771968,106.42621 L104.771968,106.42621 L104.771968,111.201897 C107.488528,111.115067 110.788094,111.115067 113.504654,111.201897 L112.933558,111.18551 L112.934053,106.42621 C112.934053,104.240612 111.215966,102.456296 109.056696,102.350162 Z"/>
    <path fill="#A1A8B0" d="M149.737857 143.016749L149.737857 143.016749 149.737857 97.5174715C149.734653 95.6122272 149.063014 93.7685109 147.839987 92.3076306 149.063014 93.7685109 149.734653 95.6122272 149.737857 97.5174715L149.737857 143.016749zM146.735997 91.1912361C145.254578 89.9817784 143.401372 89.320232 141.488943 89.3181743L141.488943 89.3181743C143.401372 89.320232 145.254578 89.9817784 146.735997 91.1912361z"/>
    <path fill="#FFF" d="M108.803393,116.893118 C107.967601,116.893118 107.290058,117.570661 107.290058,118.406453 C107.285772,118.805895 107.442215,119.190298 107.724212,119.47323 L107.724212,123.194545 C107.724212,123.79056 108.207378,124.273726 108.803393,124.273726 C109.399408,124.273726 109.882574,123.79056 109.882574,123.194545 L109.882574,119.47323 C110.164571,119.190298 110.321014,118.805895 110.316728,118.406453 C110.316728,117.570661 109.639185,116.893118 108.803393,116.893118 Z"/>
    <path fill="#A1A8B0" d="M108.803393,117.059736 C107.967601,117.059736 107.290058,117.737279 107.290058,118.573071 C107.285772,118.972513 107.442215,119.356916 107.724212,119.639847 L107.724212,123.361162 C107.724212,123.957178 108.207378,124.440344 108.803393,124.440344 C109.399408,124.440344 109.882574,123.957178 109.882574,123.361162 L109.882574,119.639847 C110.164571,119.356916 110.321014,118.972513 110.316728,118.573071 C110.316728,117.737279 109.639185,117.059736 108.803393,117.059736 Z"/>
    <path fill="#FFF" d="M146.016542,97.5174715 L127.112262,97.5174715 L114.707879,109.921855 L114.707879,111.360763 C116.345258,111.447594 117.982636,111.546829 119.669633,111.695681 L119.669633,129.843294 C112.448118,130.488335 105.183477,130.488335 97.9619621,129.843294 L97.9619621,126.903455 L85.6444097,139.307838 L146.016542,139.307838 L146.016542,97.5174715 Z"/>
    <path fill="#E8EAEC" d="M146.016542,97.5174715 L127.112262,97.5174715 L114.707879,109.921855 L114.707879,111.360763 C116.345258,111.447594 117.982636,111.546829 119.669633,111.695681 L119.669633,129.843294 C112.448118,130.488335 105.183477,130.488335 97.9619621,129.843294 L97.9619621,126.903455 L85.6444097,139.307838 L146.016542,139.307838 L146.016542,97.5174715 Z"/>
    <path fill="#B1B7BE" d="M146.016542,97.5174715 C145.989285,95.0746022 143.993947,93.1125197 141.550964,93.1263199 L131.553032,93.1263199 L127.174284,97.5174715 L146.016542,97.5174715 Z"/>
    <path fill="#687480" d="M114.745092,111.360763 L114.745092,109.946663 L97.9495577,126.841433 L97.9495577,129.781272 C105.171072,130.426313 112.435714,130.426313 119.657228,129.781272 L119.657228,111.63366 C118.01985,111.484807 116.382471,111.360763 114.745092,111.360763 Z M109.882574,119.535252 L109.882574,123.256567 C109.882574,123.852582 109.399408,124.335748 108.803393,124.335748 C108.207378,124.335748 107.724212,123.852582 107.724212,123.256567 L107.724212,119.535252 C107.442215,119.25232 107.285772,118.867917 107.290058,118.468475 C107.290058,117.632683 107.967601,116.95514 108.803393,116.95514 C109.639185,116.95514 110.316728,117.632683 110.316728,118.468475 C110.304866,118.846376 110.149645,119.205604 109.882574,119.47323 L109.882574,119.535252 Z"/>
    <path fill="#FFF" d="M83.7341347,39.7750681 C85.5427331,39.7750681 87.0088918,38.3089093 87.0088918,36.5003109 L87.0088918,29.963201 C87.0088918,24.5442565 91.4018143,20.151334 96.8207589,20.151334 C102.239703,20.151334 106.632626,24.5442565 106.632626,29.963201 C106.632626,30.8675002 107.365705,31.6005796 108.270004,31.6005796 L116.456897,31.6005796 C118.197114,31.6005514 119.865518,32.2943866 121.092539,33.5283928 C122.31956,34.762399 123.003914,36.4347146 122.994007,38.1749026 C122.994007,39.0792019 123.727087,39.8122812 124.631386,39.8122812 L145.718837,39.8122812 C148.16403,40.1607024 149.980649,42.2545247 149.980649,44.7244169 C149.980649,47.1943091 148.16403,49.2881315 145.718837,49.6365526 L83.7341347,49.6365526 C81.2889414,49.2881315 79.4723228,47.1943091 79.4723228,44.7244169 C79.4723228,42.2545247 81.2889414,40.1607024 83.7341347,39.8122812 L83.7341347,39.7750681 Z"/>
  </g>
</svg>
