<svg xmlns="http://www.w3.org/2000/svg" width="220" height="204" viewBox="0 0 220 204">
  <g fill="none" fill-rule="evenodd" transform="translate(1)">
    <path fill="#E8EAEC" fill-rule="nonzero" d="M109,-5.1159077e-13 C162.194537,-5.1159077e-13 206.570054,37.7587114 216.786634,87.9362167 L76.7375,87.9375 C42.4363521,87.9375 13.3933197,110.450168 3.57797671,141.50593 C0.599835315,131.525429 -1,120.949545 -1,110 C-1,49.2486775 48.2486775,-5.1159077e-13 109,-5.1159077e-13 Z"/>
    <path fill="#B8055D" fill-rule="nonzero" d="M136.775,108.1875 C138.00411,107.42287 139.620224,107.79754 140.3875,109.025 L166.4,150.7875 C166.844932,151.502076 166.626732,152.442016 165.9125,152.8875 L136.9875,170.9 C136.501035,171.20332 136.225776,171.753836 136.275,172.325 L136.7375,177.2375 C136.785754,177.811872 136.511306,178.365584 136.025,178.675 L120.025,188.675 C119.310424,189.119932 118.370484,188.901732 117.925,188.1875 L115.9625,185.025 L87.3125,139 L136.775,108.1875 Z"/>
    <path fill="#FFF" fill-rule="nonzero" d="M90.1875,38 C90.8006758,38.0067111 91.390872,37.7669514 91.8256523,37.3345213 C92.2604325,36.9020912 92.5033876,36.3132032 92.5,35.7 L92.5,31.125 C92.5000002,27.3280425 95.5780425,24.2500003 99.375,24.2500003 C103.171958,24.2500003 106.25,27.3280425 106.25,31.125 C106.249963,31.7552778 106.757259,32.2681492 107.3875,32.275 L113.1125,32.275 C115.639203,32.275 117.6875,34.3232973 117.6875,36.85 C117.6875,37.154999 117.80866,37.447506 118.024327,37.6631728 C118.239994,37.8788396 118.532501,38 118.8375,38 L133.575,38 C134.850292,37.922992 136.063084,38.5596217 136.724004,39.6530031 C137.384925,40.7463845 137.384925,42.1161155 136.724004,43.2094969 C136.063084,44.3028783 134.850292,44.939508 133.575,44.8625 L90.1875,44.8625 C88.9122085,44.939508 87.699416,44.3028783 87.0384955,43.2094969 C86.3775751,42.1161155 86.3775751,40.7463845 87.0384955,39.6530031 C87.699416,38.5596217 88.9122085,37.922992 90.1875,38 Z"/>
    <ellipse cx="56.513" cy="137.25" fill="#F3F4F5" fill-rule="nonzero" rx="21.512" ry="2.25"/>
    <path fill="#713894" fill-rule="nonzero" d="M75.35,124.1 C75.6720756,123.976096 75.9286001,123.724556 76.0588003,123.404974 C76.1890005,123.085392 76.1812916,122.726202 76.0375,122.4125 L66.725,100.1 C66.6504254,99.9162802 66.5050149,99.7703276 66.3215739,99.6950698 C66.138133,99.6198119 65.9321155,99.621589 65.75,99.7 L50.3,106.15 C50.0384141,106.254729 49.7403937,106.206662 49.525,106.025 L47.6875,104.4375 C47.4698272,104.260867 47.1746684,104.21326 46.9125,104.3125 L38.3625,107.8875 C37.9848227,108.04828 37.8065586,108.482799 37.9625,108.8625 L38.675,110.55 L48.925,135.125 L75.35,124.1 Z"/>
    <path fill="#8241AA" fill-rule="nonzero" d="M47.2375,135.8375 C46.7973975,135.975826 46.3168836,135.860503 45.9875,135.5375 L27.8875,115.8625 C27.74555,115.7485 27.6767837,115.566353 27.7079781,115.386985 C27.7391725,115.207618 27.8653965,115.059382 28.0375,115 L36.5875,111.425 C36.8885437,111.319499 37.2202226,111.346761 37.5,111.5 L40,112.75 C40.281514,112.897352 40.6107043,112.924409 40.9125,112.825 L56.3625,106.375 C56.8003236,106.233462 57.280507,106.343905 57.6125,106.6625 L73.1875,123.575 C73.7396195,124.138012 74.5644367,124.336938 75.3125,124.0875 L75.3125,124.0875 L47.2,135.825"/>
    <path fill="#FFF" fill-rule="nonzero" d="M44,127.475 L39.1125,122.1625 C38.9837775,122.064453 38.9196826,121.903365 38.9458595,121.743686 C38.9720363,121.584007 39.08421,121.451815 39.2375,121.4 L55.9875,114.4 C56.3705612,114.277126 56.7901714,114.378411 57.075,114.6625 L61.9625,119.975 C62.0908061,120.074923 62.1530997,120.237769 62.1242392,120.397814 C62.0953788,120.557858 61.9801273,120.688688 61.825,120.7375 L45.0875,127.75 C44.702305,127.875869 44.2790611,127.768842 44,127.475 L44,127.475 Z"/>
    <path fill="#969EA7" fill-rule="nonzero" d="M43.95 123.425C43.7233734 123.425063 43.5199097 123.286112 43.4375 123.075 43.3793496 122.937433 43.3782962 122.782387 43.434572 122.644042 43.4908479 122.505697 43.5998324 122.395413 43.7375 122.3375L48.575 120.325C48.8614977 120.204188 49.1916877 120.338502 49.3125 120.625 49.4333122 120.911498 49.2989977 121.241688 49.0125 121.3625L44.175 123.375C44.1050748 123.409412 44.0279184 123.426558 43.95 123.425L43.95 123.425zM45.3875 124.975C45.1563248 124.980296 44.9465251 124.840429 44.8625 124.625 44.7510983 124.338543 44.8902532 124.015704 45.175 123.9L54.8875 119.8375C55.1739977 119.716688 55.5041877 119.851002 55.625 120.1375 55.7458122 120.423998 55.6114977 120.754188 55.325 120.875L45.6 124.9375C45.5320894 124.963013 45.4600411 124.975727 45.3875 124.975L45.3875 124.975z"/>
    <ellipse cx="151.25" cy="96.3" fill="#F3F4F5" fill-rule="nonzero" rx="14.662" ry="2"/>
    <ellipse cx="119.237" cy="197.825" fill="#F3F4F5" fill-rule="nonzero" rx="33.925" ry="3.55"/>
    <ellipse cx="192.287" cy="197.463" fill="#F3F4F5" fill-rule="nonzero" rx="20.238" ry="2.125"/>
    <path fill="#969EA7" fill-rule="nonzero" d="M135.483281,140.712683 C138.321228,128.966278 149.757279,121.412525 161.675,123.4125 C173.446485,125.44962 181.707705,136.147116 180.702414,148.051195 C180.166086,154.402082 177.087198,159.97209 172.517277,163.792023 L191.8625,191.075 C192.142516,191.461256 192.255257,191.943972 192.175301,192.414301 C192.095345,192.88463 191.829424,193.302974 191.4375,193.575 C191.136172,193.780913 190.7773,193.885949 190.4125,193.875 C189.836565,193.873196 189.296783,193.593998 188.9625,193.125 L169.625539,165.853743 C166.165173,167.939347 162.119338,169.137898 157.8125,169.150333 C155.46065,169.162991 153.12216,168.795755 150.8875,168.0625 C139.371254,164.400797 132.645333,152.459088 135.483281,140.712683 Z M157.7625,126.64998 L156.85,126.64998 C146.919186,127.138884 138.948886,135.025674 138.355432,144.950787 C137.761978,154.875901 144.735698,163.656241 154.5375,165.325 C154.7375,165.4 154.95,165.4 155.15,165.4 C165.566126,166.832747 175.242652,159.74953 177.025,149.3875 C178.804687,138.784462 171.672117,128.739612 161.075,126.925 C159.980522,126.740416 158.872432,126.648424 157.7625,126.64998 L157.7625,126.64998 Z"/>
    <path fill="#F3F4F5" fill-rule="nonzero" d="M51.55,56.6375 C52.6890873,56.6375 53.6125,55.7140873 53.6125,54.575 L53.6125,50.45 C53.5101841,48.1753402 54.665435,46.0282825 56.6200608,44.8603855 C58.5746867,43.6924886 61.0128133,43.6924886 62.9674392,44.8603855 C64.922065,46.0282825 66.0773159,48.1753402 65.975,50.45 C65.9818452,51.0181079 66.4443508,51.4750412 67.0125,51.475 L72.1625,51.475 C74.4406746,51.475 76.2875,53.3218254 76.2875,55.6 C76.2874588,56.1681492 76.7443921,56.6306548 77.3125,56.6375 L90.575,56.6375 C92.2801792,56.6375 93.6625,58.0198208 93.6625,59.725 C93.6625,61.4301792 92.2801792,62.8125 90.575,62.8125 L51.55,62.8125 C50.4469424,62.8125 49.4276752,62.2240259 48.8761464,61.2687501 C48.3246176,60.3134742 48.3246176,59.1365258 48.8761464,58.1812499 C49.4276752,57.2259741 50.4469424,56.6374999 51.55,56.6375 L51.55,56.6375 Z"/>
    <path fill="#FFF" fill-rule="nonzero" d="M158.8625,163.7375 C158.804525,164.022138 158.867057,164.318075 159.035223,164.554929 C159.203389,164.791783 159.462163,164.948389 159.75,164.9875 L159.9,164.9875 C160.417218,164.987574 160.857454,164.610986 160.9375,164.1 L161.3,161.6 L158.975,163.05 L158.8625,163.7375 Z" opacity=".5"/>
    <path d="M155.9,152.75 C155.864773,153.02553 155.941503,153.303679 156.113013,153.522178 C156.284523,153.740677 156.536488,153.881276 156.8125,153.9125 L156.9375,153.9125 C157.46503,153.916341 157.911454,153.523703 157.975,153 L160.475,132.5625 L172.3375,151.5 C172.726073,152.110122 172.85358,152.850648 172.691442,153.555594 C172.529305,154.260541 172.091083,154.870948 171.475,155.25 L161.25,161.575 L164.1125,141.9625 C164.16609,141.59407 164.019054,141.225036 163.726779,140.994411 C163.434504,140.763786 163.041394,140.706606 162.695529,140.844411 C162.349664,140.982216 162.10359,141.29407 162.05,141.6625 L158.925,163.025 L155.1,165.4 C165.731481,167.036143 175.676356,159.743981 177.3125,149.1125 C178.948643,138.481019 171.656481,128.536144 161.025,126.9 C159.930522,126.715416 158.822432,126.623424 157.7125,126.62498 L156.8,126.62498 L158.725,129.7125 L155.9,152.75 Z"/>
    <path d="M138.6,142.8375 C136.789654,153.451304 143.924282,163.52372 154.5375,165.3375 C154.7375,165.3375 154.95,165.3375 155.15,165.4125 L158.975,163.0375 L162.1,141.675 C162.15359,141.30657 162.399664,140.994716 162.745529,140.856911 C163.091394,140.719106 163.484504,140.776286 163.776779,141.006911 C164.069054,141.237536 164.21609,141.60657 164.1625,141.975 L161.25,161.575 L171.425,155.2375 C172.041083,154.858448 172.479305,154.248041 172.641442,153.543094 C172.80358,152.838148 172.676073,152.097622 172.2875,151.4875 L160.475,132.5125 L157.975,152.95 C157.911454,153.473703 157.46503,153.866341 156.9375,153.8625 L156.8125,153.8625 C156.536488,153.831276 156.284523,153.690677 156.113013,153.472178 C155.941503,153.253679 155.864773,152.97553 155.9,152.7 L158.775,129.7125 L156.85,126.625 C147.722134,127.070544 140.131807,133.803059 138.6,142.8125 L138.6,142.8375 Z"/>
    <path fill="#EC0677" fill-rule="nonzero" d="M84.15,140.95 C83.3955574,141.493037 83.0248877,142.424588 83.2,143.3375 L94.45,196.5875 C94.4738437,196.960557 94.6965323,197.291943 95.0329298,197.454966 C95.3693273,197.61799 95.7674149,197.587441 96.075,197.375 L112.075,187.375 C112.606638,186.998849 112.959421,186.419922 113.05,185.775 L113.95,180.025 C114.043405,179.381093 114.395559,178.803198 114.925,178.425 L143.8375,160.425 C144.596634,159.885091 144.972416,158.952956 144.8,158.0375 L135.125,112.3 C134.839022,110.725992 135.480418,109.127362 136.775,108.1875 L136.775,108.1875 L84.15,140.95"/>
    <path fill="#FFF" fill-rule="nonzero" d="M94.1875,156.175 L97.225,170.55 C97.2406894,170.879713 97.4356123,171.174383 97.7329075,171.317814 C98.0302027,171.461246 98.3821612,171.430424 98.65,171.2375 L130,151.725 C130.668545,151.244876 130.9997,150.421859 130.85,149.6125 L127.8125,135.25 C127.792521,134.922537 127.595939,134.631886 127.299448,134.491443 C127.002957,134.351 126.653533,134.383016 126.3875,134.575 L95,154.075 C94.3450556,154.558369 94.0284433,155.37669 94.1875,156.175 L94.1875,156.175 Z"/>
    <path fill="#969EA7" fill-rule="nonzero" d="M101.7875,162.850003 C101.274045,162.851201 100.822004,162.511878 100.679797,162.018507 C100.53759,161.525136 100.739677,160.997271 101.175,160.725 L110.2375,155.0875 C110.494042,154.925279 110.804778,154.872316 111.100574,154.940396 C111.396369,155.008476 111.652687,155.191951 111.8125,155.45 C111.975328,155.708483 112.028617,156.021131 111.960609,156.318958 C111.892601,156.616785 111.708886,156.875314 111.45,157.0375 L102.4,162.675 C102.214372,162.78525 102.003354,162.845541 101.7875,162.850003 Z"/>
    <path fill="#F89BC9" fill-rule="nonzero" d="M159.686522 129.567902L159.803093 129.575472C160.312099 129.638027 160.684526 130.072741 160.681217 130.573412L160.673647 130.689983 157.931202 153.005187C157.863835 153.553347 157.364852 153.943108 156.816691 153.875741 156.307685 153.813186 155.935258 153.378472 155.938567 152.877801L155.946136 152.76123 158.688582 130.446027C158.751137 129.937021 159.185851 129.564594 159.686522 129.567902zM163.3215 140.736543C163.828728 140.812181 164.189839 141.256339 164.17362 141.756759L164.163074 141.873097 160.969195 163.291144C160.887739 163.837389 160.378887 164.214174 159.832642 164.132718 159.325415 164.05708 158.964303 163.612922 158.980522 163.112502L158.991068 162.996164 162.184947 141.578117C162.260585 141.07089 162.704743 140.709778 163.205162 140.725997L163.3215 140.736543z"/>
    <path fill="#969EA7" fill-rule="nonzero" d="M100.9 158.6375C100.502911 158.64298 100.132351 158.438697 99.925 158.1 99.7621723 157.841517 99.7088832 157.528869 99.776891 157.231042 99.8448988 156.933215 100.028614 156.674686 100.2875 156.5125L118.4875 145.25C118.835834 145.026709 119.276832 145.006214 119.644375 145.196234 120.011917 145.386255 120.250166 145.757923 120.269375 146.171234 120.288583 146.584546 120.085834 146.976709 119.7375 147.2L101.55 158.525C101.34969 158.627352 101.123058 158.666577 100.9 158.6375L100.9 158.6375zM141.9 94.7625C141.920115 95.2448533 142.317228 95.6254192 142.8 95.6250003L159.275 95.3125C159.555143 95.2991449 159.775318 95.0679605 159.775 94.7875L159.5625 83.3875C159.55308 83.1921242 159.661348 83.0100358 159.8375 82.925L161.2875 82.15C161.461665 82.0693376 161.57017 81.8917841 161.5625 81.7L161.45 75.45C161.446725 75.3140632 161.389563 75.1849999 161.291097 75.0912232 161.192631 74.9974465 161.060935 74.9466441 160.925 74.9498437L159.675 74.9498437 141.5375 75.25 141.9 94.7625z"/>
    <path fill="#C5C9CE" fill-rule="nonzero" d="M141.5125,74 C141.528861,73.6892882 141.72389,73.4162479 142.0125,73.3 L159.0125,66.7375 C159.3,66.6375 159.525,66.7375 159.5375,67.05 L159.65,73.3625 C159.643094,73.5807242 159.542972,73.785519 159.375,73.925 L157.925,75.25 C157.760373,75.3907929 157.664661,75.5958897 157.6625,75.8125 L157.875,87.2125 C157.854534,87.5247607 157.66169,87.7995636 157.375,87.925 L142.7625,93.55 C142.256407,93.7635191 141.919995,94.2510732 141.9,94.8 L141.9,94.8 L141.5125,74"/>
    <path fill="#FFF" fill-rule="nonzero" d="M147.625,74 L152.2125,72.2375 C152.4625,72.1375 152.6625,72.2375 152.6625,72.5125 L152.9,84.875 C152.884433,85.1494226 152.715018,85.3914435 152.4625,85.5 L147.875,87.275 C147.776067,87.3292687 147.655561,87.3259874 147.559728,87.2664154 C147.463895,87.2068434 147.40762,87.1002343 147.4125,86.9875 L147.1875,74.625 C147.197019,74.3485184 147.368477,74.1035782 147.625,74 Z"/>
    <path fill="#969EA7" fill-rule="nonzero" d="M150.625 79.125C150.523396 79.1283887 150.42477 79.090381 150.351717 79.0196842 150.278664 78.9489874 150.237444 78.8516603 150.2375 78.75L150.175 75.175C150.171611 75.0733962 150.209619 74.9747702 150.280316 74.9017169 150.351013 74.8286636 150.44834 74.7874435 150.55 74.7874999 150.759222 74.7873911 150.930751 74.9533865 150.9375 75.1625L151.0125 78.7375C151.0125 78.9515103 150.83901 79.125 150.625 79.125L150.625 79.125zM149.35 83.25C149.248396 83.2533887 149.14977 83.215381 149.076717 83.1446842 149.003664 83.0739874 148.962444 82.9766603 148.9625 82.875L148.825 75.7C148.824587 75.488492 148.988905 75.3132189 149.2 75.3 149.413565 75.3060868 149.587138 75.4742358 149.6 75.6875L149.7375 82.8625C149.7375 83.0765103 149.56401 83.25 149.35 83.25L149.35 83.25z"/>
  </g>
</svg>
