<svg xmlns="http://www.w3.org/2000/svg" xmlns:xlink="http://www.w3.org/1999/xlink" width="120" height="120" viewBox="0 0 141 139">
  <defs>
    <linearGradient id="grow-your-email-list-b" x1="12.269%" x2="95.741%" y1="54.442%" y2="46.56%">
      <stop offset="0%" stop-color="#FFF" stop-opacity=".798"/>
      <stop offset="100%"/>
    </linearGradient>
    <path id="grow-your-email-list-a" d="M130.366103,68.1336879 C128.086469,68.1345755 126.143482,66.2997994 126.167077,63.9968017 C126.22331,58.5080926 135.560189,59.7658247 135.99951,59.673953 C144.455112,59.4857715 150.497087,52.6930407 150.497087,44.3287281 C150.497087,36.0021406 143.642369,29.1801174 135.362934,29.1827803 L59.0705329,29.2151795 C50.790659,29.2178424 44.1815211,36.0682704 44.1815211,44.432583 C44.1815211,52.7121252 50.5648483,59.4857715 58.8442828,59.4857715 C59.7251204,60.3734201 61.3422593,60.7888397 61.3431379,63.7318386 C61.3435772,65.2164308 60.9323732,66.1608889 60.401674,66.8102038 C59.6978826,67.6716668 58.6110036,68.1185979 57.5052338,68.1203732 L31.8946048,68.1443397 C23.6151703,68.1470026 16.9436489,74.9361828 16.9436489,83.3004954 C16.9436489,91.7238367 23.7346655,98.5822535 32.0351874,98.5795905 L57.841314,98.5738208 C59.8815185,98.5729332 61.5957472,100.208426 61.6163953,102.269102 C61.6177132,105.841887 59.1184188,106.333645 58.6790983,106.425516 L49.8926879,106.974971 C41.7933748,106.974971 35.0216883,113.576857 35.0243242,121.94117 C35.0269601,130.305926 41.8034792,137.023651 50.0829137,137.020988 L128.73183,136.936661 C137.011265,136.933998 143.783391,130.315247 143.780755,121.950934 C143.778119,113.586621 137.0016,106.974971 128.722165,106.974971 C127.841328,106.531147 126.224628,105.643498 126.22331,102.700499 C126.242201,100.431225 128.062306,98.6798948 130.239578,98.6723498 L155.054598,98.6084391 C163.334032,98.6057762 169.82719,91.619538 169.82719,83.2552254 C169.82719,74.9286378 163.324367,68.1252552 155.044933,68.1279182 L130.366103,68.1336879 Z"/>
    <path id="grow-your-email-list-d" d="M0,25.1875 L5.8125,21.3125 L5.8125,0 L75.5625,0 L75.5625,17.4375 L63.9375,17.4375 L69.5790441,25.1875 L69.5790441,73.5886304 C69.5790441,74.1409152 69.1313289,74.5886304 68.5790441,74.5886304 L1,74.5886304 C0.44771525,74.5886304 6.76353751e-17,74.1409152 0,73.5886304 L0,25.1875 Z"/>
    <path id="grow-your-email-list-f" d="M0.559180225,20.8099388 L34.7895221,3.99901534 L69.0198639,20.8099388 C69.3621565,20.9780428 69.5790441,21.3261905 69.5790441,21.7075345 L69.5790441,67.7779937 C69.5790441,68.3302784 69.1313289,68.7779937 68.5790441,68.7779937 L1,68.7779937 C0.44771525,68.7779937 6.76353751e-17,68.3302784 0,67.7779937 L8.8817842e-16,21.7075345 C8.41477257e-16,21.3261905 0.216887574,20.9780428 0.559180225,20.8099388 Z M71.5882334,5.2215064 C71.5882334,5.22308419 71.5882334,6.29385657 71.5882334,8.43382353 L61.1452206,8.43382353 C61.1452206,6.29422853 61.1452206,5.22345615 61.1452206,5.2215064 C61.1452206,2.33774804 63.4829686,-3.55271368e-15 66.366727,-3.55271368e-15 C69.2504853,-3.55271368e-15 71.5882334,2.33774804 71.5882334,5.2215064 Z"/>
    <path id="grow-your-email-list-h" d="M69.4963235,46.5 L126.546417,46.5 L124.11998,46.570996 C122.497987,46.6184545 121.207721,47.9470252 121.207721,49.5697126 L121.207721,92.8860294 L68.4963235,92.8860294 L68.4963235,47.5 C68.4963235,46.9477153 68.9440388,46.5 69.4963235,46.5 Z"/>
    <path id="grow-your-email-list-j" d="M1.453125,0 L35.359375,0 C36.1619138,-1.47423982e-16 36.8125,0.650586223 36.8125,1.453125 C36.8125,2.25566378 36.1619138,2.90625 35.359375,2.90625 L1.453125,2.90625 C0.650586223,2.90625 9.82826545e-17,2.25566378 0,1.453125 C-9.82826545e-17,0.650586223 0.650586223,1.47423982e-16 1.453125,0 Z M1.453125,7.75 L35.359375,7.75 C36.1619138,7.75 36.8125,8.40058622 36.8125,9.203125 C36.8125,10.0056638 36.1619138,10.65625 35.359375,10.65625 L1.453125,10.65625 C0.650586223,10.65625 9.82826545e-17,10.0056638 0,9.203125 C-9.82826545e-17,8.40058622 0.650586223,7.75 1.453125,7.75 Z M1.453125,15.5 L35.359375,15.5 C36.1619138,15.5 36.8125,16.1505862 36.8125,16.953125 C36.8125,17.7556638 36.1619138,18.40625 35.359375,18.40625 L1.453125,18.40625 C0.650586223,18.40625 9.82826545e-17,17.7556638 0,16.953125 C-9.82826545e-17,16.1505862 0.650586223,15.5 1.453125,15.5 Z"/>
    <path id="grow-your-email-list-l" d="M0,0 L34.7895221,25.1454757 L69.5790441,0 L69.5790441,45.2457733 C69.5790441,45.7980581 69.1313289,46.2457733 68.5790441,46.2457733 L1,46.2457733 C0.44771525,46.2457733 6.76353751e-17,45.7980581 0,45.2457733 L0,0 Z"/>
    <polygon id="grow-your-email-list-n" points="25.188 .72 .142 24.71 .142 27.655 69.524 27.655 69.524 24.71 44.563 .72 34.833 8.47"/>
    <path id="grow-your-email-list-p" d="M37.9426972,0.200768832 L72.9359154,27.0163932 C73.3742878,27.352322 73.4573347,27.980017 73.121406,28.4183894 C72.9321694,28.6653348 72.6387776,28.8101366 72.3276626,28.8101366 L1.07688512,28.8101366 C0.52460037,28.8101366 0.0768851194,28.3624213 0.0768851194,27.8101366 C0.0768851194,27.4987898 0.221901576,27.2052068 0.469155832,27.0159923 L35.5107329,0.199967008 C36.2284553,-0.349279448 37.2253371,-0.348950774 37.9426972,0.200768832 Z"/>
    <circle id="grow-your-email-list-r" cx="14.531" cy="14.531" r="14.531"/>
  </defs>
  <g id="Page---Blog" fill="none" fill-rule="evenodd">
    <g id="Page---Blog-Post---V1" transform="translate(-879 -5629)">
      <g id="Section---Content" transform="translate(281 939)">
        <g id="Content-Upgrade" transform="translate(79 4598)">
          <g id="Sets-/-Features-/-Content-Upgrade-Triggers" transform="translate(468 44)">
            <g id="Grow-Your-Email-List">
              <g id="Bkg" opacity=".35">
                <g id="background" transform="rotate(-27 177.81 41.998)">
                  <mask id="grow-your-email-list-c" fill="#fff">
                    <use xlink:href="#grow-your-email-list-a"/>
                  </mask>
                  <use id="Fill-1" fill="url(#grow-your-email-list-b)" xlink:href="#grow-your-email-list-a"/>
                  <g id="Colors-/-Base-/-Blue-/-1.2-Blue" fill="#5457FF" mask="url(#grow-your-email-list-c)" style="mix-blend-mode:screen">
                    <rect id="Colors-/-1.2-Blue" width="186" height="167"/>
                  </g>
                </g>
              </g>
              <g id="mail" transform="translate(86.063 76.688)">
                <mask id="grow-your-email-list-e" fill="#fff">
                  <use xlink:href="#grow-your-email-list-d"/>
                </mask>
                <g id="Group-5" mask="url(#grow-your-email-list-e)">
                  <g transform="translate(0 5.813)">
                    <mask id="grow-your-email-list-g" fill="#fff">
                      <use xlink:href="#grow-your-email-list-f"/>
                    </mask>
                    <use id="Combined-Shape" fill="#4680FF" xlink:href="#grow-your-email-list-f"/>
                    <g id="Colors-/-Base-/-Blue-/-1.3-Blue" mask="url(#grow-your-email-list-g)">
                      <rect id="Colors-/-1.3-Blue" width="188" height="169" fill="#5C6FFF" transform="translate(-60.063 -48.438)"/>
                    </g>
                  </g>
                </g>
                <g id="Group" mask="url(#grow-your-email-list-e)">
                  <g transform="translate(-60.063 -40.688)">
                    <mask id="grow-your-email-list-i" fill="#fff">
                      <use xlink:href="#grow-your-email-list-h"/>
                    </mask>
                    <use id="Rectangle-2" fill="#D7E3FF" xlink:href="#grow-your-email-list-h"/>
                    <g id="Colors-/-Base-/-Blue-/-1.6-Blue" mask="url(#grow-your-email-list-i)">
                      <rect id="Colors-/-1.6-Blue" width="186" height="167" fill="#D9E4FF"/>
                    </g>
                  </g>
                </g>
                <g id="Group-6" mask="url(#grow-your-email-list-e)">
                  <g transform="translate(17.438 17.438)">
                    <mask id="grow-your-email-list-k" fill="#fff">
                      <use xlink:href="#grow-your-email-list-j"/>
                    </mask>
                    <use fill="#99B9FF" xlink:href="#grow-your-email-list-j"/>
                    <g id="Colors-/-Base-/-Blue-/-1.5-Blue" mask="url(#grow-your-email-list-k)">
                      <rect id="Colors-/-1.5-Blue" width="186" height="169" fill="#9DB8FA" transform="translate(-77.5 -58.125)"/>
                    </g>
                  </g>
                </g>
                <g id="Path-2" mask="url(#grow-your-email-list-e)">
                  <g transform="translate(-1.938 28.343)">
                    <g id="Group-4" transform="translate(1.938)">
                      <mask id="grow-your-email-list-m" fill="#fff">
                        <use xlink:href="#grow-your-email-list-l"/>
                      </mask>
                      <use fill="#99B9FF" xlink:href="#grow-your-email-list-l"/>
                      <g fill="#9DB8FA" mask="url(#grow-your-email-list-m)">
                        <rect width="188" height="169" transform="translate(-62 -69.75)"/>
                      </g>
                    </g>
                    <g id="Group-2" transform="translate(1.938 17.438)">
                      <mask id="grow-your-email-list-o" fill="#fff">
                        <use xlink:href="#grow-your-email-list-n"/>
                      </mask>
                      <use fill="#4680FF" opacity=".345" xlink:href="#grow-your-email-list-n"/>
                      <g id="Colors-/-Base-/-Blue-/-1.4-Blue" fill="#7A97FF" mask="url(#grow-your-email-list-o)">
                        <rect id="Colors-/-1.4-Blue" width="186" height="169" transform="translate(-60.063 -87.188)"/>
                      </g>
                    </g>
                    <g id="Group-3" transform="translate(0 17.438)">
                      <mask id="grow-your-email-list-q" fill="#fff">
                        <use xlink:href="#grow-your-email-list-p"/>
                      </mask>
                      <use id="Rectangle" fill="#99B9FF" xlink:href="#grow-your-email-list-p"/>
                      <g fill="#9DB8FA" mask="url(#grow-your-email-list-q)">
                        <rect width="186" height="169" transform="translate(-58.125 -87.188)"/>
                      </g>
                    </g>
                  </g>
                </g>
              </g>
              <g id="up" transform="translate(134.5 130.938)">
                <mask id="grow-your-email-list-s" fill="#fff">
                  <use xlink:href="#grow-your-email-list-r"/>
                </mask>
                <use id="Oval-8" fill="#13B286" xlink:href="#grow-your-email-list-r"/>
                <g id="Colors-/-Base-/-Blue-/-1.1-Blue" fill="#4A47D5" mask="url(#grow-your-email-list-s)">
                  <rect id="Colors-/-1.1-Blue" width="29" height="29"/>
                </g>
                <g id="arrow" stroke="#ECF2FF" stroke-linecap="round" stroke-width=".875" transform="translate(9.881 8.525)">
                  <path id="Line" d="M4.84375,11.625 L4.84375,1.9375"/>
                  <polyline id="Path-4" stroke-linejoin="round" points="0 4.844 4.772 0 9.688 4.844"/>
                </g>
              </g>
            </g>
          </g>
        </g>
      </g>
    </g>
  </g>
</svg>
