<svg xmlns="http://www.w3.org/2000/svg" width="200" height="230" viewBox="0 0 220 204">
  <g fill="none">
    <path fill="#E8EAEC" d="M110,-3.45612428e-13 C170.751322,-3.45612428e-13 220,49.2486775 220,110 C220,127.491863 215.917227,144.030144 208.652655,158.713867 C199.643049,148.450399 188.912539,139.567065 176.731002,132.534051 C137.463673,109.863048 89.0843287,109.863048 49.8169998,132.534051 C35.7684458,140.644988 23.64979,151.216894 13.8783005,163.527038 C5.0382069,147.68538 -1.66422431e-13,129.431058 -1.66422431e-13,110 C-1.66422431e-13,49.2486775 49.2486775,-3.45612428e-13 110,-3.45612428e-13 Z"/>
    <path fill="#FFF" d="M87.8788007,67.6544005 C86.5881957,67.6207797 85.5595628,66.5646432 85.5600007,65.2736005 L85.5600007,60.5368005 C85.5600007,56.6058585 82.3733426,53.4192004 78.4424006,53.4192004 C74.5114586,53.4192004 71.3248005,56.6058585 71.3248005,60.5368005 C71.3248005,61.2216336 70.7696336,61.7768005 70.0848005,61.7768005 L64.1452005,61.7768005 C61.5271335,61.7836362 59.4083915,63.9079246 59.4084005,66.5260005 C59.4084005,67.2108336 58.8532335,67.7660005 58.1684004,67.7660005 L42.9536003,67.7660005 C40.9881293,67.7660005 39.3948003,69.3593296 39.3948003,71.3248005 C39.3948003,73.2902715 40.9881293,74.8836006 42.9536003,74.8836006 L87.8788007,74.8836006 C89.8442717,74.8836006 91.4376007,73.2902715 91.4376007,71.3248005 C91.4376007,69.3593296 89.8442717,67.7660005 87.8788007,67.7660005 L87.8788007,67.6544005 Z"/>
    <ellipse cx="60.822" cy="196.131" fill="#F3F4F5" rx="23.3" ry="3.162"/>
    <path fill="#F3F4F5" d="M145.873601,45.2848003 C144.826469,45.2849965 143.971868,44.4469361 143.951601,43.4000003 L143.951601,39.5560003 C143.951601,36.3715264 141.370075,33.7900003 138.185601,33.7900003 C135.001127,33.7900003 132.419601,36.3715264 132.419601,39.5560003 C132.412918,40.0805288 131.989329,40.5041176 131.464801,40.5108003 L126.653601,40.5108003 C124.530618,40.5108003 122.809601,42.2318177 122.809601,44.3548003 C122.809644,44.8841649 122.384122,45.3152136 121.854801,45.3220003 L109.454801,45.3220003 C107.935845,45.4216709 106.754777,46.6827783 106.754777,48.2050004 C106.754777,49.7272224 107.935845,50.9883298 109.454801,51.0880004 L145.848801,51.0880004 C146.923925,51.1585477 147.948984,50.6249997 148.507952,49.703901 C149.066919,48.7828024 149.066919,47.6271984 148.507952,46.7060997 C147.948984,45.785001 146.923925,45.2514531 145.848801,45.3220003 L145.873601,45.2848003 Z"/>
    <rect width="17.385" height="16.951" x="83.032" y="137.137" fill="#EC0677" transform="rotate(-72.27 91.724 145.612)"/>
    <rect width="16.999" height="17.434" x="26.97" y="107.974" fill="#B1B7BE" transform="rotate(-16.809 35.47 116.692)"/>
    <rect width="16.951" height="53.506" x="119.92" y="106.293" fill="#B1B7BE"/>
    <rect width="16.951" height="46.55" x="140.79" y="113.249" fill="#EC0677"/>
    <rect width="16.951" height="70.891" x="161.659" y="88.896" fill="#B1B7BE"/>
    <path fill="#EC0677" d="M170.537201 59.6564005C172.557459 59.6564005 174.195201 61.2941429 174.195201 63.3144005 174.195201 65.3346581 172.557459 66.9724005 170.537201 66.9724005 170.111551 66.9724005 169.70288 66.8996998 169.32293 66.7660383 169.285066 66.8332017 169.238631 66.8983206 169.185601 66.9600005L151.999201 86.9984007C151.948614 87.0579478 151.893214 87.1123225 151.833824 87.1611529 152.113362 87.6751209 152.272001 88.2668347 152.272001 88.8956007 152.272001 90.9158583 150.634259 92.5536007 148.614001 92.5536007 146.593744 92.5536007 144.956001 90.9158583 144.956001 88.8956007L144.960336 89.0832673C144.916958 89.0726531 144.874115 89.0596862 144.832001 89.0444007L129.716401 84.0100006C129.650659 83.9707737 129.589324 83.9266262 129.532652 83.8782622 128.864248 84.7142484 127.83389 85.2500007 126.678401 85.2500007 126.020021 85.2500007 125.402265 85.0760663 124.868579 84.7716417 124.828215 84.8223441 124.781998 84.8702625 124.731601 84.9152007L108.413201 98.5552008C108.353098 98.6082707 108.288425 98.6550131 108.220211 98.695056 108.345254 99.0624717 108.413201 99.4581013 108.413201 99.8696008 108.413201 101.889858 106.775458 103.527601 104.755201 103.527601 102.734943 103.527601 101.097201 101.889858 101.097201 99.8696008 101.097201 97.8493431 102.734943 96.2116007 104.755201 96.2116007 105.399206 96.2116007 106.004341 96.3780228 106.529946 96.6702066 106.58032 96.6080653 106.638209 96.5499105 106.702001 96.4968007L123.020401 82.8568006C123.079153 82.8113063 123.140529 82.7714477 123.20387 82.7371527 123.084828 82.3783527 123.020401 81.9927006 123.020401 81.5920006 123.020401 79.571743 124.658143 77.9340006 126.678401 77.9340006 128.698659 77.9340006 130.336401 79.571743 130.336401 81.5920006L130.334513 81.522391C130.408635 81.5186568 130.483873 81.5210614 130.559601 81.5300006L145.675201 86.5768007 145.758001 86.6097298C146.428378 85.7732366 147.458637 85.2376007 148.614001 85.2376007 149.042259 85.2376007 149.453327 85.3111946 149.83525 85.4464255 149.874664 85.3781061 149.923044 85.3119563 149.978001 85.2500007L167.152001 65.2116005C167.203383 65.1518378 167.258884 65.0977121 167.317725 65.0492824 167.037768 64.5346122 166.879201 63.943024 166.879201 63.3144005 166.879201 61.2941429 168.516944 59.6564005 170.537201 59.6564005zM193.006001 161.125601L82.3980006 161.125601C81.8910687 161.174551 81.4002469 160.931726 81.1315831 160.499065 80.8629193 160.066403 80.8629193 159.518799 81.1315831 159.086138 81.4002469 158.653477 81.8910687 158.410652 82.3980006 158.459601L193.006001 158.459601C193.512933 158.410652 194.003755 158.653477 194.272419 159.086138 194.541083 159.518799 194.541083 160.066403 194.272419 160.499065 194.003755 160.931726 193.512933 161.174551 193.006001 161.125601z"/>
    <rect width="16.951" height="34.782" x="47.937" y="165.618" fill="#B1B7BE" transform="rotate(-79.53 56.413 183.01)"/>
  </g>
</svg>
