<?xml version="1.0" encoding="UTF-8"?>
<svg width="160px" height="149px" viewBox="0 0 160 149" version="1.1" xmlns="http://www.w3.org/2000/svg" xmlns:xlink="http://www.w3.org/1999/xlink">
    <!-- Generator: Sketch 61 (89581) - https://sketch.com -->
    <title>Illustration</title>
    <desc>Created with Sketch.</desc>
    <defs>
        <path d="M3.53099736,39.9451019 L9.75321958,39.9451019 L7.23567458,47.0226033 C7.11906629,47.3504208 6.758788,47.5216397 6.43097049,47.4050315 C6.25247829,47.3415398 6.11203399,47.2010955 6.04854236,47.0226033 L3.53099736,39.9451019 L3.53099736,39.9451019 Z" id="path-1"></path>
    </defs>
    <g id="All-settings-screens-30/09" stroke="none" stroke-width="1" fill="none" fill-rule="evenodd">
        <g id="Template---Empty" transform="translate(-583.000000, -294.000000)">
            <g id="Group-20" transform="translate(444.000000, 296.000000)">
                <g id="Illustration" transform="translate(138.000000, -0.000000)">
                    <g id="illustration/product/device/17-document-invoice" transform="translate(55.000000, 28.000482)">
                        <path d="M1.70530257e-13,1 L1.70530257e-13,90.7908501 C1.70530257e-13,96.4297753 4.54846582,101 10.160544,101 L72,101 L72,16.6844744 L56.3913708,1 L1.70530257e-13,1 Z" id="Fill-1" fill="#F3F4F5" fill-rule="evenodd"></path>
                        <polygon id="Fill-3" fill="#C5C9CE" fill-rule="evenodd" points="56 1 56 17 72 17"></polygon>
                        <line x1="26" y1="20.5" x2="38" y2="20.5" id="Stroke-5" stroke="#B83498" stroke-width="2.35294118" stroke-linecap="round" stroke-linejoin="round"></line>
                        <path d="M22,20.5005906 C22,22.9859562 19.9847749,25 17.4994094,25 C15.0140438,25 13,22.9859562 13,20.5005906 C13,18.0152251 15.0140438,16 17.4994094,16 C19.9847749,16 22,18.0152251 22,20.5005906" id="Fill-7" fill="#B83498" fill-rule="evenodd"></path>
                        <polygon id="Fill-12" fill="#C5C9CE" fill-rule="evenodd" points="47 82 67 82 67 75 47 75"></polygon>
                        <polygon id="Fill-13" fill="#DCDFE1" fill-rule="evenodd" points="7 82 45 82 45 75 7 75"></polygon>
                        <polygon id="Fill-14" fill="#DCDFE1" fill-rule="evenodd" points="47 68 67 68 67 61 47 61"></polygon>
                        <polygon id="Fill-15" fill="#DCDFE1" fill-rule="evenodd" points="7 68 45 68 45 61 7 61"></polygon>
                        <polygon id="Fill-16" fill="#DCDFE1" fill-rule="evenodd" points="7 53 45 53 45 46 7 46"></polygon>
                        <polygon id="Fill-17" fill="#DCDFE1" fill-rule="evenodd" points="47 53 67 53 67 46 47 46"></polygon>
                    </g>
                    <g id="illustration/product/device/53-pens-cup-pencil-holder" transform="translate(0.000000, 71.000482)">
                        <g id="Group-2" transform="translate(0.201299, 0.201058)">
                            <g id="Group" transform="translate(9.670823, 25.117585) rotate(-10.000000) translate(-9.670823, -25.117585) translate(4.170823, 0.617585)">
                                <rect id="Rectangle" fill="#E8EAEC" fill-rule="nonzero" x="3.53099736" y="7.27843521" width="6.22222222" height="32.6666667" rx="3.11111111"></rect>
                                <line x1="3.73333333" y1="26.0705128" x2="9.33333333" y2="26.0705128" id="Line" stroke="#969EA7" stroke-width="1.88999995" stroke-linecap="round" stroke-linejoin="round" fill-rule="nonzero"></line>
                                <path d="M6.64210847,0.368178804 C8.05138377,0.368178804 9.22781761,1.44344218 9.35420208,2.84703894 L9.75321958,7.27843521 L9.75321958,7.27843521 L3.53099736,7.27843521 L3.93001486,2.84703894 C4.05639933,1.44344218 5.23283317,0.368178804 6.64210847,0.368178804 Z" id="Rectangle" fill="#EC0677" fill-rule="nonzero"></path>
                                <path d="M10.668316,7.97426971 L3.09782545,7.97426971 C1.70606792,7.97426971 0.577825519,9.10251211 0.577825519,10.4942696 L0.577825519,23.1453622 L0.577825519,23.1453622" id="Path-8" stroke="#969EA7" stroke-width="1.88999995" stroke-linecap="round" stroke-linejoin="round" fill-rule="nonzero"></path>
                                <mask id="mask-2" fill="white">
                                    <use xlink:href="#path-1"></use>
                                </mask>
                                <use id="Mask" fill="#E8EAEC" fill-rule="nonzero" xlink:href="#path-1"></use>
                                <polygon id="Rectangle" fill="#687480" fill-rule="nonzero" mask="url(#mask-2)" points="4.7754418 43.7143326 8.50877514 43.7143326 8.50877514 48.1117685 4.7754418 48.1117685"></polygon>
                            </g>
                            <path d="M61.0902011,72.519335 C61.0902011,74.0739475 51.8447484,75.3339572 40.4405449,75.3339572 C29.0363414,75.3339572 19.7908888,74.0739475 19.7908888,72.519335 C19.7908888,70.9647225 29.0363414,69.7047128 40.4405449,69.7047128 C51.8447484,69.7047128 61.0902011,70.9647225 61.0902011,72.519335" id="Fill-1" fill="#F3F4F5"></path>
                            <polygon id="Fill-4" fill="#D7C4DF" points="17.6063681 19.6191674 21.7791786 67.4772826 28.546926 66.8838382 24.3741154 19.0246632"></polygon>
                            <path d="M42.0673179,17.7377365 L37.8892267,16.614431 L39.1682126,11.8234268 C39.3456442,11.1621601 40.0226302,10.7690032 40.6816618,10.9470365 L42.4728758,11.4281504 C43.1319074,11.605124 43.5237354,12.284406 43.3463039,12.9467324 L42.0673179,17.7377365 Z" id="Fill-5" fill="#F0F1F3"></path>
                            <polygon id="Fill-7" fill="#E8EAEC" points="29.1924389 65.9509647 25.0143477 64.8276592 37.2486775 19.0105689 41.4278249 20.1338744"></polygon>
                            <polygon id="Fill-9" fill="#969EA7" points="41.4278249 20.1334506 37.2486775 19.010145 37.8886986 16.6151728 42.0667898 17.7374186"></polygon>
                            <path d="M13.8010944,61.4802086 L17.7943611,67.7993322 C17.922154,68.0017392 18.2316032,67.9476933 18.283354,67.712435 L19.8823505,60.4045906" id="Stroke-13" stroke="#DECDE4" stroke-width="1.27008" stroke-linecap="round" stroke-linejoin="round"></path>
                            <line x1="19.8821393" y1="60.4050144" x2="13.8008832" y2="61.4806325" id="Stroke-21" stroke="#DECDE4" stroke-width="1.27008" stroke-linecap="round" stroke-linejoin="round"></line>
                            <polyline id="Fill-25" fill="#C5C9CE" points="22.834474 19.1607315 22.4172986 14.375026 18.7282004 14.6982412 19.1453758 19.4850065"></polyline>
                            <line x1="23.9560951" y1="14.2398054" x2="17.1894039" y2="14.8343096" id="Stroke-29" stroke="#8241AA" stroke-width="2.11679999" stroke-linecap="round" stroke-linejoin="round"></line>
                            <polygon id="Fill-31" fill="#8241AA" points="17.6063681 19.6191674 21.7791786 67.4772826 28.546926 66.8838382 24.3741154 19.0246632"></polygon>
                            <path d="M39.7548986,34.208999 L7.11804947,34.208999 L7.11804947,59.8023504 C7.11804947,66.8251296 12.7916354,72.5190171 19.7917337,72.5190171 L27.0812144,72.5190171 C34.0813126,72.5190171 39.7548986,66.8251296 39.7548986,59.8023504 L39.7548986,34.208999 Z" id="Fill-37" fill="#DCDFE1"></path>
                            <path d="M31.6585267,34.208999 L31.6585267,59.3604463 C31.6585267,66.3842851 25.9838846,72.0771129 18.9848425,72.0771129 L16.5272039,72.0771129 C17.5706705,72.3568796 18.6606074,72.5190171 19.7917337,72.5190171 L27.0812144,72.5190171 C34.0813126,72.5190171 39.7548986,66.8261893 39.7548986,59.8023504 L39.7548986,34.208999 L31.6585267,34.208999 Z" id="Fill-39" fill="#C5C9CE"></path>
                        </g>
                    </g>
                    <line x1="146.142647" y1="12.6342885" x2="132.521989" y2="26.2659279" id="Stroke-4" stroke="#ED0677" stroke-width="3.20000005" stroke-linecap="round" stroke-linejoin="round"></line>
                    <line x1="158.766758" y1="40.4526328" x2="139.500389" y2="40.4526328" id="Stroke-6" stroke="#ED0677" stroke-width="3.20000005" stroke-linecap="round" stroke-linejoin="round"></line>
                    <line x1="118.346713" y1="-6.39488462e-14" x2="118.346713" y2="19.2819016" id="Stroke-8" stroke="#ED0677" stroke-width="3.20000005" stroke-linecap="round" stroke-linejoin="round"></line>
                </g>
            </g>
        </g>
    </g>
</svg>