<svg xmlns="http://www.w3.org/2000/svg" width="220" height="204" viewBox="0 0 220 204">
  <g fill="none" transform="translate(-.5)">
    <path fill="#E8EAEC" d="M110.5,-4.54747351e-13 C171.251322,-4.54747351e-13 220.5,49.2486775 220.5,110 C220.5,112.176162 220.436808,114.337564 220.312157,116.482472 L76.0300012,116.481002 C47.729353,116.481002 23.0662673,132.055258 10.143936,155.100578 C3.94712003,141.34012 0.5,126.072619 0.5,110 C0.5,49.2486775 49.7486775,-4.54747351e-13 110.5,-4.54747351e-13 Z"/>
    <polygon fill="#F0F1F3" points="51.725 178.289 41.16 187.354 156.251 182.36 144.664 179.605"/>
    <ellipse cx="183.569" cy="176.542" fill="#F3F4F5" rx="13.481" ry="2.62"/>
    <path fill="#F3F4F5" d="M51.1102008,47.0229007 C51.7125759,47.0229096 52.2901016,46.7827783 52.7148893,46.355682 C53.139677,45.9285857 53.3766746,45.349767 53.3734008,44.7474007 L53.3734008,40.2087006 C53.3734008,36.4453218 56.4242221,33.3945005 60.1876009,33.3945005 C63.9509797,33.3945005 67.001801,36.4453218 67.001801,40.2087006 C67.0085428,40.8356505 67.5187149,41.3403369 68.145701,41.3403006 L73.8160011,41.3403006 C76.3246534,41.3402915 78.3602211,43.3703576 78.3670012,45.8790007 C78.366965,46.5059868 78.8716514,47.0161589 79.4986012,47.0229007 L94.1110014,47.0229007 C95.9926908,47.0229007 97.5181015,48.5483114 97.5181015,50.4300008 C97.5181015,52.3116902 95.9926908,53.8371008 94.1110014,53.8371008 L51.0610008,53.8371008 C49.1793114,53.8371008 47.6539007,52.3116902 47.6539007,50.4300008 C47.6539007,48.5483114 49.1793114,47.0229007 51.0610008,47.0229007 L51.1102008,47.0229007 Z"/>
    <path fill="#FFF" d="M105.328602,62.373301 C107.135567,62.373301 108.600402,60.9084662 108.600402,59.1015009 L108.600402,52.5579008 C108.600402,47.1234188 113.00592,42.7179007 118.440402,42.7179007 C123.874884,42.7179007 128.280402,47.1234188 128.280402,52.5579008 C128.280377,53.4566017 129.005326,54.1870437 129.904002,54.1938008 L138.083502,54.1938008 C141.697433,54.1938008 144.627102,57.1234704 144.627102,60.7374009 C144.633799,61.6380951 145.362308,62.3666041 146.263002,62.373301 L167.308303,62.373301 C170.025544,62.373301 172.228303,64.57606 172.228303,67.293301 C172.228303,70.0105421 170.025544,72.2133011 167.308303,72.2133011 L105.328602,72.2133011 C102.611361,72.2133011 100.408602,70.0105421 100.408602,67.293301 C100.408602,64.57606 102.611361,62.373301 105.328602,62.373301 Z"/>
    <polygon fill="#959EA8" points="156.251 182.36 46.449 182.36 52.758 175.644 149.941 175.644"/>
    <path fill="#8241AA" d="M167.222203 155.275202C164.626903 150.072302 152.732802 144.279002 150.715602 149.937002 148.833702 155.201402 163.716703 149.937002 167.222203 155.275202zM166.927003 150.711902C168.685903 147.021902 166.791703 137.981402 162.794203 139.297502 159.079602 140.515202 168.366103 146.480702 166.927003 150.711902zM138.932202 186.504903C156.262902 191.129703 140.543502 172.482903 154.196502 171.818703 161.576502 171.462003 162.314503 159.900002 171.970003 162.323103 178.599703 162.815103 169.719103 152.298602 148.329402 160.084502 136.213902 164.487903 133.643202 173.417703 125.722002 174.512403 121.896702 175.053603 111.921402 175.939203 113.089902 180.662403 114.725802 187.242903 109.252302 184.487703 107.518002 188.534403 104.873502 194.684403 119.264502 195.582303 124.258302 190.293303 128.109771 186.478893 133.715596 185.031622 138.932202 186.504903z"/>
    <path fill="#C5C9CE" d="M190.420003,142.680002 C191.454926,144.525511 191.759974,146.684653 191.288512,148.733774 C194.629561,151.198477 196.259165,155.566149 195.044803,159.789302 L194.171503,162.827403 C192.904276,167.206495 188.890255,170.217011 184.331503,170.207403 L184.356103,170.219703 C183.403657,170.217415 182.455991,170.084991 181.539403,169.826103 L168.415303,166.050003 L174.622303,144.493475 L174.602203,144.488102 C174.659849,144.285438 174.724537,144.086084 174.79597,143.890293 L174.946603,143.368802 L174.999173,143.383785 C176.217822,140.604633 178.833347,138.640614 181.905882,138.289399 C185.371265,137.893278 188.733273,139.627015 190.420003,142.680002 Z M177.321024,144.052469 L188.058403,147.144902 C188.405704,147.245235 188.743589,147.362383 189.071428,147.495207 C189.36251,144.565884 187.532401,141.754409 184.602103,140.908802 C181.686538,140.060929 178.650967,141.442693 177.321024,144.052469 Z"/>
    <ellipse cx="87.998" cy="146.604" fill="#F3F4F5" rx="36.679" ry="4.982"/>
    <circle cx="75.932" cy="96.014" r="1.193" fill="#FFF"/>
    <circle cx="79.757" cy="96.014" r="1.193" fill="#FFF"/>
    <circle cx="83.595" cy="96.014" r="1.193" fill="#FFF"/>
    <path fill="#FFF" d="M71.2699011,99.4086015 L71.2699011,130.158602 C71.2901546,131.655081 72.5162481,132.853683 74.0128011,132.840118 L79.2034012,132.840118 L103.803402,99.4455015 L71.2699011,99.4086015 Z"/>
    <path fill="#828B95" d="M139.903902 91.1061014C139.614735 90.749237 139.289067 90.4235683 138.932202 90.1344014 139.289067 90.4235683 139.614735 90.749237 139.903902 91.1061014zM139.903902 91.1061014C140.346249 91.6403197 140.706877 92.2372201 140.974002 92.8773014 140.706877 92.2372201 140.346249 91.6403197 139.903902 91.1061014L139.903902 91.1061014z"/>
    <path fill="#969EA7" d="M74.0128011,132.840002 C73.2918544,132.846556 72.5978353,132.566431 72.0834353,132.061258 C71.5690353,131.556085 71.276396,130.867249 71.2699011,130.146302 L71.2699011,92.9880014 L108.588102,92.9880014 L111.909102,88.4862014 L66.780401,88.4862014 L66.780401,130.109402 C66.8007256,134.087339 70.0348185,137.299431 74.0128011,137.292613 L75.8824012,137.292613 L79.2034012,132.803102 L74.0128011,132.840002 Z"/>
    <polygon fill="#C5C9CE" points="71.27 99.409 103.853 99.409 108.588 92.976 71.27 92.976"/>
    <path fill="#A1A8B0" d="M138.932202 135.656702C138.393078 136.092096 137.797211 136.452099 137.161002 136.726802 137.797211 136.452099 138.393078 136.092096 138.932202 135.656702zM135.808002 88.6338014C136.499442 88.7796445 137.16635 89.0240396 137.788302 89.3595014 137.16635 89.0240396 136.499442 88.7796445 135.808002 88.6338014zM138.932202 135.656702C139.286187 135.359839 139.611515 135.030393 139.903902 134.672702 139.611515 135.030393 139.286187 135.359839 138.932202 135.656702z"/>
    <path fill="#FFF" d="M137.050302,95.6694015 L137.050302,99.3594015 L103.840302,99.3594015 L79.2034012,132.840002 L134.356602,132.840002 C135.844292,132.840002 137.050302,131.633991 137.050302,130.146302 L137.050302,95.7063015 C137.048177,94.5304179 136.280173,93.4931136 135.156102,93.1479014 C136.267284,93.4890024 137.032163,94.5071856 137.050302,95.6694015 L137.050302,95.6694015 Z"/>
    <path fill="#F3F4F5" d="M137.050302,99.4086015 L103.840302,99.4086015 L79.2034012,132.840002 L134.356602,132.840002 C135.844292,132.840002 137.050302,131.633991 137.050302,130.146302 L137.050302,99.3963015"/>
    <path fill="#828B95" d="M140.974002,92.8773014 C140.706877,92.2372201 140.346249,91.6403197 139.903902,91.1061014 C139.614735,90.749237 139.289067,90.4235683 138.932202,90.1344014 C138.576641,89.8400066 138.193576,89.5805106 137.788302,89.3595014 C137.16635,89.0240396 136.499442,88.7796445 135.808002,88.6338014 C135.33057,88.5347883 134.844192,88.4853261 134.356602,88.48619 L111.909102,88.48619 L108.588102,92.9880014 L134.418102,92.9880014 C134.689091,92.9908296 134.958295,93.0322456 135.217602,93.1110014 C136.341673,93.4562136 137.109677,94.4935179 137.111802,95.6694015 L137.111802,130.109402 C137.111802,131.597091 135.905792,132.803102 134.418102,132.803102 L79.2034012,132.803102 L75.8824012,137.292602 L95.1811015,137.292602 L95.1811015,144.082202 L86.9893013,144.082202 L86.9893013,148.005902 L121.330902,148.005902 L121.330902,144.082202 L113.139102,144.082202 L113.139102,137.292602 L134.356602,137.292602 C135.320118,137.296324 136.274301,137.103813 137.161002,136.726802 C137.797211,136.452099 138.393078,136.092096 138.932202,135.656702 C139.286187,135.359839 139.611515,135.030393 139.903902,134.672702 C140.963311,133.388144 141.5418,131.774464 141.539818,130.109402 L141.539818,95.6694015 C141.541857,94.7100258 141.34938,93.7601929 140.974002,92.8773014 Z"/>
    <path fill="#687480" d="M140.974002,92.8773014 C140.706877,92.2372201 140.346249,91.6403197 139.903902,91.1061014 C139.614735,90.749237 139.289067,90.4235683 138.932202,90.1344014 C138.576641,89.8400066 138.193576,89.5805106 137.788302,89.3595014 C137.16635,89.0240396 136.499442,88.7796445 135.808002,88.6338014 C135.33057,88.5347883 134.844192,88.4853261 134.356602,88.48619 L111.909102,88.48619 L108.588102,92.9880014 L134.418102,92.9880014 C134.689091,92.9908296 134.958295,93.0322456 135.217602,93.1110014 C136.341673,93.4562136 137.109677,94.4935179 137.111802,95.6694015 L137.111802,130.109402 C137.111802,131.597091 135.905792,132.803102 134.418102,132.803102 L79.2034012,132.803102 L75.8824012,137.292602 L95.1811015,137.292602 L95.1811015,144.082202 L86.9893013,144.082202 L86.9893013,148.005902 L121.330902,148.005902 L121.330902,144.082202 L113.139102,144.082202 L113.139102,137.292602 L134.356602,137.292602 C135.320118,137.296324 136.274301,137.103813 137.161002,136.726802 C137.797211,136.452099 138.393078,136.092096 138.932202,135.656702 C139.286187,135.359839 139.611515,135.030393 139.903902,134.672702 C140.963311,133.388144 141.5418,131.774464 141.539818,130.109402 L141.539818,95.6694015 C141.541857,94.7100258 141.34938,93.7601929 140.974002,92.8773014 Z"/>
    <path fill="#B1B7BE" d="M137.111802,99.3963015 L137.111802,95.6694015 C137.109678,94.4935179 136.280458,93.4439136 135.156803,93.0987014 C134.897591,93.0199456 134.628487,92.9785296 134.357598,92.9757014 L108.53715,92.9757014 L103.803402,99.3963015 L137.111802,99.3963015 Z"/>
    <path fill="#8241AA" d="M91.2943014,193.921803 C95.6239015,193.122303 115.980402,193.257603 106.595502,197.328903 C97.2106015,201.400203 82.8073013,195.483903 91.2943014,193.921803 Z"/>
  </g>
</svg>
