<svg xmlns="http://www.w3.org/2000/svg" width="220" height="204" viewBox="0 0 220 204">
  <g fill="none" transform="translate(-.5)">
    <path fill="#E8EAEC" d="M110.5,0 C171.251322,0 220.5,49.2486775 220.5,110 C220.5,110.879905 220.489669,111.757396 220.469121,112.63236 L69.6942012,112.631102 C43.3820717,112.631102 20.2142836,126.093627 6.70314544,146.506369 C2.68527737,135.083811 0.5,122.797105 0.5,110 C0.5,49.2486775 49.7486775,0 110.5,0 Z"/>
    <path fill="#F3F4F5" d="M59.657401,59.9256009 C60.2706876,59.9256009 60.8588556,59.6819738 61.2925148,59.2483146 C61.7261739,58.8146555 61.9698011,58.2264875 61.9698011,57.6132009 L61.9698011,52.9884008 C61.9698011,49.1638841 65.0701844,46.0635007 68.8947012,46.0635007 C72.7192179,46.0635007 75.8196013,49.1638841 75.8196013,52.9884008 C75.8196013,53.6269525 76.3372496,54.1446008 76.9758013,54.1446008 L82.7445014,54.1446008 C85.2987079,54.1446008 87.3693014,56.2151944 87.3693014,58.7694009 C87.3693014,59.4079525 87.8869498,59.9256009 88.5255015,59.9256009 L103.383902,59.9256009 C105.216115,60.034853 106.646041,61.552583 106.646041,63.388051 C106.646041,65.223519 105.216115,66.741249 103.383902,66.850501 L59.657401,66.850501 C58.3711381,66.9271989 57.148364,66.2845459 56.4820648,65.1816406 C55.8157656,64.0787353 55.8157656,62.6973667 56.4820648,61.5944614 C57.148364,60.491556 58.3711381,59.8489031 59.657401,59.9256009 L59.657401,59.9256009 Z"/>
    <path fill="#FFF" d="M115.893002,72.0534011 C117.733933,72.0534011 119.226302,70.5610319 119.226302,68.7201011 L119.226302,62.065801 C119.226302,56.5565948 123.692396,52.0905008 129.201602,52.0905008 C134.710808,52.0905008 139.176902,56.5565948 139.176902,62.065801 C139.173624,62.5083202 139.347121,62.9338417 139.658881,63.2479112 C139.970641,63.5619807 140.394871,63.7386131 140.837402,63.738601 L149.152202,63.738601 C152.820478,63.738601 155.794203,66.7123257 155.794203,70.3806011 C155.794203,70.8242552 155.970443,71.2497385 156.284154,71.5634493 C156.597865,71.8771602 157.023348,72.0534011 157.467003,72.0534011 L178.856703,72.0534011 C180.697714,71.9619488 182.439398,72.8920821 183.387322,74.4729441 C184.335246,76.053806 184.335246,78.0282963 183.387322,79.6091583 C182.439398,81.1900202 180.697714,82.1201536 178.856703,82.0287013 L115.893002,82.0287013 C113.234587,81.8966443 111.146964,79.7027441 111.146964,77.0410512 C111.146964,74.3793583 113.234587,72.185458 115.893002,72.0534011 L115.893002,72.0534011 Z"/>
    <ellipse cx="129.595" cy="195.336" fill="#F3F4F5" rx="61.119" ry="3.936"/>
    <path fill="#EC0677" d="M79.2636013,158.989802 L79.2636013,186.541803 L101.871002,186.541803 C118.094702,186.541803 128.143802,164.106603 128.143802,164.106603 C129.853502,160.281302 132.657902,160.281302 134.367602,164.106603 C134.367602,164.106603 144.416702,186.541803 160.640403,186.541803 L182.952603,186.541803 L182.952603,159.088202 C167.122503,159.051302 106.249802,158.903702 79.2636013,158.989802 Z"/>
    <path fill="#969EA7" d="M183.247803,119.912702 C182.269596,119.912702 181.476603,120.705695 181.476603,121.683902 L181.476603,127.526402 L160.640403,127.526402 C143.420402,127.526402 133.174502,150.047702 132.756302,151.007102 C132.153602,152.335502 131.526302,152.827502 131.255702,152.827502 C130.985102,152.827502 130.345502,152.335502 129.755102,151.007102 C129.324602,150.047702 119.041802,127.526402 101.871002,127.526402 L81.0348013,127.526402 L81.0348013,121.683902 C81.0348013,120.705695 80.2418081,119.912702 79.2636013,119.912702 C78.2853946,119.912702 77.4924013,120.705695 77.4924013,121.683902 L77.4924013,194.155503 C77.4924013,194.788292 77.82999,195.373013 78.3780013,195.689407 C78.9260125,196.005802 79.6011902,196.005802 80.1492014,195.689407 C80.6972126,195.373013 81.0348014,194.788292 81.0348013,194.155503 L81.0348013,188.313003 L101.871002,188.313003 C119.091002,188.313003 129.324602,165.791703 129.755102,164.832303 C130.345502,163.503903 130.985102,163.011903 131.255702,163.011903 C131.526302,163.011903 132.153602,163.503903 132.756302,164.832303 C133.174502,165.791703 143.457302,188.313003 160.640403,188.313003 L181.476603,188.313003 L181.476603,194.155503 C181.476603,194.788292 181.814192,195.373013 182.362203,195.689407 C182.910214,196.005802 183.585392,196.005802 184.133403,195.689407 C184.681414,195.373013 185.019003,194.788292 185.019003,194.155503 L185.019003,121.683902 C185.012299,120.708486 184.223219,119.919406 183.247803,119.912702 L183.247803,119.912702 Z M101.871002,184.782903 L81.0348013,184.782903 L81.0348013,131.068802 L101.871002,131.068802 C116.790902,131.068802 126.471002,152.237102 126.471002,152.458502 C127.996202,155.865602 130.087202,156.369902 131.194202,156.369902 C132.301202,156.369902 134.392202,155.865602 135.917402,152.458502 C136.015802,152.249402 145.659002,131.068802 160.517403,131.068802 L181.353603,131.068802 L181.353603,184.782903 L160.640403,184.782903 C145.708202,184.782903 136.040402,163.602303 136.040402,163.380903 C134.515202,159.986102 132.424202,159.469502 131.317202,159.469502 C130.210202,159.469502 128.106902,159.986102 126.594002,163.380903 C126.434102,163.590003 116.790902,184.782903 101.871002,184.782903 Z"/>
  </g>
</svg>
